G04 #@! TF.FileFunction,Copper,L1,Top*
%FSLAX46Y46*%
G04 Gerber Fmt 4.6, Leading zero omitted, Abs format (unit mm)*
G04 Created by KiCad (PCBNEW 4.0.5+dfsg1-4) date Sat Apr 29 18:46:39 2017*
%MOMM*%
%LPD*%
G01*
G04 APERTURE LIST*
%ADD10C,0.100000*%
%ADD11C,0.300000*%
%ADD12R,2.400000X1.600000*%
%ADD13O,2.400000X1.600000*%
%ADD14R,1.397000X1.397000*%
%ADD15C,1.397000*%
%ADD16R,1.600000X1.600000*%
%ADD17O,1.600000X1.600000*%
%ADD18R,1.700000X1.700000*%
%ADD19O,1.700000X1.700000*%
%ADD20C,0.600000*%
%ADD21C,0.508000*%
%ADD22C,0.203200*%
%ADD23C,0.250000*%
%ADD24C,0.254000*%
G04 APERTURE END LIST*
D10*
D11*
X118003429Y-140886571D02*
X118003429Y-139386571D01*
X118503429Y-140458000D01*
X119003429Y-139386571D01*
X119003429Y-140886571D01*
X119646286Y-140458000D02*
X120360572Y-140458000D01*
X119503429Y-140886571D02*
X120003429Y-139386571D01*
X120503429Y-140886571D01*
X120860572Y-139386571D02*
X121860572Y-140886571D01*
X121860572Y-139386571D02*
X120860572Y-140886571D01*
X124432000Y-140886571D02*
X123932000Y-140172286D01*
X123574857Y-140886571D02*
X123574857Y-139386571D01*
X124146285Y-139386571D01*
X124289143Y-139458000D01*
X124360571Y-139529429D01*
X124432000Y-139672286D01*
X124432000Y-139886571D01*
X124360571Y-140029429D01*
X124289143Y-140100857D01*
X124146285Y-140172286D01*
X123574857Y-140172286D01*
X125003428Y-140458000D02*
X125717714Y-140458000D01*
X124860571Y-140886571D02*
X125360571Y-139386571D01*
X125860571Y-140886571D01*
X126360571Y-140886571D02*
X126360571Y-139386571D01*
X126860571Y-140458000D01*
X127360571Y-139386571D01*
X127360571Y-140886571D01*
D12*
X114935000Y-101600000D03*
D13*
X130175000Y-139700000D03*
X114935000Y-104140000D03*
X130175000Y-137160000D03*
X114935000Y-106680000D03*
X130175000Y-134620000D03*
X114935000Y-109220000D03*
X130175000Y-132080000D03*
X114935000Y-111760000D03*
X130175000Y-129540000D03*
X114935000Y-114300000D03*
X130175000Y-127000000D03*
X114935000Y-116840000D03*
X130175000Y-124460000D03*
X114935000Y-119380000D03*
X130175000Y-121920000D03*
X114935000Y-121920000D03*
X130175000Y-119380000D03*
X114935000Y-124460000D03*
X130175000Y-116840000D03*
X114935000Y-127000000D03*
X130175000Y-114300000D03*
X114935000Y-129540000D03*
X130175000Y-111760000D03*
X114935000Y-132080000D03*
X130175000Y-109220000D03*
X114935000Y-134620000D03*
X130175000Y-106680000D03*
X114935000Y-137160000D03*
X130175000Y-104140000D03*
X114935000Y-139700000D03*
X130175000Y-101600000D03*
D14*
X172720000Y-119380000D03*
D15*
X175260000Y-116840000D03*
X172720000Y-116840000D03*
X175260000Y-114300000D03*
X172720000Y-114300000D03*
X175260000Y-111760000D03*
X172720000Y-109220000D03*
X172720000Y-111760000D03*
X170180000Y-109220000D03*
X170180000Y-111760000D03*
X167640000Y-109220000D03*
X167640000Y-111760000D03*
X165100000Y-109220000D03*
X165100000Y-111760000D03*
X162560000Y-109220000D03*
X162560000Y-111760000D03*
X160020000Y-109220000D03*
X157480000Y-111760000D03*
X160020000Y-111760000D03*
X157480000Y-114300000D03*
X160020000Y-114300000D03*
X157480000Y-116840000D03*
X160020000Y-116840000D03*
X157480000Y-119380000D03*
X160020000Y-119380000D03*
X157480000Y-121920000D03*
X160020000Y-121920000D03*
X157480000Y-124460000D03*
X160020000Y-127000000D03*
X160020000Y-124460000D03*
X162560000Y-127000000D03*
X162560000Y-124460000D03*
X165100000Y-127000000D03*
X165100000Y-124460000D03*
X167640000Y-127000000D03*
X167640000Y-124460000D03*
X170180000Y-127000000D03*
X170180000Y-124460000D03*
X172720000Y-127000000D03*
X175260000Y-124460000D03*
X172720000Y-124460000D03*
X175260000Y-121920000D03*
X172720000Y-121920000D03*
X175260000Y-119380000D03*
D16*
X165100000Y-132080000D03*
D17*
X172720000Y-139700000D03*
X165100000Y-134620000D03*
X172720000Y-137160000D03*
X165100000Y-137160000D03*
X172720000Y-134620000D03*
X165100000Y-139700000D03*
X172720000Y-132080000D03*
D18*
X184150000Y-106680000D03*
D19*
X184150000Y-109220000D03*
X184150000Y-111760000D03*
X184150000Y-114300000D03*
X184150000Y-116840000D03*
X184150000Y-119380000D03*
X184150000Y-121920000D03*
X184150000Y-124460000D03*
X184150000Y-127000000D03*
X184150000Y-129540000D03*
X184150000Y-132080000D03*
X184150000Y-134620000D03*
X184150000Y-137160000D03*
X184150000Y-139700000D03*
D12*
X134620000Y-101600000D03*
D13*
X149860000Y-139700000D03*
X134620000Y-104140000D03*
X149860000Y-137160000D03*
X134620000Y-106680000D03*
X149860000Y-134620000D03*
X134620000Y-109220000D03*
X149860000Y-132080000D03*
X134620000Y-111760000D03*
X149860000Y-129540000D03*
X134620000Y-114300000D03*
X149860000Y-127000000D03*
X134620000Y-116840000D03*
X149860000Y-124460000D03*
X134620000Y-119380000D03*
X149860000Y-121920000D03*
X134620000Y-121920000D03*
X149860000Y-119380000D03*
X134620000Y-124460000D03*
X149860000Y-116840000D03*
X134620000Y-127000000D03*
X149860000Y-114300000D03*
X134620000Y-129540000D03*
X149860000Y-111760000D03*
X134620000Y-132080000D03*
X149860000Y-109220000D03*
X134620000Y-134620000D03*
X149860000Y-106680000D03*
X134620000Y-137160000D03*
X149860000Y-104140000D03*
X134620000Y-139700000D03*
X149860000Y-101600000D03*
D18*
X157480000Y-104140000D03*
D19*
X157480000Y-101600000D03*
X160020000Y-104140000D03*
X160020000Y-101600000D03*
X162560000Y-104140000D03*
X162560000Y-101600000D03*
X165100000Y-104140000D03*
X165100000Y-101600000D03*
X167640000Y-104140000D03*
X167640000Y-101600000D03*
D18*
X161544000Y-134620000D03*
D19*
X161544000Y-137160000D03*
D18*
X111760000Y-106680000D03*
D19*
X111760000Y-109220000D03*
X111760000Y-111760000D03*
X111760000Y-114300000D03*
X111760000Y-116840000D03*
X111760000Y-119380000D03*
X111760000Y-121920000D03*
X111760000Y-124460000D03*
X111760000Y-127000000D03*
X111760000Y-129540000D03*
X111760000Y-132080000D03*
X111760000Y-134620000D03*
X111760000Y-137160000D03*
X111760000Y-139700000D03*
D18*
X180340000Y-124460000D03*
D19*
X180340000Y-121920000D03*
X180340000Y-119380000D03*
X180340000Y-116840000D03*
X180340000Y-114300000D03*
X180340000Y-111760000D03*
X180340000Y-109220000D03*
X180340000Y-106680000D03*
D20*
X165100000Y-117094000D03*
X152640131Y-123994951D03*
X128169202Y-111725551D03*
X136728527Y-121476774D03*
X152640131Y-127152277D03*
X152932666Y-130668601D03*
X151732899Y-133352960D03*
X156052879Y-126659524D03*
X151931747Y-135885206D03*
X155443220Y-127182462D03*
X156061241Y-128027910D03*
X151872205Y-138270002D03*
X171450640Y-111188452D03*
X154488786Y-113339554D03*
X137039109Y-112319782D03*
X136121445Y-107948985D03*
X139637297Y-108781943D03*
X140694433Y-104845345D03*
X139446000Y-106680000D03*
X155702000Y-119126000D03*
X155702000Y-125476000D03*
X152133246Y-131539612D03*
X136894808Y-103342714D03*
X151638000Y-102870000D03*
X153003013Y-137641241D03*
X152640131Y-125645240D03*
X174752000Y-110236000D03*
X174890403Y-109199389D03*
X172212000Y-110490000D03*
X172369614Y-107509475D03*
X174848153Y-106734932D03*
D21*
X174498000Y-105156000D02*
X170413931Y-105156000D01*
X170413931Y-105156000D02*
X169581273Y-104323342D01*
X169581273Y-104323342D02*
X169581273Y-100921148D01*
X169581273Y-100921148D02*
X168607346Y-99947221D01*
X168607346Y-99947221D02*
X160020000Y-99947221D01*
X160020000Y-99947221D02*
X160020000Y-101600000D01*
X184150000Y-106680000D02*
X184150000Y-106151968D01*
X184150000Y-106151968D02*
X183154032Y-105156000D01*
X183154032Y-105156000D02*
X174498000Y-105156000D01*
X160020000Y-101600000D02*
X160020000Y-99952241D01*
X160020000Y-99952241D02*
X132222759Y-99952241D01*
X132222759Y-99952241D02*
X130575000Y-101600000D01*
X130575000Y-101600000D02*
X130175000Y-101600000D01*
X170688000Y-116840000D02*
X171195836Y-116840000D01*
X171195836Y-116840000D02*
X171195836Y-113043358D01*
X171195836Y-113043358D02*
X173457835Y-113043358D01*
X173457835Y-113043358D02*
X173989560Y-112511633D01*
X173989560Y-105156000D02*
X174498000Y-105156000D01*
X173989560Y-112511633D02*
X173989560Y-105156000D01*
X163944299Y-110632577D02*
X162560000Y-109248278D01*
X165100000Y-117094000D02*
X163944299Y-115938299D01*
X162560000Y-109248278D02*
X162560000Y-109220000D01*
X163944299Y-115938299D02*
X163944299Y-110632577D01*
X172720000Y-116840000D02*
X170688000Y-116840000D01*
X170688000Y-116840000D02*
X165354000Y-116840000D01*
X165354000Y-116840000D02*
X165100000Y-117094000D01*
X165100000Y-117094000D02*
X160274000Y-117094000D01*
X160274000Y-117094000D02*
X160020000Y-116840000D01*
D22*
X136728527Y-121476774D02*
X146627073Y-121476774D01*
X146627073Y-121476774D02*
X148332566Y-123182267D01*
X148332566Y-123182267D02*
X151827447Y-123182267D01*
X152340132Y-123694952D02*
X152640131Y-123994951D01*
X151827447Y-123182267D02*
X152340132Y-123694952D01*
X128169202Y-111725551D02*
X127622660Y-111725551D01*
X127622660Y-111725551D02*
X126367634Y-110470525D01*
X126367634Y-110470525D02*
X113010525Y-110470525D01*
X113010525Y-110470525D02*
X111760000Y-109220000D01*
X134620000Y-111760000D02*
X133037115Y-111760000D01*
X133037115Y-111760000D02*
X131750648Y-113046467D01*
X131750648Y-113046467D02*
X127788097Y-113046467D01*
X127788097Y-113046467D02*
X126501630Y-111760000D01*
X126501630Y-111760000D02*
X114935000Y-111760000D01*
X115335000Y-111760000D02*
X114935000Y-111760000D01*
D23*
X114935000Y-111760000D02*
X111760000Y-111760000D01*
X114935000Y-114300000D02*
X111760000Y-114300000D01*
D22*
X127372180Y-114300000D02*
X114935000Y-114300000D01*
X132994588Y-114300000D02*
X134620000Y-114300000D01*
X131724588Y-115570000D02*
X132994588Y-114300000D01*
X128642180Y-115570000D02*
X131724588Y-115570000D01*
X127372180Y-114300000D02*
X128642180Y-115570000D01*
D23*
X114935000Y-116840000D02*
X111760000Y-116840000D01*
D22*
X127468002Y-116840000D02*
X114935000Y-116840000D01*
X132953447Y-116840000D02*
X134620000Y-116840000D01*
X131683447Y-118110000D02*
X132953447Y-116840000D01*
X128738002Y-118110000D02*
X131683447Y-118110000D01*
X127468002Y-116840000D02*
X128738002Y-118110000D01*
X114935000Y-119380000D02*
X127528260Y-119380000D01*
X127528260Y-119380000D02*
X128798260Y-120650000D01*
X128798260Y-120650000D02*
X131723094Y-120650000D01*
X131723094Y-120650000D02*
X132993094Y-119380000D01*
X132993094Y-119380000D02*
X134620000Y-119380000D01*
D23*
X114935000Y-119380000D02*
X111760000Y-119380000D01*
X114935000Y-121920000D02*
X111760000Y-121920000D01*
D22*
X127486888Y-121920000D02*
X114935000Y-121920000D01*
X132957100Y-121920000D02*
X134620000Y-121920000D01*
X131687100Y-123190000D02*
X132957100Y-121920000D01*
X128756888Y-123190000D02*
X131687100Y-123190000D01*
X127486888Y-121920000D02*
X128756888Y-123190000D01*
D23*
X114935000Y-124460000D02*
X111760000Y-124460000D01*
D22*
X127455679Y-124460000D02*
X114935000Y-124460000D01*
X133051618Y-124460000D02*
X134620000Y-124460000D01*
X131781618Y-125730000D02*
X133051618Y-124460000D01*
X128725679Y-125730000D02*
X131781618Y-125730000D01*
X127455679Y-124460000D02*
X128725679Y-125730000D01*
X152340132Y-127452276D02*
X152640131Y-127152277D01*
X147677241Y-128267207D02*
X151525201Y-128267207D01*
X146410034Y-127000000D02*
X147677241Y-128267207D01*
X134620000Y-127000000D02*
X146410034Y-127000000D01*
X151525201Y-128267207D02*
X152340132Y-127452276D01*
D23*
X114935000Y-127000000D02*
X111760000Y-127000000D01*
D22*
X127454424Y-127000000D02*
X114935000Y-127000000D01*
X133350000Y-127000000D02*
X134620000Y-127000000D01*
X128724424Y-128270000D02*
X132080000Y-128270000D01*
X127454424Y-127000000D02*
X128724424Y-128270000D01*
X132080000Y-128270000D02*
X133350000Y-127000000D01*
X152932666Y-130668601D02*
X152508402Y-130668601D01*
X152508402Y-130668601D02*
X152367003Y-130810000D01*
X152367003Y-130810000D02*
X147809515Y-130810000D01*
X146539515Y-129540000D02*
X134620000Y-129540000D01*
X147809515Y-130810000D02*
X146539515Y-129540000D01*
X114935000Y-129540000D02*
X127349701Y-129540000D01*
X131813753Y-130810000D02*
X133083753Y-129540000D01*
X127349701Y-129540000D02*
X128619701Y-130810000D01*
X128619701Y-130810000D02*
X131813753Y-130810000D01*
X133083753Y-129540000D02*
X134620000Y-129540000D01*
D23*
X114935000Y-129540000D02*
X111760000Y-129540000D01*
D22*
X151308635Y-133352960D02*
X151732899Y-133352960D01*
X147961947Y-133352960D02*
X151308635Y-133352960D01*
X146688987Y-132080000D02*
X147961947Y-133352960D01*
X134620000Y-132080000D02*
X146688987Y-132080000D01*
X156352878Y-126959523D02*
X156052879Y-126659524D01*
X156393355Y-127000000D02*
X156352878Y-126959523D01*
X160020000Y-127000000D02*
X156393355Y-127000000D01*
X114935000Y-132080000D02*
X127315877Y-132080000D01*
X127315877Y-132080000D02*
X128585877Y-133350000D01*
X128585877Y-133350000D02*
X131697572Y-133350000D01*
X131697572Y-133350000D02*
X132967572Y-132080000D01*
X132967572Y-132080000D02*
X134620000Y-132080000D01*
D23*
X114935000Y-132080000D02*
X111760000Y-132080000D01*
D22*
X151507483Y-135885206D02*
X151931747Y-135885206D01*
X146701624Y-134620000D02*
X147966830Y-135885206D01*
X147966830Y-135885206D02*
X151507483Y-135885206D01*
X134620000Y-134620000D02*
X146701624Y-134620000D01*
X162560000Y-127000000D02*
X161556699Y-128003301D01*
X161556699Y-128003301D02*
X159207830Y-128003301D01*
X159207830Y-128003301D02*
X158627637Y-127423108D01*
X158627637Y-127423108D02*
X155683866Y-127423108D01*
X155683866Y-127423108D02*
X155443220Y-127182462D01*
D23*
X114935000Y-134620000D02*
X111760000Y-134620000D01*
D22*
X127351419Y-134620000D02*
X114935000Y-134620000D01*
X133043578Y-134620599D02*
X134619401Y-134620599D01*
X128621419Y-135890000D02*
X131774177Y-135890000D01*
X131774177Y-135890000D02*
X133043578Y-134620599D01*
X127351419Y-134620000D02*
X128621419Y-135890000D01*
D23*
X134619401Y-134620599D02*
X134620000Y-134620000D01*
D22*
X134620000Y-137160000D02*
X146784881Y-137160000D01*
X146784881Y-137160000D02*
X148033701Y-138408820D01*
X148033701Y-138408820D02*
X151309123Y-138408820D01*
X151309123Y-138408820D02*
X151447941Y-138270002D01*
X151447941Y-138270002D02*
X151872205Y-138270002D01*
X156443043Y-128409712D02*
X156361240Y-128327909D01*
X163690288Y-128409712D02*
X156443043Y-128409712D01*
X165100000Y-127000000D02*
X163690288Y-128409712D01*
X156361240Y-128327909D02*
X156061241Y-128027910D01*
X114935000Y-137160000D02*
X127329547Y-137160000D01*
X133014821Y-137160000D02*
X134620000Y-137160000D01*
X131753828Y-138420993D02*
X133014821Y-137160000D01*
X128590540Y-138420993D02*
X131753828Y-138420993D01*
X127329547Y-137160000D02*
X128590540Y-138420993D01*
D23*
X114935000Y-137160000D02*
X111760000Y-137160000D01*
D22*
X180340000Y-121920000D02*
X177805730Y-121920000D01*
X177805730Y-121920000D02*
X176544934Y-120659204D01*
X176544934Y-120659204D02*
X174279724Y-120659204D01*
X174279724Y-120659204D02*
X173000520Y-119380000D01*
X173000520Y-119380000D02*
X172720000Y-119380000D01*
X162560000Y-124460000D02*
X161357742Y-123257742D01*
X159441248Y-118110000D02*
X158737926Y-117406678D01*
X158737926Y-117406678D02*
X158737926Y-116269426D01*
X161357742Y-123257742D02*
X161340387Y-123257742D01*
X161340387Y-123257742D02*
X161340387Y-118879364D01*
X161340387Y-118879364D02*
X160571023Y-118110000D01*
X159437352Y-115570000D02*
X160623332Y-115570000D01*
X160571023Y-118110000D02*
X159441248Y-118110000D01*
X158737926Y-116269426D02*
X159437352Y-115570000D01*
X159024266Y-107957726D02*
X158520929Y-107454389D01*
X160623332Y-115570000D02*
X161283074Y-114910258D01*
X161283074Y-114910258D02*
X161283074Y-108643822D01*
X161283074Y-108643822D02*
X160596978Y-107957726D01*
X160596978Y-107957726D02*
X159024266Y-107957726D01*
X158520929Y-107454389D02*
X158520929Y-105868952D01*
X158520929Y-105868952D02*
X157480000Y-104828023D01*
X157480000Y-104828023D02*
X157480000Y-104140000D01*
X160020000Y-104140000D02*
X161287626Y-102872374D01*
X161287626Y-102872374D02*
X163324374Y-102872374D01*
X166404270Y-109886781D02*
X167005351Y-110487862D01*
X163324374Y-102872374D02*
X163846650Y-103394650D01*
X163846650Y-103394650D02*
X163846650Y-106075255D01*
X163846650Y-106075255D02*
X166404270Y-108632875D01*
X166404270Y-108632875D02*
X166404270Y-109886781D01*
X167005351Y-110487862D02*
X170845427Y-110487862D01*
X170845427Y-110487862D02*
X171450640Y-111093075D01*
X171450640Y-111093075D02*
X171450640Y-111188452D01*
X162560000Y-106680000D02*
X162560000Y-105342081D01*
X165100000Y-109220000D02*
X162560000Y-106680000D01*
X162560000Y-105342081D02*
X162560000Y-104140000D01*
X172720000Y-109220000D02*
X173190359Y-108749641D01*
X168489999Y-104989999D02*
X167640000Y-104140000D01*
X173190359Y-108749641D02*
X173190359Y-107031281D01*
X173190359Y-107031281D02*
X172432669Y-106273591D01*
X172432669Y-106273591D02*
X169773591Y-106273591D01*
X169773591Y-106273591D02*
X168489999Y-104989999D01*
X137039109Y-112319782D02*
X147210228Y-112319782D01*
X147210228Y-112319782D02*
X147917126Y-113026680D01*
X147917126Y-113026680D02*
X154175912Y-113026680D01*
X154175912Y-113026680D02*
X154488786Y-113339554D01*
D23*
X114935000Y-101600000D02*
X127327422Y-101600000D01*
X127327422Y-101600000D02*
X128583739Y-102856317D01*
X128583739Y-102856317D02*
X131767645Y-102856317D01*
X131767645Y-102856317D02*
X133023962Y-101600000D01*
X133023962Y-101600000D02*
X134620000Y-101600000D01*
D22*
X149860000Y-106680000D02*
X148075591Y-106680000D01*
X148075591Y-106680000D02*
X146806606Y-107948985D01*
X146806606Y-107948985D02*
X136545709Y-107948985D01*
X136545709Y-107948985D02*
X136121445Y-107948985D01*
X151263200Y-106680000D02*
X149860000Y-106680000D01*
X155074743Y-110491543D02*
X151263200Y-106680000D01*
X158751543Y-110491543D02*
X155074743Y-110491543D01*
X160020000Y-111760000D02*
X158751543Y-110491543D01*
X184150000Y-111760000D02*
X183383433Y-111760000D01*
X183383433Y-111760000D02*
X182104150Y-113039283D01*
X182104150Y-113039283D02*
X176539283Y-113039283D01*
X176539283Y-113039283D02*
X175260000Y-111760000D01*
X150260000Y-114300000D02*
X149860000Y-114300000D01*
X154703117Y-118743117D02*
X150260000Y-114300000D01*
X154703117Y-127779117D02*
X154703117Y-118743117D01*
X155740123Y-128816123D02*
X154703117Y-127779117D01*
X181814699Y-126725084D02*
X179723660Y-128816123D01*
X181814699Y-118600550D02*
X181814699Y-126725084D01*
X182505763Y-117909486D02*
X181814699Y-118600550D01*
X182505763Y-115944237D02*
X182505763Y-117909486D01*
X184150000Y-114300000D02*
X182505763Y-115944237D01*
X179723660Y-128816123D02*
X155740123Y-128816123D01*
X129540000Y-114300000D02*
X131799195Y-114300000D01*
X131799195Y-114300000D02*
X133069195Y-113030000D01*
X133069195Y-113030000D02*
X135986491Y-113030000D01*
X135986491Y-113030000D02*
X137256491Y-114300000D01*
X137256491Y-114300000D02*
X148876080Y-114300000D01*
D23*
X148876080Y-114300000D02*
X149860000Y-114300000D01*
D22*
X182221110Y-126893423D02*
X179879357Y-129235176D01*
X154228820Y-128201958D02*
X154228820Y-119762946D01*
X184150000Y-116840000D02*
X182221110Y-118768890D01*
X179879357Y-129235176D02*
X155262038Y-129235176D01*
X151305874Y-116840000D02*
X150260000Y-116840000D01*
X182221110Y-118768890D02*
X182221110Y-126893423D01*
X155262038Y-129235176D02*
X154228820Y-128201958D01*
X154228820Y-119762946D02*
X151305874Y-116840000D01*
X129540000Y-116840000D02*
X131732430Y-116840000D01*
X131732430Y-116840000D02*
X133002430Y-115570000D01*
X133002430Y-115570000D02*
X146696847Y-115570000D01*
X147966847Y-116840000D02*
X148410000Y-116840000D01*
X148410000Y-116840000D02*
X149860000Y-116840000D01*
X146696847Y-115570000D02*
X147966847Y-116840000D01*
X150260000Y-116840000D02*
X149860000Y-116840000D01*
X150260000Y-116840000D02*
X150260000Y-116453001D01*
X152801025Y-119380000D02*
X153822409Y-120401384D01*
X182627521Y-127061764D02*
X182627521Y-120902479D01*
X153822409Y-128370298D02*
X155093698Y-129641587D01*
X180047698Y-129641587D02*
X182627521Y-127061764D01*
X183300001Y-120229999D02*
X184150000Y-119380000D01*
X182627521Y-120902479D02*
X183300001Y-120229999D01*
X149860000Y-119380000D02*
X152801025Y-119380000D01*
X153822409Y-120401384D02*
X153822409Y-128370298D01*
X155093698Y-129641587D02*
X180047698Y-129641587D01*
D23*
X129540000Y-119380000D02*
X131699035Y-119380000D01*
X131699035Y-119380000D02*
X132969035Y-118110000D01*
X146832900Y-118110000D02*
X148102900Y-119380000D01*
X132969035Y-118110000D02*
X146832900Y-118110000D01*
X148410000Y-119380000D02*
X149860000Y-119380000D01*
X148102900Y-119380000D02*
X148410000Y-119380000D01*
D22*
X149860000Y-124460000D02*
X148249999Y-124460000D01*
X148249999Y-124460000D02*
X146979999Y-123190000D01*
X146979999Y-123190000D02*
X132992628Y-123190000D01*
X132992628Y-123190000D02*
X131722628Y-124460000D01*
X131722628Y-124460000D02*
X130810000Y-124460000D01*
X185572610Y-125882610D02*
X184999999Y-125309999D01*
X154925358Y-130047998D02*
X180216037Y-130047998D01*
X150571085Y-124599753D02*
X152911381Y-124599753D01*
X153366876Y-128489516D02*
X154925358Y-130047998D01*
X180216037Y-130047998D02*
X181994035Y-128270000D01*
X150431332Y-124460000D02*
X150571085Y-124599753D01*
X152911381Y-124599753D02*
X153366876Y-125055248D01*
X153366876Y-125055248D02*
X153366876Y-128489516D01*
X181994035Y-128270000D02*
X184961586Y-128270000D01*
X184961586Y-128270000D02*
X185572610Y-127658976D01*
X185572610Y-127658976D02*
X185572610Y-125882610D01*
X184999999Y-125309999D02*
X184150000Y-124460000D01*
D23*
X130810000Y-124460000D02*
X129540000Y-124460000D01*
X150431332Y-124460000D02*
X149860000Y-124460000D01*
D22*
X184150000Y-129540000D02*
X181359498Y-129540000D01*
X181359498Y-129540000D02*
X180445087Y-130454411D01*
X180445087Y-130454411D02*
X154757020Y-130454411D01*
X154757020Y-130454411D02*
X153842609Y-129540000D01*
X153842609Y-129540000D02*
X150260000Y-129540000D01*
X150260000Y-129540000D02*
X149860000Y-129540000D01*
X129540000Y-129540000D02*
X131718652Y-129540000D01*
X147822464Y-129540000D02*
X149860000Y-129540000D01*
X146552464Y-128270000D02*
X147822464Y-129540000D01*
X132988652Y-128270000D02*
X146552464Y-128270000D01*
X131718652Y-129540000D02*
X132988652Y-128270000D01*
X129540000Y-132080000D02*
X131731807Y-132080000D01*
X131731807Y-132080000D02*
X133001807Y-130810000D01*
X133001807Y-130810000D02*
X146604968Y-130810000D01*
X146604968Y-130810000D02*
X147874968Y-132080000D01*
X147874968Y-132080000D02*
X149860000Y-132080000D01*
X149860000Y-132080000D02*
X151263200Y-132080000D01*
X152707527Y-132704213D02*
X153355476Y-133352162D01*
X151263200Y-132080000D02*
X151887413Y-132704213D01*
X151887413Y-132704213D02*
X152707527Y-132704213D01*
X153355476Y-133352162D02*
X182877838Y-133352162D01*
X182877838Y-133352162D02*
X183300001Y-132929999D01*
X183300001Y-132929999D02*
X184150000Y-132080000D01*
X150260000Y-132080000D02*
X149860000Y-132080000D01*
D23*
X184151106Y-132078894D02*
X184150000Y-132080000D01*
D22*
X184150000Y-134620000D02*
X183733348Y-134620000D01*
X183733348Y-134620000D02*
X182457160Y-135896188D01*
X182457160Y-135896188D02*
X154061098Y-135896188D01*
X154061098Y-135896188D02*
X152781703Y-134616793D01*
X152781703Y-134616793D02*
X149863207Y-134616793D01*
X149863207Y-134616793D02*
X149860000Y-134620000D01*
X129540000Y-134620000D02*
X131709037Y-134620000D01*
X131709037Y-134620000D02*
X132979037Y-133350000D01*
X146723044Y-133350000D02*
X147993044Y-134620000D01*
X132979037Y-133350000D02*
X146723044Y-133350000D01*
X147993044Y-134620000D02*
X149860000Y-134620000D01*
X149860000Y-137160000D02*
X151646159Y-137160000D01*
X151646159Y-137160000D02*
X155508196Y-141022037D01*
X183300001Y-138009999D02*
X184150000Y-137160000D01*
X155508196Y-141022037D02*
X180287963Y-141022037D01*
X180287963Y-141022037D02*
X183300001Y-138009999D01*
X129540000Y-137160000D02*
X131750200Y-137160000D01*
X131750200Y-137160000D02*
X133020200Y-135890000D01*
X133020200Y-135890000D02*
X146653779Y-135890000D01*
X146653779Y-135890000D02*
X147939895Y-137176116D01*
X147939895Y-137176116D02*
X149843884Y-137176116D01*
D23*
X149843884Y-137176116D02*
X149860000Y-137160000D01*
D22*
X129540000Y-139700000D02*
X131772315Y-139700000D01*
X146920396Y-138543323D02*
X146921861Y-138543323D01*
X131772315Y-139700000D02*
X133045417Y-138426898D01*
X133045417Y-138426898D02*
X146803971Y-138426898D01*
X146803971Y-138426898D02*
X146920396Y-138543323D01*
X146921861Y-138543323D02*
X148078538Y-139700000D01*
X148078538Y-139700000D02*
X149860000Y-139700000D01*
X149860000Y-139700000D02*
X151689816Y-139700000D01*
X153441664Y-141451848D02*
X180071181Y-141451848D01*
X180071181Y-141451848D02*
X180098581Y-141479248D01*
X183572833Y-141479248D02*
X184150000Y-140902081D01*
X151689816Y-139700000D02*
X153441664Y-141451848D01*
X180098581Y-141479248D02*
X183572833Y-141479248D01*
X184150000Y-140902081D02*
X184150000Y-139700000D01*
X157480000Y-111760000D02*
X155238454Y-111760000D01*
X148140170Y-107950000D02*
X147308227Y-108781943D01*
X155238454Y-111760000D02*
X151428454Y-107950000D01*
X151428454Y-107950000D02*
X148140170Y-107950000D01*
X147308227Y-108781943D02*
X140061561Y-108781943D01*
X140061561Y-108781943D02*
X139637297Y-108781943D01*
X140394434Y-104545346D02*
X140694433Y-104845345D01*
X134620000Y-104140000D02*
X139989088Y-104140000D01*
X139989088Y-104140000D02*
X140394434Y-104545346D01*
X115570000Y-104140000D02*
X127361500Y-104140000D01*
X132937937Y-104140000D02*
X134620000Y-104140000D01*
X131661272Y-105416665D02*
X132937937Y-104140000D01*
X128638165Y-105416665D02*
X131661272Y-105416665D01*
X127361500Y-104140000D02*
X128638165Y-105416665D01*
X139446000Y-106680000D02*
X146803377Y-106680000D01*
X146803377Y-106680000D02*
X148088838Y-105394539D01*
X148088838Y-105394539D02*
X151384000Y-105394539D01*
X155209461Y-109220000D02*
X151384000Y-105394539D01*
X160020000Y-109220000D02*
X155209461Y-109220000D01*
X151384000Y-105394539D02*
X151435526Y-105394539D01*
X139446000Y-106680000D02*
X139021736Y-106680000D01*
X139021736Y-106680000D02*
X134620000Y-106680000D01*
X149860000Y-104140000D02*
X148088412Y-104140000D01*
X148088412Y-104140000D02*
X146716596Y-105511816D01*
X133787495Y-105521527D02*
X133787495Y-105513537D01*
X133222744Y-105513537D02*
X132505882Y-106230399D01*
X146716596Y-105511816D02*
X133797206Y-105511816D01*
X133797206Y-105511816D02*
X133787495Y-105521527D01*
X133787495Y-105513537D02*
X133222744Y-105513537D01*
X132505882Y-106230399D02*
X132505882Y-107142224D01*
X128545061Y-107950000D02*
X127275061Y-106680000D01*
X132505882Y-107142224D02*
X131698106Y-107950000D01*
X131698106Y-107950000D02*
X128545061Y-107950000D01*
X127275061Y-106680000D02*
X114935000Y-106680000D01*
X149860000Y-104140000D02*
X150260000Y-104140000D01*
D21*
X155702000Y-125476000D02*
X155702000Y-119126000D01*
D22*
X130175000Y-121920000D02*
X131800908Y-121920000D01*
X131800908Y-121920000D02*
X133079502Y-120641406D01*
X133079502Y-120641406D02*
X146906004Y-120641406D01*
X146906004Y-120641406D02*
X148184598Y-121920000D01*
X148184598Y-121920000D02*
X148456800Y-121920000D01*
X148456800Y-121920000D02*
X149860000Y-121920000D01*
D21*
X165100000Y-132080000D02*
X152673634Y-132080000D01*
X152673634Y-132080000D02*
X152433245Y-131839611D01*
X152433245Y-131839611D02*
X152133246Y-131539612D01*
X165100000Y-134620000D02*
X161544000Y-134620000D01*
D22*
X130175000Y-104140000D02*
X131773897Y-104140000D01*
X131773897Y-104140000D02*
X133038273Y-102875624D01*
X133038273Y-102875624D02*
X136427718Y-102875624D01*
X136427718Y-102875624D02*
X136894808Y-103342714D01*
X151638000Y-102870000D02*
X137367522Y-102870000D01*
X137367522Y-102870000D02*
X136894808Y-103342714D01*
X151623050Y-102855050D02*
X151638000Y-102870000D01*
X175260000Y-116840000D02*
X176530000Y-118110000D01*
X181102000Y-118110000D02*
X181901211Y-117310789D01*
X176530000Y-118110000D02*
X181102000Y-118110000D01*
X181901211Y-117310789D02*
X181901211Y-114517148D01*
X184816744Y-113030000D02*
X185633289Y-113846545D01*
X181901211Y-114517148D02*
X183388359Y-113030000D01*
X183388359Y-113030000D02*
X184816744Y-113030000D01*
X185633289Y-113846545D02*
X185633289Y-121142570D01*
X185633289Y-121142570D02*
X184855859Y-121920000D01*
X184855859Y-121920000D02*
X184150000Y-121920000D01*
X157480000Y-114300000D02*
X157480000Y-113822248D01*
X138594509Y-110501195D02*
X137313314Y-109220000D01*
X157480000Y-113822248D02*
X155871610Y-112213858D01*
X151431675Y-110501195D02*
X138594509Y-110501195D01*
X155871610Y-112213858D02*
X153144338Y-112213858D01*
X153144338Y-112213858D02*
X151431675Y-110501195D01*
X137313314Y-109220000D02*
X134620000Y-109220000D01*
X114935000Y-109220000D02*
X127253476Y-109220000D01*
X127253476Y-109220000D02*
X128523476Y-110490000D01*
X128523476Y-110490000D02*
X131761947Y-110490000D01*
X131761947Y-110490000D02*
X133031947Y-109220000D01*
X133031947Y-109220000D02*
X133216800Y-109220000D01*
X133216800Y-109220000D02*
X134620000Y-109220000D01*
X129540000Y-111760000D02*
X131774656Y-111760000D01*
X131774656Y-111760000D02*
X133044656Y-110490000D01*
X137300280Y-110490000D02*
X138570280Y-111760000D01*
X133044656Y-110490000D02*
X137300280Y-110490000D01*
X138570280Y-111760000D02*
X148410000Y-111760000D01*
X148410000Y-111760000D02*
X149860000Y-111760000D01*
X160020000Y-114300000D02*
X158699514Y-115620486D01*
X158699514Y-115620486D02*
X156966407Y-115620486D01*
X156966407Y-115620486D02*
X155995316Y-114649395D01*
X155995316Y-114649395D02*
X155995316Y-113161086D01*
X155995316Y-113161086D02*
X155454499Y-112620269D01*
X155454499Y-112620269D02*
X152400522Y-112620269D01*
X152400522Y-112620269D02*
X151540253Y-111760000D01*
X151540253Y-111760000D02*
X149860000Y-111760000D01*
X177800000Y-124450823D02*
X177809177Y-124460000D01*
X177809177Y-124460000D02*
X180340000Y-124460000D01*
X177800000Y-124460000D02*
X177800000Y-124450823D01*
X177800000Y-124450823D02*
X176540636Y-123191459D01*
X176540636Y-123191459D02*
X176540636Y-123182859D01*
X173982859Y-123182859D02*
X172720000Y-121920000D01*
X176540636Y-123182859D02*
X173982859Y-123182859D01*
X175260000Y-119380000D02*
X180340000Y-119380000D01*
X172720000Y-114300000D02*
X173990000Y-115570000D01*
X173990000Y-115570000D02*
X176576934Y-115570000D01*
X176576934Y-115570000D02*
X177846934Y-116840000D01*
X177846934Y-116840000D02*
X180340000Y-116840000D01*
X175260000Y-114300000D02*
X180340000Y-114300000D01*
X171449935Y-138430065D02*
X154450056Y-138430065D01*
X172720000Y-137160000D02*
X171449935Y-138430065D01*
X153427277Y-137641241D02*
X153003013Y-137641241D01*
X154450056Y-138430065D02*
X153661232Y-137641241D01*
X153661232Y-137641241D02*
X153427277Y-137641241D01*
X130175000Y-127000000D02*
X131826000Y-127000000D01*
X131826000Y-127000000D02*
X133097201Y-125728799D01*
X133097201Y-125728799D02*
X152132308Y-125728799D01*
X152132308Y-125728799D02*
X152215867Y-125645240D01*
X152215867Y-125645240D02*
X152640131Y-125645240D01*
X180340000Y-111760000D02*
X177800000Y-111760000D01*
X176276000Y-110236000D02*
X177800000Y-111760000D01*
X174752000Y-110236000D02*
X176276000Y-110236000D01*
X172212000Y-110490000D02*
X172059096Y-110490000D01*
X172059096Y-110490000D02*
X170789096Y-109220000D01*
X170789096Y-109220000D02*
X170180000Y-109220000D01*
X174890403Y-109199389D02*
X180319389Y-109199389D01*
X180319389Y-109199389D02*
X180340000Y-109220000D01*
X174911014Y-109220000D02*
X174890403Y-109199389D01*
X174848153Y-106734932D02*
X180285068Y-106734932D01*
X180285068Y-106734932D02*
X180340000Y-106680000D01*
X171945350Y-107509475D02*
X172369614Y-107509475D01*
X167640000Y-109220000D02*
X169350525Y-107509475D01*
X169350525Y-107509475D02*
X171945350Y-107509475D01*
X174903085Y-106680000D02*
X174848153Y-106734932D01*
D24*
G36*
X171588854Y-112514380D02*
X171963647Y-112889827D01*
X172301446Y-113030094D01*
X171965620Y-113168854D01*
X171590173Y-113543647D01*
X171386732Y-114033587D01*
X171386269Y-114564086D01*
X171588854Y-115054380D01*
X171963647Y-115429827D01*
X172285118Y-115563314D01*
X172027071Y-115670200D01*
X171965417Y-115905812D01*
X172593000Y-116533395D01*
X172593000Y-117146605D01*
X171965417Y-117774188D01*
X172027071Y-118009800D01*
X172095998Y-118034060D01*
X172021500Y-118034060D01*
X171786183Y-118078338D01*
X171570059Y-118217410D01*
X171425069Y-118429610D01*
X171374060Y-118681500D01*
X171374060Y-120078500D01*
X171418338Y-120313817D01*
X171557410Y-120529941D01*
X171769610Y-120674931D01*
X172021500Y-120725940D01*
X172117884Y-120725940D01*
X171965620Y-120788854D01*
X171590173Y-121163647D01*
X171386732Y-121653587D01*
X171386269Y-122184086D01*
X171588854Y-122674380D01*
X171963647Y-123049827D01*
X172301446Y-123190094D01*
X171965620Y-123328854D01*
X171590173Y-123703647D01*
X171449906Y-124041446D01*
X171311146Y-123705620D01*
X170936353Y-123330173D01*
X170446413Y-123126732D01*
X169915914Y-123126269D01*
X169425620Y-123328854D01*
X169050173Y-123703647D01*
X168909906Y-124041446D01*
X168771146Y-123705620D01*
X168396353Y-123330173D01*
X167906413Y-123126732D01*
X167375914Y-123126269D01*
X166885620Y-123328854D01*
X166510173Y-123703647D01*
X166369906Y-124041446D01*
X166231146Y-123705620D01*
X165856353Y-123330173D01*
X165366413Y-123126732D01*
X164835914Y-123126269D01*
X164345620Y-123328854D01*
X163970173Y-123703647D01*
X163829906Y-124041446D01*
X163691146Y-123705620D01*
X163316353Y-123330173D01*
X162826413Y-123126732D01*
X162295914Y-123126269D01*
X162276147Y-123134437D01*
X162076987Y-122935277D01*
X162076987Y-118879364D01*
X162020917Y-118597479D01*
X161861242Y-118358509D01*
X161091878Y-117589145D01*
X161058978Y-117567162D01*
X161189800Y-117532929D01*
X161365927Y-117032520D01*
X161345009Y-116647480D01*
X171374073Y-116647480D01*
X171402852Y-117177199D01*
X171550200Y-117532929D01*
X171785812Y-117594583D01*
X172540395Y-116840000D01*
X171785812Y-116085417D01*
X171550200Y-116147071D01*
X171374073Y-116647480D01*
X161345009Y-116647480D01*
X161337148Y-116502801D01*
X161189800Y-116147071D01*
X161096567Y-116122674D01*
X161144187Y-116090855D01*
X161803929Y-115431113D01*
X161963604Y-115192143D01*
X162019674Y-114910258D01*
X162019674Y-112979529D01*
X162293587Y-113093268D01*
X162824086Y-113093731D01*
X163314380Y-112891146D01*
X163689827Y-112516353D01*
X163830094Y-112178554D01*
X163968854Y-112514380D01*
X164343647Y-112889827D01*
X164833587Y-113093268D01*
X165364086Y-113093731D01*
X165854380Y-112891146D01*
X166229827Y-112516353D01*
X166370094Y-112178554D01*
X166508854Y-112514380D01*
X166883647Y-112889827D01*
X167373587Y-113093268D01*
X167904086Y-113093731D01*
X168394380Y-112891146D01*
X168769827Y-112516353D01*
X168910094Y-112178554D01*
X169048854Y-112514380D01*
X169423647Y-112889827D01*
X169913587Y-113093268D01*
X170444086Y-113093731D01*
X170934380Y-112891146D01*
X171309827Y-112516353D01*
X171450094Y-112178554D01*
X171588854Y-112514380D01*
X171588854Y-112514380D01*
G37*
X171588854Y-112514380D02*
X171963647Y-112889827D01*
X172301446Y-113030094D01*
X171965620Y-113168854D01*
X171590173Y-113543647D01*
X171386732Y-114033587D01*
X171386269Y-114564086D01*
X171588854Y-115054380D01*
X171963647Y-115429827D01*
X172285118Y-115563314D01*
X172027071Y-115670200D01*
X171965417Y-115905812D01*
X172593000Y-116533395D01*
X172593000Y-117146605D01*
X171965417Y-117774188D01*
X172027071Y-118009800D01*
X172095998Y-118034060D01*
X172021500Y-118034060D01*
X171786183Y-118078338D01*
X171570059Y-118217410D01*
X171425069Y-118429610D01*
X171374060Y-118681500D01*
X171374060Y-120078500D01*
X171418338Y-120313817D01*
X171557410Y-120529941D01*
X171769610Y-120674931D01*
X172021500Y-120725940D01*
X172117884Y-120725940D01*
X171965620Y-120788854D01*
X171590173Y-121163647D01*
X171386732Y-121653587D01*
X171386269Y-122184086D01*
X171588854Y-122674380D01*
X171963647Y-123049827D01*
X172301446Y-123190094D01*
X171965620Y-123328854D01*
X171590173Y-123703647D01*
X171449906Y-124041446D01*
X171311146Y-123705620D01*
X170936353Y-123330173D01*
X170446413Y-123126732D01*
X169915914Y-123126269D01*
X169425620Y-123328854D01*
X169050173Y-123703647D01*
X168909906Y-124041446D01*
X168771146Y-123705620D01*
X168396353Y-123330173D01*
X167906413Y-123126732D01*
X167375914Y-123126269D01*
X166885620Y-123328854D01*
X166510173Y-123703647D01*
X166369906Y-124041446D01*
X166231146Y-123705620D01*
X165856353Y-123330173D01*
X165366413Y-123126732D01*
X164835914Y-123126269D01*
X164345620Y-123328854D01*
X163970173Y-123703647D01*
X163829906Y-124041446D01*
X163691146Y-123705620D01*
X163316353Y-123330173D01*
X162826413Y-123126732D01*
X162295914Y-123126269D01*
X162276147Y-123134437D01*
X162076987Y-122935277D01*
X162076987Y-118879364D01*
X162020917Y-118597479D01*
X161861242Y-118358509D01*
X161091878Y-117589145D01*
X161058978Y-117567162D01*
X161189800Y-117532929D01*
X161365927Y-117032520D01*
X161345009Y-116647480D01*
X171374073Y-116647480D01*
X171402852Y-117177199D01*
X171550200Y-117532929D01*
X171785812Y-117594583D01*
X172540395Y-116840000D01*
X171785812Y-116085417D01*
X171550200Y-116147071D01*
X171374073Y-116647480D01*
X161345009Y-116647480D01*
X161337148Y-116502801D01*
X161189800Y-116147071D01*
X161096567Y-116122674D01*
X161144187Y-116090855D01*
X161803929Y-115431113D01*
X161963604Y-115192143D01*
X162019674Y-114910258D01*
X162019674Y-112979529D01*
X162293587Y-113093268D01*
X162824086Y-113093731D01*
X163314380Y-112891146D01*
X163689827Y-112516353D01*
X163830094Y-112178554D01*
X163968854Y-112514380D01*
X164343647Y-112889827D01*
X164833587Y-113093268D01*
X165364086Y-113093731D01*
X165854380Y-112891146D01*
X166229827Y-112516353D01*
X166370094Y-112178554D01*
X166508854Y-112514380D01*
X166883647Y-112889827D01*
X167373587Y-113093268D01*
X167904086Y-113093731D01*
X168394380Y-112891146D01*
X168769827Y-112516353D01*
X168910094Y-112178554D01*
X169048854Y-112514380D01*
X169423647Y-112889827D01*
X169913587Y-113093268D01*
X170444086Y-113093731D01*
X170934380Y-112891146D01*
X171309827Y-112516353D01*
X171450094Y-112178554D01*
X171588854Y-112514380D01*
M02*
