G04 #@! TF.FileFunction,Copper,L2,Bot*
%FSLAX46Y46*%
G04 Gerber Fmt 4.6, Leading zero omitted, Abs format (unit mm)*
G04 Created by KiCad (PCBNEW 4.0.5+dfsg1-4) date Sat Apr 29 18:46:39 2017*
%MOMM*%
%LPD*%
G01*
G04 APERTURE LIST*
%ADD10C,0.100000*%
%ADD11C,0.300000*%
%ADD12R,2.400000X1.600000*%
%ADD13O,2.400000X1.600000*%
%ADD14R,1.397000X1.397000*%
%ADD15C,1.397000*%
%ADD16R,1.600000X1.600000*%
%ADD17O,1.600000X1.600000*%
%ADD18R,1.700000X1.700000*%
%ADD19O,1.700000X1.700000*%
%ADD20R,1.500000X1.250000*%
%ADD21R,1.250000X1.500000*%
%ADD22R,1.270000X0.970000*%
%ADD23C,0.600000*%
%ADD24C,0.508000*%
%ADD25C,0.250000*%
%ADD26C,0.203200*%
%ADD27C,0.304800*%
%ADD28C,0.254000*%
G04 APERTURE END LIST*
D10*
D11*
X119423571Y-115336429D02*
X117923571Y-115336429D01*
X118995000Y-115836429D01*
X117923571Y-116336429D01*
X119423571Y-116336429D01*
X118995000Y-116979286D02*
X118995000Y-117693572D01*
X119423571Y-116836429D02*
X117923571Y-117336429D01*
X119423571Y-117836429D01*
X117923571Y-118193572D02*
X119423571Y-119193572D01*
X117923571Y-119193572D02*
X119423571Y-118193572D01*
X119423571Y-121765000D02*
X118709286Y-121265000D01*
X119423571Y-120907857D02*
X117923571Y-120907857D01*
X117923571Y-121479285D01*
X117995000Y-121622143D01*
X118066429Y-121693571D01*
X118209286Y-121765000D01*
X118423571Y-121765000D01*
X118566429Y-121693571D01*
X118637857Y-121622143D01*
X118709286Y-121479285D01*
X118709286Y-120907857D01*
X118995000Y-122336428D02*
X118995000Y-123050714D01*
X119423571Y-122193571D02*
X117923571Y-122693571D01*
X119423571Y-123193571D01*
X119423571Y-123693571D02*
X117923571Y-123693571D01*
X118995000Y-124193571D01*
X117923571Y-124693571D01*
X119423571Y-124693571D01*
D12*
X114935000Y-101600000D03*
D13*
X130175000Y-139700000D03*
X114935000Y-104140000D03*
X130175000Y-137160000D03*
X114935000Y-106680000D03*
X130175000Y-134620000D03*
X114935000Y-109220000D03*
X130175000Y-132080000D03*
X114935000Y-111760000D03*
X130175000Y-129540000D03*
X114935000Y-114300000D03*
X130175000Y-127000000D03*
X114935000Y-116840000D03*
X130175000Y-124460000D03*
X114935000Y-119380000D03*
X130175000Y-121920000D03*
X114935000Y-121920000D03*
X130175000Y-119380000D03*
X114935000Y-124460000D03*
X130175000Y-116840000D03*
X114935000Y-127000000D03*
X130175000Y-114300000D03*
X114935000Y-129540000D03*
X130175000Y-111760000D03*
X114935000Y-132080000D03*
X130175000Y-109220000D03*
X114935000Y-134620000D03*
X130175000Y-106680000D03*
X114935000Y-137160000D03*
X130175000Y-104140000D03*
X114935000Y-139700000D03*
X130175000Y-101600000D03*
D14*
X172720000Y-119380000D03*
D15*
X175260000Y-116840000D03*
X172720000Y-116840000D03*
X175260000Y-114300000D03*
X172720000Y-114300000D03*
X175260000Y-111760000D03*
X172720000Y-109220000D03*
X172720000Y-111760000D03*
X170180000Y-109220000D03*
X170180000Y-111760000D03*
X167640000Y-109220000D03*
X167640000Y-111760000D03*
X165100000Y-109220000D03*
X165100000Y-111760000D03*
X162560000Y-109220000D03*
X162560000Y-111760000D03*
X160020000Y-109220000D03*
X157480000Y-111760000D03*
X160020000Y-111760000D03*
X157480000Y-114300000D03*
X160020000Y-114300000D03*
X157480000Y-116840000D03*
X160020000Y-116840000D03*
X157480000Y-119380000D03*
X160020000Y-119380000D03*
X157480000Y-121920000D03*
X160020000Y-121920000D03*
X157480000Y-124460000D03*
X160020000Y-127000000D03*
X160020000Y-124460000D03*
X162560000Y-127000000D03*
X162560000Y-124460000D03*
X165100000Y-127000000D03*
X165100000Y-124460000D03*
X167640000Y-127000000D03*
X167640000Y-124460000D03*
X170180000Y-127000000D03*
X170180000Y-124460000D03*
X172720000Y-127000000D03*
X175260000Y-124460000D03*
X172720000Y-124460000D03*
X175260000Y-121920000D03*
X172720000Y-121920000D03*
X175260000Y-119380000D03*
D16*
X165100000Y-132080000D03*
D17*
X172720000Y-139700000D03*
X165100000Y-134620000D03*
X172720000Y-137160000D03*
X165100000Y-137160000D03*
X172720000Y-134620000D03*
X165100000Y-139700000D03*
X172720000Y-132080000D03*
D18*
X184150000Y-106680000D03*
D19*
X184150000Y-109220000D03*
X184150000Y-111760000D03*
X184150000Y-114300000D03*
X184150000Y-116840000D03*
X184150000Y-119380000D03*
X184150000Y-121920000D03*
X184150000Y-124460000D03*
X184150000Y-127000000D03*
X184150000Y-129540000D03*
X184150000Y-132080000D03*
X184150000Y-134620000D03*
X184150000Y-137160000D03*
X184150000Y-139700000D03*
D12*
X134620000Y-101600000D03*
D13*
X149860000Y-139700000D03*
X134620000Y-104140000D03*
X149860000Y-137160000D03*
X134620000Y-106680000D03*
X149860000Y-134620000D03*
X134620000Y-109220000D03*
X149860000Y-132080000D03*
X134620000Y-111760000D03*
X149860000Y-129540000D03*
X134620000Y-114300000D03*
X149860000Y-127000000D03*
X134620000Y-116840000D03*
X149860000Y-124460000D03*
X134620000Y-119380000D03*
X149860000Y-121920000D03*
X134620000Y-121920000D03*
X149860000Y-119380000D03*
X134620000Y-124460000D03*
X149860000Y-116840000D03*
X134620000Y-127000000D03*
X149860000Y-114300000D03*
X134620000Y-129540000D03*
X149860000Y-111760000D03*
X134620000Y-132080000D03*
X149860000Y-109220000D03*
X134620000Y-134620000D03*
X149860000Y-106680000D03*
X134620000Y-137160000D03*
X149860000Y-104140000D03*
X134620000Y-139700000D03*
X149860000Y-101600000D03*
D18*
X157480000Y-104140000D03*
D19*
X157480000Y-101600000D03*
X160020000Y-104140000D03*
X160020000Y-101600000D03*
X162560000Y-104140000D03*
X162560000Y-101600000D03*
X165100000Y-104140000D03*
X165100000Y-101600000D03*
X167640000Y-104140000D03*
X167640000Y-101600000D03*
D18*
X161544000Y-134620000D03*
D19*
X161544000Y-137160000D03*
D20*
X147300000Y-101600000D03*
X144800000Y-101600000D03*
X127488000Y-101600000D03*
X124988000Y-101600000D03*
X165120000Y-118110000D03*
X167620000Y-118110000D03*
D21*
X170434000Y-132100000D03*
X170434000Y-134600000D03*
D18*
X111760000Y-106680000D03*
D19*
X111760000Y-109220000D03*
X111760000Y-111760000D03*
X111760000Y-114300000D03*
X111760000Y-116840000D03*
X111760000Y-119380000D03*
X111760000Y-121920000D03*
X111760000Y-124460000D03*
X111760000Y-127000000D03*
X111760000Y-129540000D03*
X111760000Y-132080000D03*
X111760000Y-134620000D03*
X111760000Y-137160000D03*
X111760000Y-139700000D03*
D22*
X138176000Y-103632000D03*
X138176000Y-104902000D03*
X138176000Y-106172000D03*
X127254000Y-104902000D03*
X127254000Y-106172000D03*
X127254000Y-107442000D03*
D18*
X180340000Y-124460000D03*
D19*
X180340000Y-121920000D03*
X180340000Y-119380000D03*
X180340000Y-116840000D03*
X180340000Y-114300000D03*
X180340000Y-111760000D03*
X180340000Y-109220000D03*
X180340000Y-106680000D03*
D23*
X165100000Y-117094000D03*
X152640131Y-123994951D03*
X128169202Y-111725551D03*
X136728527Y-121476774D03*
X152640131Y-127152277D03*
X152932666Y-130668601D03*
X151732899Y-133352960D03*
X156052879Y-126659524D03*
X151931747Y-135885206D03*
X155443220Y-127182462D03*
X156061241Y-128027910D03*
X151872205Y-138270002D03*
X171450640Y-111188452D03*
X154488786Y-113339554D03*
X137039109Y-112319782D03*
X136121445Y-107948985D03*
X139637297Y-108781943D03*
X140694433Y-104845345D03*
X139446000Y-106680000D03*
X155702000Y-119126000D03*
X155702000Y-125476000D03*
X152133246Y-131539612D03*
X136894808Y-103342714D03*
X151638000Y-102870000D03*
X153003013Y-137641241D03*
X152640131Y-125645240D03*
X174752000Y-110236000D03*
X174890403Y-109199389D03*
X172212000Y-110490000D03*
X172369614Y-107509475D03*
X174848153Y-106734932D03*
D24*
X167640000Y-127000000D02*
X167641428Y-127001428D01*
X167641428Y-127001428D02*
X167641428Y-129307428D01*
X167641428Y-129307428D02*
X170434000Y-132100000D01*
X127508000Y-101600000D02*
X128181849Y-102273849D01*
X128181849Y-102273849D02*
X128181849Y-103974151D01*
X127488000Y-101600000D02*
X127508000Y-101600000D01*
X127254000Y-104902000D02*
X128181849Y-103974151D01*
X127508000Y-101620000D02*
X127488000Y-101600000D01*
X167640000Y-127000000D02*
X167640000Y-126468346D01*
X167640000Y-126468346D02*
X166372610Y-125200956D01*
X165120000Y-118849368D02*
X165120000Y-118110000D01*
X166372610Y-125200956D02*
X166372610Y-120101978D01*
X166372610Y-120101978D02*
X165120000Y-118849368D01*
X172720000Y-132080000D02*
X170180000Y-132080000D01*
X165120000Y-118110000D02*
X165120000Y-117114000D01*
X165120000Y-117114000D02*
X165100000Y-117094000D01*
X172720000Y-132080000D02*
X170454000Y-132080000D01*
X170454000Y-132080000D02*
X170434000Y-132100000D01*
X130175000Y-101600000D02*
X127488000Y-101600000D01*
X165100000Y-118130000D02*
X165120000Y-118110000D01*
D25*
X167640000Y-127000000D02*
X167640000Y-126541368D01*
D26*
X153064395Y-123994951D02*
X152640131Y-123994951D01*
X158752925Y-120647075D02*
X156693882Y-120647075D01*
X160020000Y-119380000D02*
X158752925Y-120647075D01*
X156693882Y-120647075D02*
X153346006Y-123994951D01*
X153346006Y-123994951D02*
X153064395Y-123994951D01*
X136728527Y-121476774D02*
X136728527Y-113868527D01*
X136728527Y-113868527D02*
X135880231Y-113020231D01*
X135880231Y-113020231D02*
X129081107Y-113020231D01*
X129081107Y-113020231D02*
X128169202Y-112108326D01*
X128169202Y-112108326D02*
X128169202Y-111725551D01*
X160020000Y-121920000D02*
X158765306Y-123174694D01*
X158765306Y-123174694D02*
X156193450Y-123174694D01*
X156193450Y-123174694D02*
X152640131Y-126728013D01*
X152640131Y-126728013D02*
X152640131Y-127152277D01*
X155702000Y-124460000D02*
X153244933Y-126917067D01*
X157480000Y-124460000D02*
X155702000Y-124460000D01*
X152932666Y-130244337D02*
X152932666Y-130668601D01*
X153244933Y-126917067D02*
X153244933Y-127442583D01*
X153244933Y-127442583D02*
X152932666Y-127754850D01*
X152932666Y-127754850D02*
X152932666Y-130244337D01*
X152032898Y-133052961D02*
X151732899Y-133352960D01*
X153616551Y-131469308D02*
X152032898Y-133052961D01*
X155752880Y-126359525D02*
X154902742Y-126359525D01*
X156052879Y-126659524D02*
X155752880Y-126359525D01*
X153616551Y-127645716D02*
X153616551Y-131469308D01*
X154902742Y-126359525D02*
X153616551Y-127645716D01*
X154135945Y-131985484D02*
X152231746Y-133889683D01*
X152231746Y-135585207D02*
X151931747Y-135885206D01*
X155443220Y-127182462D02*
X154135945Y-128489737D01*
X154135945Y-128489737D02*
X154135945Y-131985484D01*
X152231746Y-133889683D02*
X152231746Y-135585207D01*
X154542356Y-134332534D02*
X154542356Y-129971059D01*
X151872205Y-138270002D02*
X151872205Y-137002685D01*
X156061241Y-128452174D02*
X156061241Y-128027910D01*
X151872205Y-137002685D02*
X154542356Y-134332534D01*
X154542356Y-129971059D02*
X156061241Y-128452174D01*
X170180000Y-124460000D02*
X170732565Y-124460000D01*
X176013080Y-123190000D02*
X176489264Y-122713816D01*
X171450640Y-115001294D02*
X171450640Y-111612716D01*
X170732565Y-124460000D02*
X172002565Y-123190000D01*
X176489264Y-122713816D02*
X176489264Y-116074674D01*
X172002565Y-123190000D02*
X176013080Y-123190000D01*
X176489264Y-116074674D02*
X175979203Y-115564613D01*
X171450640Y-111612716D02*
X171450640Y-111188452D01*
X175979203Y-115564613D02*
X172013959Y-115564613D01*
X172013959Y-115564613D02*
X171450640Y-115001294D01*
X140086500Y-107477408D02*
X137632592Y-107477408D01*
X137632592Y-107477408D02*
X137414000Y-107696000D01*
X137414000Y-109982000D02*
X137414000Y-107696000D01*
X137039109Y-110356891D02*
X137414000Y-109982000D01*
X137039109Y-110524799D02*
X137039109Y-110356891D01*
X135020000Y-101600000D02*
X134620000Y-101600000D01*
X139379156Y-102227355D02*
X135647355Y-102227355D01*
X140086500Y-102934699D02*
X139379156Y-102227355D01*
X137039109Y-112319782D02*
X137039109Y-110524799D01*
X140086500Y-107477408D02*
X140086500Y-102934699D01*
X135647355Y-102227355D02*
X135020000Y-101600000D01*
X165100000Y-111760000D02*
X165100000Y-111861668D01*
X165100000Y-111861668D02*
X163410882Y-113550786D01*
X163410882Y-113550786D02*
X161428893Y-113550786D01*
X161428893Y-113550786D02*
X160917662Y-113039555D01*
X160917662Y-113039555D02*
X154788785Y-113039555D01*
X154788785Y-113039555D02*
X154488786Y-113339554D01*
X128092200Y-107442000D02*
X128599185Y-107948985D01*
X127254000Y-107442000D02*
X128092200Y-107442000D01*
X128599185Y-107948985D02*
X135697181Y-107948985D01*
X135697181Y-107948985D02*
X136121445Y-107948985D01*
D25*
X150676471Y-119380000D02*
X149860000Y-119380000D01*
D26*
X184150000Y-129540000D02*
X183364411Y-130325589D01*
X175260000Y-126420026D02*
X175260000Y-124460000D01*
X183364411Y-130325589D02*
X179165563Y-130325589D01*
X179165563Y-130325589D02*
X175260000Y-126420026D01*
X180345223Y-132080000D02*
X182885223Y-132080000D01*
X173418499Y-125158499D02*
X172720000Y-124460000D01*
X184150000Y-132080000D02*
X182885223Y-132080000D01*
X173423722Y-125158499D02*
X173418499Y-125158499D01*
X180345223Y-132080000D02*
X173423722Y-125158499D01*
X182748320Y-133218320D02*
X182748320Y-132588000D01*
X182748320Y-132588000D02*
X182748320Y-132517847D01*
X172720000Y-127000000D02*
X174690473Y-127000000D01*
X174690473Y-127000000D02*
X180208320Y-132517847D01*
X180208320Y-132517847D02*
X182678167Y-132517847D01*
X182678167Y-132517847D02*
X182748320Y-132588000D01*
X184150000Y-134620000D02*
X182748320Y-133218320D01*
X184150000Y-137160000D02*
X182328527Y-135338527D01*
X171433555Y-128253555D02*
X170180000Y-127000000D01*
X182328527Y-135338527D02*
X182325287Y-135338527D01*
X182325287Y-135338527D02*
X175240315Y-128253555D01*
X175240315Y-128253555D02*
X171433555Y-128253555D01*
X184150000Y-139700000D02*
X182511713Y-138061713D01*
X168909761Y-125729761D02*
X168338499Y-125158499D01*
X168338499Y-125158499D02*
X167640000Y-124460000D01*
X182511713Y-138061713D02*
X182511713Y-136177818D01*
X182511713Y-136177818D02*
X175161054Y-128827159D01*
X175161054Y-128827159D02*
X170070682Y-128827159D01*
X170070682Y-128827159D02*
X168909761Y-127666238D01*
X168909761Y-127666238D02*
X168909761Y-125729761D01*
X184150000Y-139700000D02*
X183704259Y-139700000D01*
X139937296Y-108481944D02*
X139637297Y-108781943D01*
X140694433Y-104845345D02*
X140694433Y-107724807D01*
X140694433Y-107724807D02*
X139937296Y-108481944D01*
X139446000Y-106680000D02*
X138684000Y-106680000D01*
X138684000Y-106680000D02*
X138176000Y-106172000D01*
X134220000Y-106680000D02*
X134620000Y-106680000D01*
X149860000Y-104140000D02*
X148270955Y-104140000D01*
X163828541Y-111096200D02*
X164441460Y-110483281D01*
X148270955Y-104140000D02*
X148082439Y-104328516D01*
X148082439Y-104328516D02*
X148082439Y-109980730D01*
X148082439Y-109980730D02*
X148600523Y-110498814D01*
X148600523Y-110498814D02*
X160617681Y-110498814D01*
X160617681Y-110498814D02*
X161290000Y-111171133D01*
X161290000Y-111171133D02*
X161290000Y-112338763D01*
X163189206Y-113006103D02*
X163828541Y-112366768D01*
X166363281Y-110483281D02*
X167640000Y-111760000D01*
X161290000Y-112338763D02*
X161957340Y-113006103D01*
X161957340Y-113006103D02*
X163189206Y-113006103D01*
X163828541Y-112366768D02*
X163828541Y-111096200D01*
X164441460Y-110483281D02*
X166363281Y-110483281D01*
D24*
X170180000Y-111760000D02*
X170180000Y-111182665D01*
X169152461Y-104402789D02*
X169152461Y-102627017D01*
X170180000Y-111182665D02*
X171450000Y-109912665D01*
X171450000Y-109912665D02*
X171450000Y-106700328D01*
X171450000Y-106700328D02*
X169152461Y-104402789D01*
X169152461Y-102627017D02*
X168125444Y-101600000D01*
X168125444Y-101600000D02*
X167640000Y-101600000D01*
X158296254Y-126183746D02*
X158296254Y-127710503D01*
X158296254Y-127710503D02*
X160883102Y-130297351D01*
X167316046Y-133976395D02*
X167939651Y-134600000D01*
X160883102Y-130297351D02*
X166078995Y-130297351D01*
X166078995Y-130297351D02*
X167316046Y-131534402D01*
X167316046Y-131534402D02*
X167316046Y-133976395D01*
X158296254Y-126183746D02*
X157888507Y-125775999D01*
X156001999Y-125775999D02*
X155702000Y-125476000D01*
X157888507Y-125775999D02*
X156001999Y-125775999D01*
X144800000Y-101600000D02*
X144800000Y-109434000D01*
X144800000Y-109434000D02*
X142240000Y-111994000D01*
X142240000Y-111994000D02*
X142240000Y-139700000D01*
X162560000Y-115570000D02*
X158770522Y-115570000D01*
X157500522Y-116840000D02*
X157480000Y-116840000D01*
X158770522Y-115570000D02*
X157500522Y-116840000D01*
X155702000Y-119126000D02*
X155702000Y-118618000D01*
X155702000Y-118618000D02*
X157480000Y-116840000D01*
X167640000Y-101600000D02*
X167640000Y-100397919D01*
X167640000Y-100397919D02*
X167193394Y-99951313D01*
X167193394Y-99951313D02*
X157858687Y-99951313D01*
X157858687Y-99951313D02*
X157480000Y-100330000D01*
X157480000Y-100330000D02*
X157480000Y-101600000D01*
X158296254Y-126183746D02*
X160020000Y-124460000D01*
X165100000Y-139700000D02*
X167342767Y-139700000D01*
X167342767Y-139700000D02*
X167434317Y-139608450D01*
X167434317Y-139608450D02*
X167434317Y-135105334D01*
X167434317Y-135105334D02*
X167939651Y-134600000D01*
X170434000Y-134600000D02*
X167939651Y-134600000D01*
X167620000Y-115570000D02*
X162560000Y-115570000D01*
X160020000Y-124460000D02*
X162560000Y-121920000D01*
X162560000Y-121920000D02*
X162560000Y-115570000D01*
X167620000Y-115570000D02*
X167620000Y-114320000D01*
X167620000Y-118110000D02*
X167620000Y-115570000D01*
X170180000Y-114300000D02*
X170180000Y-111760000D01*
X167640000Y-114300000D02*
X170180000Y-114300000D01*
X167620000Y-114320000D02*
X167640000Y-114300000D01*
X167640000Y-120650000D02*
X167620000Y-120630000D01*
X167620000Y-120630000D02*
X167620000Y-118110000D01*
X173990000Y-120650000D02*
X167640000Y-120650000D01*
X175260000Y-121920000D02*
X173990000Y-120650000D01*
X172720000Y-134620000D02*
X170454000Y-134620000D01*
X122682000Y-139700000D02*
X125938098Y-139700000D01*
X125938098Y-139700000D02*
X127590179Y-141352081D01*
X127590179Y-141352081D02*
X132567919Y-141352081D01*
X132567919Y-141352081D02*
X134220000Y-139700000D01*
X134220000Y-139700000D02*
X134620000Y-139700000D01*
X142240000Y-139700000D02*
X143608202Y-139700000D01*
X143608202Y-139700000D02*
X145259025Y-141350823D01*
X145259025Y-141350823D02*
X160264646Y-141350823D01*
X160264646Y-141350823D02*
X161544000Y-140071469D01*
X161544000Y-140071469D02*
X161544000Y-137160000D01*
X124988000Y-101600000D02*
X121940000Y-101600000D01*
X121940000Y-101600000D02*
X121940000Y-139700000D01*
X121940000Y-139700000D02*
X122682000Y-139700000D01*
X114935000Y-139700000D02*
X111760000Y-139700000D01*
X122682000Y-139700000D02*
X114935000Y-139700000D01*
X134620000Y-139700000D02*
X142240000Y-139700000D01*
X161544000Y-137160000D02*
X161544000Y-139700000D01*
X161544000Y-139700000D02*
X165100000Y-139700000D01*
X165100000Y-137160000D02*
X165100000Y-139700000D01*
X129032000Y-106680000D02*
X128524000Y-106172000D01*
X128524000Y-106172000D02*
X127254000Y-106172000D01*
X130175000Y-106680000D02*
X129032000Y-106680000D01*
D26*
X149860000Y-121920000D02*
X154635684Y-121920000D01*
X154635684Y-121920000D02*
X157175684Y-119380000D01*
X157175684Y-119380000D02*
X157480000Y-119380000D01*
D24*
X151725675Y-123727161D02*
X151725675Y-131132041D01*
X151725675Y-131132041D02*
X151833247Y-131239613D01*
X151188913Y-123190399D02*
X151725675Y-123727161D01*
X151833247Y-131239613D02*
X152133246Y-131539612D01*
X147297927Y-104162073D02*
X147300000Y-104160000D01*
X147300000Y-104160000D02*
X147300000Y-101600000D01*
X148323533Y-123190399D02*
X148185119Y-123190399D01*
X148185119Y-123190399D02*
X147880119Y-122885399D01*
X147880119Y-122885399D02*
X147880119Y-111045914D01*
X147880119Y-111045914D02*
X147297927Y-110463722D01*
X147297927Y-110463722D02*
X147297927Y-104162073D01*
D27*
X151188913Y-123190399D02*
X148323533Y-123190399D01*
D24*
X149460000Y-101600000D02*
X149860000Y-101600000D01*
X147300000Y-101600000D02*
X149860000Y-101600000D01*
D26*
X162560000Y-111760000D02*
X161286589Y-110486589D01*
X160595432Y-107957726D02*
X159361893Y-107957726D01*
X161286589Y-110486589D02*
X161286589Y-108648883D01*
X159361893Y-107957726D02*
X158750000Y-108569619D01*
X161286589Y-108648883D02*
X160595432Y-107957726D01*
X158750000Y-108569619D02*
X158750000Y-109220000D01*
X151013923Y-109220000D02*
X149860000Y-109220000D01*
X158750000Y-109220000D02*
X158121200Y-109848800D01*
X158121200Y-109848800D02*
X151642723Y-109848800D01*
X151642723Y-109848800D02*
X151013923Y-109220000D01*
X151638000Y-102870000D02*
X151638000Y-108234210D01*
X151638000Y-108234210D02*
X150652210Y-109220000D01*
X150652210Y-109220000D02*
X149860000Y-109220000D01*
X137184094Y-103632000D02*
X136894808Y-103342714D01*
X138176000Y-103632000D02*
X137184094Y-103632000D01*
X149860000Y-109220000D02*
X150479207Y-109839207D01*
D25*
X149860000Y-109220000D02*
X149460000Y-109220000D01*
D26*
X172720000Y-139700000D02*
X174180550Y-138239450D01*
X174180550Y-138239450D02*
X174180550Y-134019249D01*
X174180550Y-134019249D02*
X173511301Y-133350000D01*
X166407756Y-129216433D02*
X166407756Y-126459748D01*
X173511301Y-133350000D02*
X169239873Y-133350000D01*
X165100000Y-125151992D02*
X165100000Y-124460000D01*
X169239873Y-133350000D02*
X169239873Y-132048550D01*
X169239873Y-132048550D02*
X166407756Y-129216433D01*
X166407756Y-126459748D02*
X165100000Y-125151992D01*
X153003013Y-138065505D02*
X153003013Y-137641241D01*
X151127835Y-138408836D02*
X151593802Y-138874803D01*
X148697904Y-138408836D02*
X151127835Y-138408836D01*
X148090719Y-137801651D02*
X148697904Y-138408836D01*
X149460000Y-127000000D02*
X148090719Y-128369281D01*
X149860000Y-127000000D02*
X149460000Y-127000000D01*
X152193715Y-138874803D02*
X153003013Y-138065505D01*
X151593802Y-138874803D02*
X152193715Y-138874803D01*
X148090719Y-128369281D02*
X148090719Y-137801651D01*
X157480000Y-121920000D02*
X156365371Y-121920000D01*
X156365371Y-121920000D02*
X152940130Y-125345241D01*
X152940130Y-125345241D02*
X152640131Y-125645240D01*
X136963453Y-104902000D02*
X138176000Y-104902000D01*
X136726255Y-105139198D02*
X136963453Y-104902000D01*
X132848200Y-110490000D02*
X136059995Y-110490000D01*
X131578200Y-109220000D02*
X132848200Y-110490000D01*
X136059995Y-110490000D02*
X136726255Y-109823740D01*
X136726255Y-109823740D02*
X136726255Y-105139198D01*
X130175000Y-109220000D02*
X131578200Y-109220000D01*
X130175000Y-110223200D02*
X130175000Y-109220000D01*
D25*
X130175000Y-109220000D02*
X130048000Y-109220000D01*
D26*
X173926499Y-111061501D02*
X174752000Y-110236000D01*
X173418499Y-111061501D02*
X173926499Y-111061501D01*
X172720000Y-111760000D02*
X173418499Y-111061501D01*
X173599792Y-110490000D02*
X174590404Y-109499388D01*
X172212000Y-110490000D02*
X173599792Y-110490000D01*
X174590404Y-109499388D02*
X174890403Y-109199389D01*
X172669613Y-107209476D02*
X172369614Y-107509475D01*
X173144157Y-106734932D02*
X172669613Y-107209476D01*
X174848153Y-106734932D02*
X173144157Y-106734932D01*
D28*
G36*
X172593000Y-104775000D02*
X172603006Y-104824410D01*
X172631447Y-104866035D01*
X172673841Y-104893315D01*
X172720000Y-104902000D01*
X185928000Y-104902000D01*
X185928000Y-141478000D01*
X111252000Y-141478000D01*
X111252000Y-141070522D01*
X111403108Y-141141486D01*
X111633000Y-141020819D01*
X111633000Y-139827000D01*
X111887000Y-139827000D01*
X111887000Y-141020819D01*
X112116892Y-141141486D01*
X112641358Y-140895183D01*
X113031645Y-140466924D01*
X113166216Y-140142020D01*
X113430500Y-140624896D01*
X113868517Y-140977166D01*
X114408000Y-141135000D01*
X114808000Y-141135000D01*
X114808000Y-139827000D01*
X115062000Y-139827000D01*
X115062000Y-141135000D01*
X115462000Y-141135000D01*
X116001483Y-140977166D01*
X116439500Y-140624896D01*
X116709367Y-140131819D01*
X116726904Y-140049039D01*
X116604915Y-139827000D01*
X115062000Y-139827000D01*
X114808000Y-139827000D01*
X113265085Y-139827000D01*
X113170760Y-139998686D01*
X113080155Y-139827000D01*
X111887000Y-139827000D01*
X111633000Y-139827000D01*
X111613000Y-139827000D01*
X111613000Y-139573000D01*
X111633000Y-139573000D01*
X111633000Y-139553000D01*
X111887000Y-139553000D01*
X111887000Y-139573000D01*
X113080155Y-139573000D01*
X113170760Y-139401314D01*
X113265085Y-139573000D01*
X114808000Y-139573000D01*
X114808000Y-139553000D01*
X115062000Y-139553000D01*
X115062000Y-139573000D01*
X116604915Y-139573000D01*
X116726904Y-139350961D01*
X116709367Y-139268181D01*
X116439500Y-138775104D01*
X116007293Y-138427507D01*
X116385648Y-138174698D01*
X116696717Y-137709151D01*
X116805950Y-137160000D01*
X116696717Y-136610849D01*
X116385648Y-136145302D01*
X116003562Y-135890000D01*
X116385648Y-135634698D01*
X116696717Y-135169151D01*
X116805950Y-134620000D01*
X116696717Y-134070849D01*
X116385648Y-133605302D01*
X116003562Y-133350000D01*
X116385648Y-133094698D01*
X116696717Y-132629151D01*
X116805950Y-132080000D01*
X116696717Y-131530849D01*
X116385648Y-131065302D01*
X116003562Y-130810000D01*
X116385648Y-130554698D01*
X116696717Y-130089151D01*
X116805950Y-129540000D01*
X116696717Y-128990849D01*
X116385648Y-128525302D01*
X116003562Y-128270000D01*
X116385648Y-128014698D01*
X116696717Y-127549151D01*
X116805950Y-127000000D01*
X116696717Y-126450849D01*
X116385648Y-125985302D01*
X116003562Y-125730000D01*
X116385648Y-125474698D01*
X116696717Y-125009151D01*
X116805950Y-124460000D01*
X116696717Y-123910849D01*
X116385648Y-123445302D01*
X116003562Y-123190000D01*
X116385648Y-122934698D01*
X116696717Y-122469151D01*
X116805950Y-121920000D01*
X116696717Y-121370849D01*
X116385648Y-120905302D01*
X116003562Y-120650000D01*
X116385648Y-120394698D01*
X116696717Y-119929151D01*
X116805950Y-119380000D01*
X116696717Y-118830849D01*
X116385648Y-118365302D01*
X116003562Y-118110000D01*
X116385648Y-117854698D01*
X116696717Y-117389151D01*
X116805950Y-116840000D01*
X116696717Y-116290849D01*
X116385648Y-115825302D01*
X116003562Y-115570000D01*
X116385648Y-115314698D01*
X116696717Y-114849151D01*
X116797140Y-114344286D01*
X116910000Y-114344286D01*
X116910000Y-125685714D01*
X120730000Y-125685714D01*
X120730000Y-114344286D01*
X116910000Y-114344286D01*
X116797140Y-114344286D01*
X116805950Y-114300000D01*
X116696717Y-113750849D01*
X116385648Y-113285302D01*
X116003562Y-113030000D01*
X116385648Y-112774698D01*
X116696717Y-112309151D01*
X116805950Y-111760000D01*
X116696717Y-111210849D01*
X116385648Y-110745302D01*
X116003562Y-110490000D01*
X116385648Y-110234698D01*
X116696717Y-109769151D01*
X116805950Y-109220000D01*
X116696717Y-108670849D01*
X116385648Y-108205302D01*
X116003562Y-107950000D01*
X116385648Y-107694698D01*
X116696717Y-107229151D01*
X116805950Y-106680000D01*
X116696717Y-106130849D01*
X116385648Y-105665302D01*
X116003562Y-105410000D01*
X116385648Y-105154698D01*
X116696717Y-104689151D01*
X116805950Y-104140000D01*
X116696717Y-103590849D01*
X116385648Y-103125302D01*
X116239650Y-103027749D01*
X116370317Y-103003162D01*
X116586441Y-102864090D01*
X116731431Y-102651890D01*
X116782440Y-102400000D01*
X116782440Y-101885750D01*
X123603000Y-101885750D01*
X123603000Y-102351310D01*
X123699673Y-102584699D01*
X123878302Y-102763327D01*
X124111691Y-102860000D01*
X124702250Y-102860000D01*
X124861000Y-102701250D01*
X124861000Y-101727000D01*
X123761750Y-101727000D01*
X123603000Y-101885750D01*
X116782440Y-101885750D01*
X116782440Y-100848690D01*
X123603000Y-100848690D01*
X123603000Y-101314250D01*
X123761750Y-101473000D01*
X124861000Y-101473000D01*
X124861000Y-100498750D01*
X125115000Y-100498750D01*
X125115000Y-101473000D01*
X125135000Y-101473000D01*
X125135000Y-101727000D01*
X125115000Y-101727000D01*
X125115000Y-102701250D01*
X125273750Y-102860000D01*
X125864309Y-102860000D01*
X126097698Y-102763327D01*
X126238936Y-102622090D01*
X126273910Y-102676441D01*
X126486110Y-102821431D01*
X126738000Y-102872440D01*
X127292849Y-102872440D01*
X127292849Y-103605915D01*
X127129204Y-103769560D01*
X126619000Y-103769560D01*
X126383683Y-103813838D01*
X126167559Y-103952910D01*
X126022569Y-104165110D01*
X125971560Y-104417000D01*
X125971560Y-105387000D01*
X126000821Y-105542507D01*
X125971560Y-105687000D01*
X125971560Y-106657000D01*
X126000821Y-106812507D01*
X125971560Y-106957000D01*
X125971560Y-107927000D01*
X126015838Y-108162317D01*
X126154910Y-108378441D01*
X126367110Y-108523431D01*
X126619000Y-108574440D01*
X127889000Y-108574440D01*
X128124317Y-108530162D01*
X128146880Y-108515643D01*
X128317300Y-108629515D01*
X128426401Y-108651216D01*
X128413283Y-108670849D01*
X128304050Y-109220000D01*
X128413283Y-109769151D01*
X128724352Y-110234698D01*
X129106438Y-110490000D01*
X128724352Y-110745302D01*
X128620596Y-110900583D01*
X128356001Y-110790713D01*
X127984035Y-110790389D01*
X127640259Y-110932434D01*
X127377010Y-111195224D01*
X127234364Y-111538752D01*
X127234040Y-111910718D01*
X127376085Y-112254494D01*
X127482975Y-112361571D01*
X127488672Y-112390211D01*
X127648347Y-112629181D01*
X128556170Y-113537004D01*
X128413283Y-113750849D01*
X128304050Y-114300000D01*
X128413283Y-114849151D01*
X128724352Y-115314698D01*
X129106438Y-115570000D01*
X128724352Y-115825302D01*
X128413283Y-116290849D01*
X128304050Y-116840000D01*
X128413283Y-117389151D01*
X128724352Y-117854698D01*
X129106438Y-118110000D01*
X128724352Y-118365302D01*
X128413283Y-118830849D01*
X128304050Y-119380000D01*
X128413283Y-119929151D01*
X128724352Y-120394698D01*
X129106438Y-120650000D01*
X128724352Y-120905302D01*
X128413283Y-121370849D01*
X128304050Y-121920000D01*
X128413283Y-122469151D01*
X128724352Y-122934698D01*
X129106438Y-123190000D01*
X128724352Y-123445302D01*
X128413283Y-123910849D01*
X128304050Y-124460000D01*
X128413283Y-125009151D01*
X128724352Y-125474698D01*
X129106438Y-125730000D01*
X128724352Y-125985302D01*
X128413283Y-126450849D01*
X128304050Y-127000000D01*
X128413283Y-127549151D01*
X128724352Y-128014698D01*
X129106438Y-128270000D01*
X128724352Y-128525302D01*
X128413283Y-128990849D01*
X128304050Y-129540000D01*
X128413283Y-130089151D01*
X128724352Y-130554698D01*
X129106438Y-130810000D01*
X128724352Y-131065302D01*
X128413283Y-131530849D01*
X128304050Y-132080000D01*
X128413283Y-132629151D01*
X128724352Y-133094698D01*
X129106438Y-133350000D01*
X128724352Y-133605302D01*
X128413283Y-134070849D01*
X128304050Y-134620000D01*
X128413283Y-135169151D01*
X128724352Y-135634698D01*
X129106438Y-135890000D01*
X128724352Y-136145302D01*
X128413283Y-136610849D01*
X128304050Y-137160000D01*
X128413283Y-137709151D01*
X128724352Y-138174698D01*
X129106438Y-138430000D01*
X128724352Y-138685302D01*
X128413283Y-139150849D01*
X128304050Y-139700000D01*
X128413283Y-140249151D01*
X128724352Y-140714698D01*
X129189899Y-141025767D01*
X129739050Y-141135000D01*
X130610950Y-141135000D01*
X131160101Y-141025767D01*
X131625648Y-140714698D01*
X131936717Y-140249151D01*
X131976521Y-140049039D01*
X132828096Y-140049039D01*
X132845633Y-140131819D01*
X133115500Y-140624896D01*
X133553517Y-140977166D01*
X134093000Y-141135000D01*
X134493000Y-141135000D01*
X134493000Y-139827000D01*
X134747000Y-139827000D01*
X134747000Y-141135000D01*
X135147000Y-141135000D01*
X135686483Y-140977166D01*
X136124500Y-140624896D01*
X136394367Y-140131819D01*
X136411904Y-140049039D01*
X136289915Y-139827000D01*
X134747000Y-139827000D01*
X134493000Y-139827000D01*
X132950085Y-139827000D01*
X132828096Y-140049039D01*
X131976521Y-140049039D01*
X132045950Y-139700000D01*
X131936717Y-139150849D01*
X131625648Y-138685302D01*
X131243562Y-138430000D01*
X131625648Y-138174698D01*
X131936717Y-137709151D01*
X132045950Y-137160000D01*
X131936717Y-136610849D01*
X131625648Y-136145302D01*
X131243562Y-135890000D01*
X131625648Y-135634698D01*
X131936717Y-135169151D01*
X132045950Y-134620000D01*
X131936717Y-134070849D01*
X131625648Y-133605302D01*
X131243562Y-133350000D01*
X131625648Y-133094698D01*
X131936717Y-132629151D01*
X132045950Y-132080000D01*
X131936717Y-131530849D01*
X131625648Y-131065302D01*
X131243562Y-130810000D01*
X131625648Y-130554698D01*
X131936717Y-130089151D01*
X132045950Y-129540000D01*
X131936717Y-128990849D01*
X131625648Y-128525302D01*
X131243562Y-128270000D01*
X131625648Y-128014698D01*
X131936717Y-127549151D01*
X132045950Y-127000000D01*
X131936717Y-126450849D01*
X131625648Y-125985302D01*
X131243562Y-125730000D01*
X131625648Y-125474698D01*
X131936717Y-125009151D01*
X132045950Y-124460000D01*
X131936717Y-123910849D01*
X131625648Y-123445302D01*
X131243562Y-123190000D01*
X131625648Y-122934698D01*
X131936717Y-122469151D01*
X132045950Y-121920000D01*
X131936717Y-121370849D01*
X131625648Y-120905302D01*
X131243562Y-120650000D01*
X131625648Y-120394698D01*
X131936717Y-119929151D01*
X132045950Y-119380000D01*
X131936717Y-118830849D01*
X131625648Y-118365302D01*
X131243562Y-118110000D01*
X131625648Y-117854698D01*
X131936717Y-117389151D01*
X132045950Y-116840000D01*
X131936717Y-116290849D01*
X131625648Y-115825302D01*
X131243562Y-115570000D01*
X131625648Y-115314698D01*
X131936717Y-114849151D01*
X132045950Y-114300000D01*
X131937907Y-113756831D01*
X132857093Y-113756831D01*
X132749050Y-114300000D01*
X132858283Y-114849151D01*
X133169352Y-115314698D01*
X133551438Y-115570000D01*
X133169352Y-115825302D01*
X132858283Y-116290849D01*
X132749050Y-116840000D01*
X132858283Y-117389151D01*
X133169352Y-117854698D01*
X133551438Y-118110000D01*
X133169352Y-118365302D01*
X132858283Y-118830849D01*
X132749050Y-119380000D01*
X132858283Y-119929151D01*
X133169352Y-120394698D01*
X133551438Y-120650000D01*
X133169352Y-120905302D01*
X132858283Y-121370849D01*
X132749050Y-121920000D01*
X132858283Y-122469151D01*
X133169352Y-122934698D01*
X133551438Y-123190000D01*
X133169352Y-123445302D01*
X132858283Y-123910849D01*
X132749050Y-124460000D01*
X132858283Y-125009151D01*
X133169352Y-125474698D01*
X133551438Y-125730000D01*
X133169352Y-125985302D01*
X132858283Y-126450849D01*
X132749050Y-127000000D01*
X132858283Y-127549151D01*
X133169352Y-128014698D01*
X133551438Y-128270000D01*
X133169352Y-128525302D01*
X132858283Y-128990849D01*
X132749050Y-129540000D01*
X132858283Y-130089151D01*
X133169352Y-130554698D01*
X133551438Y-130810000D01*
X133169352Y-131065302D01*
X132858283Y-131530849D01*
X132749050Y-132080000D01*
X132858283Y-132629151D01*
X133169352Y-133094698D01*
X133551438Y-133350000D01*
X133169352Y-133605302D01*
X132858283Y-134070849D01*
X132749050Y-134620000D01*
X132858283Y-135169151D01*
X133169352Y-135634698D01*
X133551438Y-135890000D01*
X133169352Y-136145302D01*
X132858283Y-136610849D01*
X132749050Y-137160000D01*
X132858283Y-137709151D01*
X133169352Y-138174698D01*
X133547707Y-138427507D01*
X133115500Y-138775104D01*
X132845633Y-139268181D01*
X132828096Y-139350961D01*
X132950085Y-139573000D01*
X134493000Y-139573000D01*
X134493000Y-139553000D01*
X134747000Y-139553000D01*
X134747000Y-139573000D01*
X136289915Y-139573000D01*
X136411904Y-139350961D01*
X136394367Y-139268181D01*
X136124500Y-138775104D01*
X135692293Y-138427507D01*
X136070648Y-138174698D01*
X136381717Y-137709151D01*
X136490950Y-137160000D01*
X136381717Y-136610849D01*
X136070648Y-136145302D01*
X135688562Y-135890000D01*
X136070648Y-135634698D01*
X136381717Y-135169151D01*
X136490950Y-134620000D01*
X136381717Y-134070849D01*
X136070648Y-133605302D01*
X135688562Y-133350000D01*
X136070648Y-133094698D01*
X136381717Y-132629151D01*
X136490950Y-132080000D01*
X136381717Y-131530849D01*
X136070648Y-131065302D01*
X135688562Y-130810000D01*
X136070648Y-130554698D01*
X136381717Y-130089151D01*
X136490950Y-129540000D01*
X136381717Y-128990849D01*
X136070648Y-128525302D01*
X135688562Y-128270000D01*
X136070648Y-128014698D01*
X136381717Y-127549151D01*
X136490950Y-127000000D01*
X136381717Y-126450849D01*
X136070648Y-125985302D01*
X135688562Y-125730000D01*
X136070648Y-125474698D01*
X136381717Y-125009151D01*
X136490950Y-124460000D01*
X136381717Y-123910849D01*
X136070648Y-123445302D01*
X135688562Y-123190000D01*
X136070648Y-122934698D01*
X136381717Y-122469151D01*
X136404497Y-122354628D01*
X136541728Y-122411612D01*
X136913694Y-122411936D01*
X137257470Y-122269891D01*
X137520719Y-122007101D01*
X137663365Y-121663573D01*
X137663689Y-121291607D01*
X137521644Y-120947831D01*
X137465127Y-120891215D01*
X137465127Y-113868527D01*
X137409057Y-113586642D01*
X137249382Y-113347672D01*
X137156595Y-113254885D01*
X137224276Y-113254944D01*
X137568052Y-113112899D01*
X137831301Y-112850109D01*
X137973947Y-112506581D01*
X137974271Y-112134615D01*
X137832226Y-111790839D01*
X137775709Y-111734223D01*
X137775709Y-110662001D01*
X137934855Y-110502855D01*
X138094530Y-110263885D01*
X138150600Y-109982000D01*
X138150600Y-108214008D01*
X138882779Y-108214008D01*
X138845105Y-108251616D01*
X138702459Y-108595144D01*
X138702135Y-108967110D01*
X138844180Y-109310886D01*
X139106970Y-109574135D01*
X139450498Y-109716781D01*
X139822464Y-109717105D01*
X140166240Y-109575060D01*
X140429489Y-109312270D01*
X140572135Y-108968742D01*
X140572205Y-108888745D01*
X141215288Y-108245662D01*
X141374963Y-108006692D01*
X141431033Y-107724807D01*
X141431033Y-105431167D01*
X141486625Y-105375672D01*
X141629271Y-105032144D01*
X141629595Y-104660178D01*
X141487550Y-104316402D01*
X141224760Y-104053153D01*
X140881232Y-103910507D01*
X140823100Y-103910456D01*
X140823100Y-102934699D01*
X140767030Y-102652814D01*
X140607355Y-102413844D01*
X140079261Y-101885750D01*
X143415000Y-101885750D01*
X143415000Y-102351310D01*
X143511673Y-102584699D01*
X143690302Y-102763327D01*
X143923691Y-102860000D01*
X144514250Y-102860000D01*
X144673000Y-102701250D01*
X144673000Y-101727000D01*
X143573750Y-101727000D01*
X143415000Y-101885750D01*
X140079261Y-101885750D01*
X139900011Y-101706500D01*
X139661041Y-101546825D01*
X139379156Y-101490755D01*
X136467440Y-101490755D01*
X136467440Y-100848690D01*
X143415000Y-100848690D01*
X143415000Y-101314250D01*
X143573750Y-101473000D01*
X144673000Y-101473000D01*
X144673000Y-100498750D01*
X144927000Y-100498750D01*
X144927000Y-101473000D01*
X144947000Y-101473000D01*
X144947000Y-101727000D01*
X144927000Y-101727000D01*
X144927000Y-102701250D01*
X145085750Y-102860000D01*
X145676309Y-102860000D01*
X145909698Y-102763327D01*
X146050936Y-102622090D01*
X146085910Y-102676441D01*
X146298110Y-102821431D01*
X146411000Y-102844292D01*
X146411000Y-104151651D01*
X146408927Y-104162073D01*
X146408927Y-110463722D01*
X146476598Y-110803928D01*
X146638114Y-111045654D01*
X146669309Y-111092340D01*
X146991119Y-111414150D01*
X146991119Y-122885399D01*
X147058790Y-123225605D01*
X147178658Y-123405000D01*
X147251501Y-123514017D01*
X147556501Y-123819017D01*
X147844913Y-124011728D01*
X148069337Y-124056369D01*
X147989050Y-124460000D01*
X148098283Y-125009151D01*
X148409352Y-125474698D01*
X148791438Y-125730000D01*
X148409352Y-125985302D01*
X148098283Y-126450849D01*
X147989050Y-127000000D01*
X148060266Y-127358024D01*
X147569864Y-127848426D01*
X147410189Y-128087396D01*
X147354119Y-128369281D01*
X147354119Y-137801651D01*
X147410189Y-138083536D01*
X147569864Y-138322506D01*
X148177049Y-138929691D01*
X148224757Y-138961568D01*
X148098283Y-139150849D01*
X147989050Y-139700000D01*
X148098283Y-140249151D01*
X148409352Y-140714698D01*
X148874899Y-141025767D01*
X149424050Y-141135000D01*
X150295950Y-141135000D01*
X150845101Y-141025767D01*
X151310648Y-140714698D01*
X151621717Y-140249151D01*
X151661521Y-140049039D01*
X163708096Y-140049039D01*
X163868959Y-140437423D01*
X164244866Y-140852389D01*
X164750959Y-141091914D01*
X164973000Y-140970629D01*
X164973000Y-139827000D01*
X165227000Y-139827000D01*
X165227000Y-140970629D01*
X165449041Y-141091914D01*
X165955134Y-140852389D01*
X166331041Y-140437423D01*
X166491904Y-140049039D01*
X166369915Y-139827000D01*
X165227000Y-139827000D01*
X164973000Y-139827000D01*
X163830085Y-139827000D01*
X163708096Y-140049039D01*
X151661521Y-140049039D01*
X151730950Y-139700000D01*
X151713327Y-139611403D01*
X152193715Y-139611403D01*
X152475600Y-139555333D01*
X152714570Y-139395658D01*
X153523868Y-138586360D01*
X153683543Y-138347390D01*
X153699515Y-138267091D01*
X153795205Y-138171568D01*
X153937851Y-137828040D01*
X153938122Y-137516890D01*
X160102524Y-137516890D01*
X160272355Y-137926924D01*
X160662642Y-138355183D01*
X161187108Y-138601486D01*
X161417000Y-138480819D01*
X161417000Y-137287000D01*
X161671000Y-137287000D01*
X161671000Y-138480819D01*
X161900892Y-138601486D01*
X162425358Y-138355183D01*
X162815645Y-137926924D01*
X162985476Y-137516890D01*
X162981333Y-137509039D01*
X163708096Y-137509039D01*
X163868959Y-137897423D01*
X164244866Y-138312389D01*
X164493367Y-138430000D01*
X164244866Y-138547611D01*
X163868959Y-138962577D01*
X163708096Y-139350961D01*
X163830085Y-139573000D01*
X164973000Y-139573000D01*
X164973000Y-137287000D01*
X165227000Y-137287000D01*
X165227000Y-139573000D01*
X166369915Y-139573000D01*
X166491904Y-139350961D01*
X166331041Y-138962577D01*
X165955134Y-138547611D01*
X165706633Y-138430000D01*
X165955134Y-138312389D01*
X166331041Y-137897423D01*
X166491904Y-137509039D01*
X166369915Y-137287000D01*
X165227000Y-137287000D01*
X164973000Y-137287000D01*
X163830085Y-137287000D01*
X163708096Y-137509039D01*
X162981333Y-137509039D01*
X162864155Y-137287000D01*
X161671000Y-137287000D01*
X161417000Y-137287000D01*
X160223845Y-137287000D01*
X160102524Y-137516890D01*
X153938122Y-137516890D01*
X153938175Y-137456074D01*
X153796130Y-137112298D01*
X153533340Y-136849049D01*
X153204216Y-136712384D01*
X155063211Y-134853389D01*
X155134298Y-134747000D01*
X155222886Y-134614419D01*
X155278956Y-134332534D01*
X155278956Y-133770000D01*
X160046560Y-133770000D01*
X160046560Y-135470000D01*
X160090838Y-135705317D01*
X160229910Y-135921441D01*
X160442110Y-136066431D01*
X160550107Y-136088301D01*
X160272355Y-136393076D01*
X160102524Y-136803110D01*
X160223845Y-137033000D01*
X161417000Y-137033000D01*
X161417000Y-137013000D01*
X161671000Y-137013000D01*
X161671000Y-137033000D01*
X162864155Y-137033000D01*
X162985476Y-136803110D01*
X162815645Y-136393076D01*
X162539499Y-136090063D01*
X162629317Y-136073162D01*
X162845441Y-135934090D01*
X162990431Y-135721890D01*
X163041440Y-135470000D01*
X163041440Y-134620000D01*
X163636887Y-134620000D01*
X163746120Y-135169151D01*
X164057189Y-135634698D01*
X164461703Y-135904986D01*
X164244866Y-136007611D01*
X163868959Y-136422577D01*
X163708096Y-136810961D01*
X163830085Y-137033000D01*
X164973000Y-137033000D01*
X164973000Y-137013000D01*
X165227000Y-137013000D01*
X165227000Y-137033000D01*
X166369915Y-137033000D01*
X166491904Y-136810961D01*
X166331041Y-136422577D01*
X165955134Y-136007611D01*
X165738297Y-135904986D01*
X166142811Y-135634698D01*
X166453880Y-135169151D01*
X166510252Y-134885750D01*
X169174000Y-134885750D01*
X169174000Y-135476309D01*
X169270673Y-135709698D01*
X169449301Y-135888327D01*
X169682690Y-135985000D01*
X170148250Y-135985000D01*
X170307000Y-135826250D01*
X170307000Y-134727000D01*
X169332750Y-134727000D01*
X169174000Y-134885750D01*
X166510252Y-134885750D01*
X166563113Y-134620000D01*
X166453880Y-134070849D01*
X166142811Y-133605302D01*
X165998535Y-133508899D01*
X166135317Y-133483162D01*
X166351441Y-133344090D01*
X166496431Y-133131890D01*
X166547440Y-132880000D01*
X166547440Y-131280000D01*
X166503162Y-131044683D01*
X166364090Y-130828559D01*
X166151890Y-130683569D01*
X165900000Y-130632560D01*
X164300000Y-130632560D01*
X164064683Y-130676838D01*
X163848559Y-130815910D01*
X163703569Y-131028110D01*
X163652560Y-131280000D01*
X163652560Y-132880000D01*
X163696838Y-133115317D01*
X163835910Y-133331441D01*
X164048110Y-133476431D01*
X164203089Y-133507815D01*
X164057189Y-133605302D01*
X163746120Y-134070849D01*
X163636887Y-134620000D01*
X163041440Y-134620000D01*
X163041440Y-133770000D01*
X162997162Y-133534683D01*
X162858090Y-133318559D01*
X162645890Y-133173569D01*
X162394000Y-133122560D01*
X160694000Y-133122560D01*
X160458683Y-133166838D01*
X160242559Y-133305910D01*
X160097569Y-133518110D01*
X160046560Y-133770000D01*
X155278956Y-133770000D01*
X155278956Y-130276169D01*
X156582096Y-128973029D01*
X156607808Y-128934548D01*
X156741771Y-128734059D01*
X156757743Y-128653760D01*
X156853433Y-128558237D01*
X156996079Y-128214709D01*
X156996403Y-127842743D01*
X156854358Y-127498967D01*
X156695165Y-127339496D01*
X156845071Y-127189851D01*
X156987717Y-126846323D01*
X156988041Y-126474357D01*
X156845996Y-126130581D01*
X156583206Y-125867332D01*
X156239678Y-125724686D01*
X156102968Y-125724567D01*
X156034765Y-125678995D01*
X155752880Y-125622925D01*
X155580785Y-125622925D01*
X156007110Y-125196600D01*
X156341507Y-125196600D01*
X156348854Y-125214380D01*
X156723647Y-125589827D01*
X157213587Y-125793268D01*
X157744086Y-125793731D01*
X158234380Y-125591146D01*
X158609827Y-125216353D01*
X158743314Y-124894882D01*
X158850200Y-125152929D01*
X159085812Y-125214583D01*
X159840395Y-124460000D01*
X159826253Y-124445858D01*
X160005858Y-124266253D01*
X160020000Y-124280395D01*
X160774583Y-123525812D01*
X160712929Y-123290200D01*
X160433688Y-123191917D01*
X160774380Y-123051146D01*
X161149827Y-122676353D01*
X161353268Y-122186413D01*
X161353731Y-121655914D01*
X161151146Y-121165620D01*
X160776353Y-120790173D01*
X160438554Y-120649906D01*
X160774380Y-120511146D01*
X161149827Y-120136353D01*
X161353268Y-119646413D01*
X161353731Y-119115914D01*
X161151146Y-118625620D01*
X160776353Y-118250173D01*
X160438554Y-118109906D01*
X160774380Y-117971146D01*
X161149827Y-117596353D01*
X161353268Y-117106413D01*
X161353731Y-116575914D01*
X161151146Y-116085620D01*
X160776353Y-115710173D01*
X160438554Y-115569906D01*
X160774380Y-115431146D01*
X161149827Y-115056353D01*
X161353268Y-114566413D01*
X161353525Y-114272394D01*
X161428893Y-114287386D01*
X163410882Y-114287386D01*
X163692767Y-114231316D01*
X163931737Y-114071641D01*
X164910043Y-113093335D01*
X165364086Y-113093731D01*
X165854380Y-112891146D01*
X166229827Y-112516353D01*
X166370094Y-112178554D01*
X166508854Y-112514380D01*
X166883647Y-112889827D01*
X167373587Y-113093268D01*
X167904086Y-113093731D01*
X168394380Y-112891146D01*
X168769827Y-112516353D01*
X168903314Y-112194882D01*
X169010200Y-112452929D01*
X169245812Y-112514583D01*
X170000395Y-111760000D01*
X169245812Y-111005417D01*
X169010200Y-111067071D01*
X168911917Y-111346312D01*
X168771146Y-111005620D01*
X168396353Y-110630173D01*
X168058554Y-110489906D01*
X168394380Y-110351146D01*
X168769827Y-109976353D01*
X168910094Y-109638554D01*
X169048854Y-109974380D01*
X169423647Y-110349827D01*
X169745118Y-110483314D01*
X169487071Y-110590200D01*
X169425417Y-110825812D01*
X170180000Y-111580395D01*
X170194143Y-111566253D01*
X170373748Y-111745858D01*
X170359605Y-111760000D01*
X170373748Y-111774143D01*
X170194143Y-111953748D01*
X170180000Y-111939605D01*
X169425417Y-112694188D01*
X169487071Y-112929800D01*
X169987480Y-113105927D01*
X170517199Y-113077148D01*
X170714040Y-112995614D01*
X170714040Y-115001294D01*
X170770110Y-115283179D01*
X170929785Y-115522149D01*
X171493104Y-116085468D01*
X171568498Y-116135845D01*
X171386732Y-116573587D01*
X171386269Y-117104086D01*
X171588854Y-117594380D01*
X171963647Y-117969827D01*
X172118337Y-118034060D01*
X172021500Y-118034060D01*
X171786183Y-118078338D01*
X171570059Y-118217410D01*
X171425069Y-118429610D01*
X171374060Y-118681500D01*
X171374060Y-120078500D01*
X171418338Y-120313817D01*
X171557410Y-120529941D01*
X171769610Y-120674931D01*
X172021500Y-120725940D01*
X172117884Y-120725940D01*
X171965620Y-120788854D01*
X171590173Y-121163647D01*
X171386732Y-121653587D01*
X171386269Y-122184086D01*
X171563978Y-122614175D01*
X171481710Y-122669145D01*
X170854620Y-123296235D01*
X170446413Y-123126732D01*
X169915914Y-123126269D01*
X169425620Y-123328854D01*
X169050173Y-123703647D01*
X168909906Y-124041446D01*
X168771146Y-123705620D01*
X168396353Y-123330173D01*
X167906413Y-123126732D01*
X167375914Y-123126269D01*
X167261610Y-123173498D01*
X167261610Y-120101978D01*
X167193939Y-119761772D01*
X167001228Y-119473360D01*
X166897868Y-119370000D01*
X167334250Y-119370000D01*
X167493000Y-119211250D01*
X167493000Y-118237000D01*
X167747000Y-118237000D01*
X167747000Y-119211250D01*
X167905750Y-119370000D01*
X168496309Y-119370000D01*
X168729698Y-119273327D01*
X168908327Y-119094699D01*
X169005000Y-118861310D01*
X169005000Y-118395750D01*
X168846250Y-118237000D01*
X167747000Y-118237000D01*
X167493000Y-118237000D01*
X167473000Y-118237000D01*
X167473000Y-117983000D01*
X167493000Y-117983000D01*
X167493000Y-117008750D01*
X167747000Y-117008750D01*
X167747000Y-117983000D01*
X168846250Y-117983000D01*
X169005000Y-117824250D01*
X169005000Y-117358690D01*
X168908327Y-117125301D01*
X168729698Y-116946673D01*
X168496309Y-116850000D01*
X167905750Y-116850000D01*
X167747000Y-117008750D01*
X167493000Y-117008750D01*
X167334250Y-116850000D01*
X166743691Y-116850000D01*
X166510302Y-116946673D01*
X166369064Y-117087910D01*
X166334090Y-117033559D01*
X166121890Y-116888569D01*
X166018105Y-116867552D01*
X165893117Y-116565057D01*
X165630327Y-116301808D01*
X165286799Y-116159162D01*
X164914833Y-116158838D01*
X164571057Y-116300883D01*
X164307808Y-116563673D01*
X164179170Y-116873467D01*
X164134683Y-116881838D01*
X163918559Y-117020910D01*
X163773569Y-117233110D01*
X163722560Y-117485000D01*
X163722560Y-118735000D01*
X163766838Y-118970317D01*
X163905910Y-119186441D01*
X164118110Y-119331431D01*
X164370000Y-119382440D01*
X164427540Y-119382440D01*
X164491382Y-119477986D01*
X165483610Y-120470214D01*
X165483610Y-123175396D01*
X165366413Y-123126732D01*
X164835914Y-123126269D01*
X164345620Y-123328854D01*
X163970173Y-123703647D01*
X163829906Y-124041446D01*
X163691146Y-123705620D01*
X163316353Y-123330173D01*
X162826413Y-123126732D01*
X162295914Y-123126269D01*
X161805620Y-123328854D01*
X161430173Y-123703647D01*
X161296686Y-124025118D01*
X161189800Y-123767071D01*
X160954188Y-123705417D01*
X160199605Y-124460000D01*
X160954188Y-125214583D01*
X161189800Y-125152929D01*
X161288083Y-124873688D01*
X161428854Y-125214380D01*
X161803647Y-125589827D01*
X162141446Y-125730094D01*
X161805620Y-125868854D01*
X161430173Y-126243647D01*
X161289906Y-126581446D01*
X161151146Y-126245620D01*
X160776353Y-125870173D01*
X160454882Y-125736686D01*
X160712929Y-125629800D01*
X160774583Y-125394188D01*
X160020000Y-124639605D01*
X159265417Y-125394188D01*
X159327071Y-125629800D01*
X159606312Y-125728083D01*
X159265620Y-125868854D01*
X158890173Y-126243647D01*
X158686732Y-126733587D01*
X158686269Y-127264086D01*
X158888854Y-127754380D01*
X159263647Y-128129827D01*
X159753587Y-128333268D01*
X160284086Y-128333731D01*
X160774380Y-128131146D01*
X161149827Y-127756353D01*
X161290094Y-127418554D01*
X161428854Y-127754380D01*
X161803647Y-128129827D01*
X162293587Y-128333268D01*
X162824086Y-128333731D01*
X163314380Y-128131146D01*
X163689827Y-127756353D01*
X163830094Y-127418554D01*
X163968854Y-127754380D01*
X164343647Y-128129827D01*
X164833587Y-128333268D01*
X165364086Y-128333731D01*
X165671156Y-128206852D01*
X165671156Y-129216433D01*
X165727226Y-129498318D01*
X165886901Y-129737288D01*
X168503273Y-132353660D01*
X168503273Y-133350000D01*
X168559343Y-133631885D01*
X168719018Y-133870855D01*
X168957988Y-134030530D01*
X169174000Y-134073497D01*
X169174000Y-134314250D01*
X169332750Y-134473000D01*
X170307000Y-134473000D01*
X170307000Y-134453000D01*
X170561000Y-134453000D01*
X170561000Y-134473000D01*
X171439097Y-134473000D01*
X171450085Y-134493000D01*
X172593000Y-134493000D01*
X172593000Y-134473000D01*
X172847000Y-134473000D01*
X172847000Y-134493000D01*
X172867000Y-134493000D01*
X172867000Y-134747000D01*
X172847000Y-134747000D01*
X172847000Y-134767000D01*
X172593000Y-134767000D01*
X172593000Y-134747000D01*
X171555250Y-134747000D01*
X171535250Y-134727000D01*
X170561000Y-134727000D01*
X170561000Y-135826250D01*
X170719750Y-135985000D01*
X171185310Y-135985000D01*
X171418699Y-135888327D01*
X171597327Y-135709698D01*
X171663455Y-135550050D01*
X171864866Y-135772389D01*
X172081703Y-135875014D01*
X171677189Y-136145302D01*
X171366120Y-136610849D01*
X171256887Y-137160000D01*
X171366120Y-137709151D01*
X171677189Y-138174698D01*
X172059275Y-138430000D01*
X171677189Y-138685302D01*
X171366120Y-139150849D01*
X171256887Y-139700000D01*
X171366120Y-140249151D01*
X171677189Y-140714698D01*
X172142736Y-141025767D01*
X172691887Y-141135000D01*
X172748113Y-141135000D01*
X173297264Y-141025767D01*
X173762811Y-140714698D01*
X174073880Y-140249151D01*
X174183113Y-139700000D01*
X174113198Y-139348512D01*
X174701405Y-138760305D01*
X174713474Y-138742243D01*
X174861080Y-138521335D01*
X174917150Y-138239450D01*
X174917150Y-134019249D01*
X174861080Y-133737364D01*
X174701405Y-133498394D01*
X174032156Y-132829145D01*
X173968616Y-132786689D01*
X174073880Y-132629151D01*
X174183113Y-132080000D01*
X174073880Y-131530849D01*
X173762811Y-131065302D01*
X173297264Y-130754233D01*
X172748113Y-130645000D01*
X172691887Y-130645000D01*
X172142736Y-130754233D01*
X171677189Y-131065302D01*
X171653347Y-131100984D01*
X171523090Y-130898559D01*
X171310890Y-130753569D01*
X171059000Y-130702560D01*
X170293796Y-130702560D01*
X168530428Y-128939192D01*
X168530428Y-128328615D01*
X169549827Y-129348014D01*
X169788797Y-129507689D01*
X170070682Y-129563759D01*
X174855944Y-129563759D01*
X181775113Y-136482928D01*
X181775113Y-138061713D01*
X181831183Y-138343598D01*
X181990858Y-138582568D01*
X182714280Y-139305990D01*
X182635907Y-139700000D01*
X182748946Y-140268285D01*
X183070853Y-140750054D01*
X183552622Y-141071961D01*
X184120907Y-141185000D01*
X184179093Y-141185000D01*
X184747378Y-141071961D01*
X185229147Y-140750054D01*
X185551054Y-140268285D01*
X185664093Y-139700000D01*
X185551054Y-139131715D01*
X185229147Y-138649946D01*
X184899974Y-138430000D01*
X185229147Y-138210054D01*
X185551054Y-137728285D01*
X185664093Y-137160000D01*
X185551054Y-136591715D01*
X185229147Y-136109946D01*
X184899974Y-135890000D01*
X185229147Y-135670054D01*
X185551054Y-135188285D01*
X185664093Y-134620000D01*
X185551054Y-134051715D01*
X185229147Y-133569946D01*
X184899974Y-133350000D01*
X185229147Y-133130054D01*
X185551054Y-132648285D01*
X185664093Y-132080000D01*
X185551054Y-131511715D01*
X185229147Y-131029946D01*
X184899974Y-130810000D01*
X185229147Y-130590054D01*
X185551054Y-130108285D01*
X185664093Y-129540000D01*
X185551054Y-128971715D01*
X185229147Y-128489946D01*
X184899974Y-128270000D01*
X185229147Y-128050054D01*
X185551054Y-127568285D01*
X185664093Y-127000000D01*
X185551054Y-126431715D01*
X185229147Y-125949946D01*
X184899974Y-125730000D01*
X185229147Y-125510054D01*
X185551054Y-125028285D01*
X185664093Y-124460000D01*
X185551054Y-123891715D01*
X185229147Y-123409946D01*
X184899974Y-123190000D01*
X185229147Y-122970054D01*
X185551054Y-122488285D01*
X185664093Y-121920000D01*
X185551054Y-121351715D01*
X185229147Y-120869946D01*
X184899974Y-120650000D01*
X185229147Y-120430054D01*
X185551054Y-119948285D01*
X185664093Y-119380000D01*
X185551054Y-118811715D01*
X185229147Y-118329946D01*
X184899974Y-118110000D01*
X185229147Y-117890054D01*
X185551054Y-117408285D01*
X185664093Y-116840000D01*
X185551054Y-116271715D01*
X185229147Y-115789946D01*
X184899974Y-115570000D01*
X185229147Y-115350054D01*
X185551054Y-114868285D01*
X185664093Y-114300000D01*
X185551054Y-113731715D01*
X185229147Y-113249946D01*
X184899974Y-113030000D01*
X185229147Y-112810054D01*
X185551054Y-112328285D01*
X185664093Y-111760000D01*
X185551054Y-111191715D01*
X185229147Y-110709946D01*
X184899974Y-110490000D01*
X185229147Y-110270054D01*
X185551054Y-109788285D01*
X185664093Y-109220000D01*
X185551054Y-108651715D01*
X185229147Y-108169946D01*
X185187548Y-108142150D01*
X185235317Y-108133162D01*
X185451441Y-107994090D01*
X185596431Y-107781890D01*
X185647440Y-107530000D01*
X185647440Y-105830000D01*
X185603162Y-105594683D01*
X185464090Y-105378559D01*
X185251890Y-105233569D01*
X185000000Y-105182560D01*
X183300000Y-105182560D01*
X183064683Y-105226838D01*
X182848559Y-105365910D01*
X182703569Y-105578110D01*
X182652560Y-105830000D01*
X182652560Y-107530000D01*
X182696838Y-107765317D01*
X182835910Y-107981441D01*
X183048110Y-108126431D01*
X183115541Y-108140086D01*
X183070853Y-108169946D01*
X182748946Y-108651715D01*
X182635907Y-109220000D01*
X182748946Y-109788285D01*
X183070853Y-110270054D01*
X183400026Y-110490000D01*
X183070853Y-110709946D01*
X182748946Y-111191715D01*
X182635907Y-111760000D01*
X182748946Y-112328285D01*
X183070853Y-112810054D01*
X183400026Y-113030000D01*
X183070853Y-113249946D01*
X182748946Y-113731715D01*
X182635907Y-114300000D01*
X182748946Y-114868285D01*
X183070853Y-115350054D01*
X183400026Y-115570000D01*
X183070853Y-115789946D01*
X182748946Y-116271715D01*
X182635907Y-116840000D01*
X182748946Y-117408285D01*
X183070853Y-117890054D01*
X183400026Y-118110000D01*
X183070853Y-118329946D01*
X182748946Y-118811715D01*
X182635907Y-119380000D01*
X182748946Y-119948285D01*
X183070853Y-120430054D01*
X183400026Y-120650000D01*
X183070853Y-120869946D01*
X182748946Y-121351715D01*
X182635907Y-121920000D01*
X182748946Y-122488285D01*
X183070853Y-122970054D01*
X183400026Y-123190000D01*
X183070853Y-123409946D01*
X182748946Y-123891715D01*
X182635907Y-124460000D01*
X182748946Y-125028285D01*
X183070853Y-125510054D01*
X183400026Y-125730000D01*
X183070853Y-125949946D01*
X182748946Y-126431715D01*
X182635907Y-127000000D01*
X182748946Y-127568285D01*
X183070853Y-128050054D01*
X183400026Y-128270000D01*
X183070853Y-128489946D01*
X182748946Y-128971715D01*
X182635907Y-129540000D01*
X182645652Y-129588989D01*
X179470673Y-129588989D01*
X175996600Y-126114916D01*
X175996600Y-125598493D01*
X176014380Y-125591146D01*
X176389827Y-125216353D01*
X176593268Y-124726413D01*
X176593731Y-124195914D01*
X176423734Y-123784489D01*
X176533935Y-123710855D01*
X177010119Y-123234671D01*
X177050194Y-123174694D01*
X177169794Y-122995701D01*
X177225864Y-122713816D01*
X177225864Y-116074674D01*
X177169794Y-115792789D01*
X177010119Y-115553819D01*
X176500058Y-115043758D01*
X176417862Y-114988836D01*
X176593268Y-114566413D01*
X176593731Y-114035914D01*
X176391146Y-113545620D01*
X176016353Y-113170173D01*
X175678554Y-113029906D01*
X176014380Y-112891146D01*
X176389827Y-112516353D01*
X176593268Y-112026413D01*
X176593731Y-111495914D01*
X176391146Y-111005620D01*
X176016353Y-110630173D01*
X175661852Y-110482971D01*
X175686838Y-110422799D01*
X175687162Y-110050833D01*
X175591892Y-109820261D01*
X175682595Y-109729716D01*
X175825241Y-109386188D01*
X175825565Y-109014222D01*
X175683520Y-108670446D01*
X175420730Y-108407197D01*
X175077202Y-108264551D01*
X174705236Y-108264227D01*
X174361460Y-108406272D01*
X174098211Y-108669062D01*
X174016507Y-108865825D01*
X173851146Y-108465620D01*
X173476353Y-108090173D01*
X173190225Y-107971362D01*
X173304452Y-107696274D01*
X173304522Y-107616277D01*
X173449267Y-107471532D01*
X174262331Y-107471532D01*
X174317826Y-107527124D01*
X174661354Y-107669770D01*
X175033320Y-107670094D01*
X175377096Y-107528049D01*
X175640345Y-107265259D01*
X175782991Y-106921731D01*
X175783201Y-106680000D01*
X178825907Y-106680000D01*
X178938946Y-107248285D01*
X179260853Y-107730054D01*
X179590026Y-107950000D01*
X179260853Y-108169946D01*
X178938946Y-108651715D01*
X178825907Y-109220000D01*
X178938946Y-109788285D01*
X179260853Y-110270054D01*
X179590026Y-110490000D01*
X179260853Y-110709946D01*
X178938946Y-111191715D01*
X178825907Y-111760000D01*
X178938946Y-112328285D01*
X179260853Y-112810054D01*
X179590026Y-113030000D01*
X179260853Y-113249946D01*
X178938946Y-113731715D01*
X178825907Y-114300000D01*
X178938946Y-114868285D01*
X179260853Y-115350054D01*
X179590026Y-115570000D01*
X179260853Y-115789946D01*
X178938946Y-116271715D01*
X178825907Y-116840000D01*
X178938946Y-117408285D01*
X179260853Y-117890054D01*
X179590026Y-118110000D01*
X179260853Y-118329946D01*
X178938946Y-118811715D01*
X178825907Y-119380000D01*
X178938946Y-119948285D01*
X179260853Y-120430054D01*
X179590026Y-120650000D01*
X179260853Y-120869946D01*
X178938946Y-121351715D01*
X178825907Y-121920000D01*
X178938946Y-122488285D01*
X179260853Y-122970054D01*
X179302452Y-122997850D01*
X179254683Y-123006838D01*
X179038559Y-123145910D01*
X178893569Y-123358110D01*
X178842560Y-123610000D01*
X178842560Y-125310000D01*
X178886838Y-125545317D01*
X179025910Y-125761441D01*
X179238110Y-125906431D01*
X179490000Y-125957440D01*
X181190000Y-125957440D01*
X181425317Y-125913162D01*
X181641441Y-125774090D01*
X181786431Y-125561890D01*
X181837440Y-125310000D01*
X181837440Y-123610000D01*
X181793162Y-123374683D01*
X181654090Y-123158559D01*
X181441890Y-123013569D01*
X181374459Y-122999914D01*
X181419147Y-122970054D01*
X181741054Y-122488285D01*
X181854093Y-121920000D01*
X181741054Y-121351715D01*
X181419147Y-120869946D01*
X181089974Y-120650000D01*
X181419147Y-120430054D01*
X181741054Y-119948285D01*
X181854093Y-119380000D01*
X181741054Y-118811715D01*
X181419147Y-118329946D01*
X181089974Y-118110000D01*
X181419147Y-117890054D01*
X181741054Y-117408285D01*
X181854093Y-116840000D01*
X181741054Y-116271715D01*
X181419147Y-115789946D01*
X181089974Y-115570000D01*
X181419147Y-115350054D01*
X181741054Y-114868285D01*
X181854093Y-114300000D01*
X181741054Y-113731715D01*
X181419147Y-113249946D01*
X181089974Y-113030000D01*
X181419147Y-112810054D01*
X181741054Y-112328285D01*
X181854093Y-111760000D01*
X181741054Y-111191715D01*
X181419147Y-110709946D01*
X181089974Y-110490000D01*
X181419147Y-110270054D01*
X181741054Y-109788285D01*
X181854093Y-109220000D01*
X181741054Y-108651715D01*
X181419147Y-108169946D01*
X181089974Y-107950000D01*
X181419147Y-107730054D01*
X181741054Y-107248285D01*
X181854093Y-106680000D01*
X181741054Y-106111715D01*
X181419147Y-105629946D01*
X180937378Y-105308039D01*
X180369093Y-105195000D01*
X180310907Y-105195000D01*
X179742622Y-105308039D01*
X179260853Y-105629946D01*
X178938946Y-106111715D01*
X178825907Y-106680000D01*
X175783201Y-106680000D01*
X175783315Y-106549765D01*
X175641270Y-106205989D01*
X175378480Y-105942740D01*
X175034952Y-105800094D01*
X174662986Y-105799770D01*
X174319210Y-105941815D01*
X174262594Y-105998332D01*
X173144162Y-105998332D01*
X173144157Y-105998331D01*
X172909040Y-106045099D01*
X172862272Y-106054402D01*
X172686275Y-106172000D01*
X172623302Y-106214077D01*
X172262998Y-106574381D01*
X172184447Y-106574313D01*
X171840671Y-106716358D01*
X171577422Y-106979148D01*
X171434776Y-107322676D01*
X171434452Y-107694642D01*
X171576497Y-108038418D01*
X171795937Y-108258241D01*
X171590173Y-108463647D01*
X171449906Y-108801446D01*
X171311146Y-108465620D01*
X170936353Y-108090173D01*
X170446413Y-107886732D01*
X169915914Y-107886269D01*
X169425620Y-108088854D01*
X169050173Y-108463647D01*
X168909906Y-108801446D01*
X168771146Y-108465620D01*
X168396353Y-108090173D01*
X167906413Y-107886732D01*
X167375914Y-107886269D01*
X166885620Y-108088854D01*
X166510173Y-108463647D01*
X166369906Y-108801446D01*
X166231146Y-108465620D01*
X165856353Y-108090173D01*
X165366413Y-107886732D01*
X164835914Y-107886269D01*
X164345620Y-108088854D01*
X163970173Y-108463647D01*
X163829906Y-108801446D01*
X163691146Y-108465620D01*
X163316353Y-108090173D01*
X162826413Y-107886732D01*
X162295914Y-107886269D01*
X161805620Y-108088854D01*
X161786929Y-108107513D01*
X161116287Y-107436871D01*
X160877317Y-107277196D01*
X160595432Y-107221126D01*
X159361893Y-107221126D01*
X159080008Y-107277196D01*
X158841038Y-107436871D01*
X158229145Y-108048764D01*
X158069470Y-108287734D01*
X158013400Y-108569619D01*
X158013400Y-108914890D01*
X157816090Y-109112200D01*
X151947833Y-109112200D01*
X151874777Y-109039144D01*
X152158855Y-108755065D01*
X152168135Y-108741177D01*
X152318530Y-108516095D01*
X152374600Y-108234210D01*
X152374600Y-103455822D01*
X152430192Y-103400327D01*
X152476004Y-103290000D01*
X155982560Y-103290000D01*
X155982560Y-104990000D01*
X156026838Y-105225317D01*
X156165910Y-105441441D01*
X156378110Y-105586431D01*
X156630000Y-105637440D01*
X158330000Y-105637440D01*
X158565317Y-105593162D01*
X158781441Y-105454090D01*
X158926431Y-105241890D01*
X158940086Y-105174459D01*
X158969946Y-105219147D01*
X159451715Y-105541054D01*
X160020000Y-105654093D01*
X160588285Y-105541054D01*
X161070054Y-105219147D01*
X161290000Y-104889974D01*
X161509946Y-105219147D01*
X161991715Y-105541054D01*
X162560000Y-105654093D01*
X163128285Y-105541054D01*
X163610054Y-105219147D01*
X163830000Y-104889974D01*
X164049946Y-105219147D01*
X164531715Y-105541054D01*
X165100000Y-105654093D01*
X165668285Y-105541054D01*
X166150054Y-105219147D01*
X166370000Y-104889974D01*
X166589946Y-105219147D01*
X167071715Y-105541054D01*
X167640000Y-105654093D01*
X168208285Y-105541054D01*
X168690054Y-105219147D01*
X169011961Y-104737378D01*
X169125000Y-104169093D01*
X169125000Y-104110907D01*
X169011961Y-103542622D01*
X168690054Y-103060853D01*
X168406899Y-102871655D01*
X168406924Y-102871645D01*
X168835183Y-102481358D01*
X169081486Y-101956892D01*
X168960819Y-101727000D01*
X167767000Y-101727000D01*
X167767000Y-101747000D01*
X167513000Y-101747000D01*
X167513000Y-101727000D01*
X167493000Y-101727000D01*
X167493000Y-101473000D01*
X167513000Y-101473000D01*
X167513000Y-100279845D01*
X167767000Y-100279845D01*
X167767000Y-101473000D01*
X168960819Y-101473000D01*
X169081486Y-101243108D01*
X168835183Y-100718642D01*
X168406924Y-100328355D01*
X167996890Y-100158524D01*
X167767000Y-100279845D01*
X167513000Y-100279845D01*
X167283110Y-100158524D01*
X166873076Y-100328355D01*
X166444817Y-100718642D01*
X166377702Y-100861553D01*
X166150054Y-100520853D01*
X165668285Y-100198946D01*
X165100000Y-100085907D01*
X164531715Y-100198946D01*
X164049946Y-100520853D01*
X163830000Y-100850026D01*
X163610054Y-100520853D01*
X163128285Y-100198946D01*
X162560000Y-100085907D01*
X161991715Y-100198946D01*
X161509946Y-100520853D01*
X161290000Y-100850026D01*
X161070054Y-100520853D01*
X160588285Y-100198946D01*
X160020000Y-100085907D01*
X159451715Y-100198946D01*
X158969946Y-100520853D01*
X158742298Y-100861553D01*
X158675183Y-100718642D01*
X158246924Y-100328355D01*
X157836890Y-100158524D01*
X157607000Y-100279845D01*
X157607000Y-101473000D01*
X157627000Y-101473000D01*
X157627000Y-101727000D01*
X157607000Y-101727000D01*
X157607000Y-101747000D01*
X157353000Y-101747000D01*
X157353000Y-101727000D01*
X156159181Y-101727000D01*
X156038514Y-101956892D01*
X156284817Y-102481358D01*
X156490504Y-102668808D01*
X156394683Y-102686838D01*
X156178559Y-102825910D01*
X156033569Y-103038110D01*
X155982560Y-103290000D01*
X152476004Y-103290000D01*
X152572838Y-103056799D01*
X152573162Y-102684833D01*
X152431117Y-102341057D01*
X152168327Y-102077808D01*
X151824799Y-101935162D01*
X151664310Y-101935022D01*
X151730950Y-101600000D01*
X151659960Y-101243108D01*
X156038514Y-101243108D01*
X156159181Y-101473000D01*
X157353000Y-101473000D01*
X157353000Y-100279845D01*
X157123110Y-100158524D01*
X156713076Y-100328355D01*
X156284817Y-100718642D01*
X156038514Y-101243108D01*
X151659960Y-101243108D01*
X151621717Y-101050849D01*
X151310648Y-100585302D01*
X150845101Y-100274233D01*
X150295950Y-100165000D01*
X149424050Y-100165000D01*
X148874899Y-100274233D01*
X148507992Y-100519393D01*
X148301890Y-100378569D01*
X148050000Y-100327560D01*
X146550000Y-100327560D01*
X146314683Y-100371838D01*
X146098559Y-100510910D01*
X146052031Y-100579006D01*
X145909698Y-100436673D01*
X145676309Y-100340000D01*
X145085750Y-100340000D01*
X144927000Y-100498750D01*
X144673000Y-100498750D01*
X144514250Y-100340000D01*
X143923691Y-100340000D01*
X143690302Y-100436673D01*
X143511673Y-100615301D01*
X143415000Y-100848690D01*
X136467440Y-100848690D01*
X136467440Y-100800000D01*
X136423162Y-100564683D01*
X136284090Y-100348559D01*
X136071890Y-100203569D01*
X135820000Y-100152560D01*
X133420000Y-100152560D01*
X133184683Y-100196838D01*
X132968559Y-100335910D01*
X132823569Y-100548110D01*
X132772560Y-100800000D01*
X132772560Y-102400000D01*
X132816838Y-102635317D01*
X132955910Y-102851441D01*
X133168110Y-102996431D01*
X133317074Y-103026597D01*
X133169352Y-103125302D01*
X132858283Y-103590849D01*
X132749050Y-104140000D01*
X132858283Y-104689151D01*
X133169352Y-105154698D01*
X133551438Y-105410000D01*
X133169352Y-105665302D01*
X132858283Y-106130849D01*
X132749050Y-106680000D01*
X132854948Y-107212385D01*
X131940052Y-107212385D01*
X132045950Y-106680000D01*
X131936717Y-106130849D01*
X131625648Y-105665302D01*
X131243562Y-105410000D01*
X131625648Y-105154698D01*
X131936717Y-104689151D01*
X132045950Y-104140000D01*
X131936717Y-103590849D01*
X131625648Y-103125302D01*
X131243562Y-102870000D01*
X131625648Y-102614698D01*
X131936717Y-102149151D01*
X132045950Y-101600000D01*
X131936717Y-101050849D01*
X131625648Y-100585302D01*
X131160101Y-100274233D01*
X130610950Y-100165000D01*
X129739050Y-100165000D01*
X129189899Y-100274233D01*
X128736568Y-100577139D01*
X128702090Y-100523559D01*
X128489890Y-100378569D01*
X128238000Y-100327560D01*
X126738000Y-100327560D01*
X126502683Y-100371838D01*
X126286559Y-100510910D01*
X126240031Y-100579006D01*
X126097698Y-100436673D01*
X125864309Y-100340000D01*
X125273750Y-100340000D01*
X125115000Y-100498750D01*
X124861000Y-100498750D01*
X124702250Y-100340000D01*
X124111691Y-100340000D01*
X123878302Y-100436673D01*
X123699673Y-100615301D01*
X123603000Y-100848690D01*
X116782440Y-100848690D01*
X116782440Y-100800000D01*
X116738162Y-100564683D01*
X116599090Y-100348559D01*
X116386890Y-100203569D01*
X116135000Y-100152560D01*
X113735000Y-100152560D01*
X113499683Y-100196838D01*
X113283559Y-100335910D01*
X113138569Y-100548110D01*
X113087560Y-100800000D01*
X113087560Y-102400000D01*
X113131838Y-102635317D01*
X113270910Y-102851441D01*
X113483110Y-102996431D01*
X113632074Y-103026597D01*
X113484352Y-103125302D01*
X113173283Y-103590849D01*
X113064050Y-104140000D01*
X113173283Y-104689151D01*
X113484352Y-105154698D01*
X113866438Y-105410000D01*
X113484352Y-105665302D01*
X113257440Y-106004899D01*
X113257440Y-105830000D01*
X113213162Y-105594683D01*
X113074090Y-105378559D01*
X112861890Y-105233569D01*
X112610000Y-105182560D01*
X111252000Y-105182560D01*
X111252000Y-99822000D01*
X172593000Y-99822000D01*
X172593000Y-104775000D01*
X172593000Y-104775000D01*
G37*
X172593000Y-104775000D02*
X172603006Y-104824410D01*
X172631447Y-104866035D01*
X172673841Y-104893315D01*
X172720000Y-104902000D01*
X185928000Y-104902000D01*
X185928000Y-141478000D01*
X111252000Y-141478000D01*
X111252000Y-141070522D01*
X111403108Y-141141486D01*
X111633000Y-141020819D01*
X111633000Y-139827000D01*
X111887000Y-139827000D01*
X111887000Y-141020819D01*
X112116892Y-141141486D01*
X112641358Y-140895183D01*
X113031645Y-140466924D01*
X113166216Y-140142020D01*
X113430500Y-140624896D01*
X113868517Y-140977166D01*
X114408000Y-141135000D01*
X114808000Y-141135000D01*
X114808000Y-139827000D01*
X115062000Y-139827000D01*
X115062000Y-141135000D01*
X115462000Y-141135000D01*
X116001483Y-140977166D01*
X116439500Y-140624896D01*
X116709367Y-140131819D01*
X116726904Y-140049039D01*
X116604915Y-139827000D01*
X115062000Y-139827000D01*
X114808000Y-139827000D01*
X113265085Y-139827000D01*
X113170760Y-139998686D01*
X113080155Y-139827000D01*
X111887000Y-139827000D01*
X111633000Y-139827000D01*
X111613000Y-139827000D01*
X111613000Y-139573000D01*
X111633000Y-139573000D01*
X111633000Y-139553000D01*
X111887000Y-139553000D01*
X111887000Y-139573000D01*
X113080155Y-139573000D01*
X113170760Y-139401314D01*
X113265085Y-139573000D01*
X114808000Y-139573000D01*
X114808000Y-139553000D01*
X115062000Y-139553000D01*
X115062000Y-139573000D01*
X116604915Y-139573000D01*
X116726904Y-139350961D01*
X116709367Y-139268181D01*
X116439500Y-138775104D01*
X116007293Y-138427507D01*
X116385648Y-138174698D01*
X116696717Y-137709151D01*
X116805950Y-137160000D01*
X116696717Y-136610849D01*
X116385648Y-136145302D01*
X116003562Y-135890000D01*
X116385648Y-135634698D01*
X116696717Y-135169151D01*
X116805950Y-134620000D01*
X116696717Y-134070849D01*
X116385648Y-133605302D01*
X116003562Y-133350000D01*
X116385648Y-133094698D01*
X116696717Y-132629151D01*
X116805950Y-132080000D01*
X116696717Y-131530849D01*
X116385648Y-131065302D01*
X116003562Y-130810000D01*
X116385648Y-130554698D01*
X116696717Y-130089151D01*
X116805950Y-129540000D01*
X116696717Y-128990849D01*
X116385648Y-128525302D01*
X116003562Y-128270000D01*
X116385648Y-128014698D01*
X116696717Y-127549151D01*
X116805950Y-127000000D01*
X116696717Y-126450849D01*
X116385648Y-125985302D01*
X116003562Y-125730000D01*
X116385648Y-125474698D01*
X116696717Y-125009151D01*
X116805950Y-124460000D01*
X116696717Y-123910849D01*
X116385648Y-123445302D01*
X116003562Y-123190000D01*
X116385648Y-122934698D01*
X116696717Y-122469151D01*
X116805950Y-121920000D01*
X116696717Y-121370849D01*
X116385648Y-120905302D01*
X116003562Y-120650000D01*
X116385648Y-120394698D01*
X116696717Y-119929151D01*
X116805950Y-119380000D01*
X116696717Y-118830849D01*
X116385648Y-118365302D01*
X116003562Y-118110000D01*
X116385648Y-117854698D01*
X116696717Y-117389151D01*
X116805950Y-116840000D01*
X116696717Y-116290849D01*
X116385648Y-115825302D01*
X116003562Y-115570000D01*
X116385648Y-115314698D01*
X116696717Y-114849151D01*
X116797140Y-114344286D01*
X116910000Y-114344286D01*
X116910000Y-125685714D01*
X120730000Y-125685714D01*
X120730000Y-114344286D01*
X116910000Y-114344286D01*
X116797140Y-114344286D01*
X116805950Y-114300000D01*
X116696717Y-113750849D01*
X116385648Y-113285302D01*
X116003562Y-113030000D01*
X116385648Y-112774698D01*
X116696717Y-112309151D01*
X116805950Y-111760000D01*
X116696717Y-111210849D01*
X116385648Y-110745302D01*
X116003562Y-110490000D01*
X116385648Y-110234698D01*
X116696717Y-109769151D01*
X116805950Y-109220000D01*
X116696717Y-108670849D01*
X116385648Y-108205302D01*
X116003562Y-107950000D01*
X116385648Y-107694698D01*
X116696717Y-107229151D01*
X116805950Y-106680000D01*
X116696717Y-106130849D01*
X116385648Y-105665302D01*
X116003562Y-105410000D01*
X116385648Y-105154698D01*
X116696717Y-104689151D01*
X116805950Y-104140000D01*
X116696717Y-103590849D01*
X116385648Y-103125302D01*
X116239650Y-103027749D01*
X116370317Y-103003162D01*
X116586441Y-102864090D01*
X116731431Y-102651890D01*
X116782440Y-102400000D01*
X116782440Y-101885750D01*
X123603000Y-101885750D01*
X123603000Y-102351310D01*
X123699673Y-102584699D01*
X123878302Y-102763327D01*
X124111691Y-102860000D01*
X124702250Y-102860000D01*
X124861000Y-102701250D01*
X124861000Y-101727000D01*
X123761750Y-101727000D01*
X123603000Y-101885750D01*
X116782440Y-101885750D01*
X116782440Y-100848690D01*
X123603000Y-100848690D01*
X123603000Y-101314250D01*
X123761750Y-101473000D01*
X124861000Y-101473000D01*
X124861000Y-100498750D01*
X125115000Y-100498750D01*
X125115000Y-101473000D01*
X125135000Y-101473000D01*
X125135000Y-101727000D01*
X125115000Y-101727000D01*
X125115000Y-102701250D01*
X125273750Y-102860000D01*
X125864309Y-102860000D01*
X126097698Y-102763327D01*
X126238936Y-102622090D01*
X126273910Y-102676441D01*
X126486110Y-102821431D01*
X126738000Y-102872440D01*
X127292849Y-102872440D01*
X127292849Y-103605915D01*
X127129204Y-103769560D01*
X126619000Y-103769560D01*
X126383683Y-103813838D01*
X126167559Y-103952910D01*
X126022569Y-104165110D01*
X125971560Y-104417000D01*
X125971560Y-105387000D01*
X126000821Y-105542507D01*
X125971560Y-105687000D01*
X125971560Y-106657000D01*
X126000821Y-106812507D01*
X125971560Y-106957000D01*
X125971560Y-107927000D01*
X126015838Y-108162317D01*
X126154910Y-108378441D01*
X126367110Y-108523431D01*
X126619000Y-108574440D01*
X127889000Y-108574440D01*
X128124317Y-108530162D01*
X128146880Y-108515643D01*
X128317300Y-108629515D01*
X128426401Y-108651216D01*
X128413283Y-108670849D01*
X128304050Y-109220000D01*
X128413283Y-109769151D01*
X128724352Y-110234698D01*
X129106438Y-110490000D01*
X128724352Y-110745302D01*
X128620596Y-110900583D01*
X128356001Y-110790713D01*
X127984035Y-110790389D01*
X127640259Y-110932434D01*
X127377010Y-111195224D01*
X127234364Y-111538752D01*
X127234040Y-111910718D01*
X127376085Y-112254494D01*
X127482975Y-112361571D01*
X127488672Y-112390211D01*
X127648347Y-112629181D01*
X128556170Y-113537004D01*
X128413283Y-113750849D01*
X128304050Y-114300000D01*
X128413283Y-114849151D01*
X128724352Y-115314698D01*
X129106438Y-115570000D01*
X128724352Y-115825302D01*
X128413283Y-116290849D01*
X128304050Y-116840000D01*
X128413283Y-117389151D01*
X128724352Y-117854698D01*
X129106438Y-118110000D01*
X128724352Y-118365302D01*
X128413283Y-118830849D01*
X128304050Y-119380000D01*
X128413283Y-119929151D01*
X128724352Y-120394698D01*
X129106438Y-120650000D01*
X128724352Y-120905302D01*
X128413283Y-121370849D01*
X128304050Y-121920000D01*
X128413283Y-122469151D01*
X128724352Y-122934698D01*
X129106438Y-123190000D01*
X128724352Y-123445302D01*
X128413283Y-123910849D01*
X128304050Y-124460000D01*
X128413283Y-125009151D01*
X128724352Y-125474698D01*
X129106438Y-125730000D01*
X128724352Y-125985302D01*
X128413283Y-126450849D01*
X128304050Y-127000000D01*
X128413283Y-127549151D01*
X128724352Y-128014698D01*
X129106438Y-128270000D01*
X128724352Y-128525302D01*
X128413283Y-128990849D01*
X128304050Y-129540000D01*
X128413283Y-130089151D01*
X128724352Y-130554698D01*
X129106438Y-130810000D01*
X128724352Y-131065302D01*
X128413283Y-131530849D01*
X128304050Y-132080000D01*
X128413283Y-132629151D01*
X128724352Y-133094698D01*
X129106438Y-133350000D01*
X128724352Y-133605302D01*
X128413283Y-134070849D01*
X128304050Y-134620000D01*
X128413283Y-135169151D01*
X128724352Y-135634698D01*
X129106438Y-135890000D01*
X128724352Y-136145302D01*
X128413283Y-136610849D01*
X128304050Y-137160000D01*
X128413283Y-137709151D01*
X128724352Y-138174698D01*
X129106438Y-138430000D01*
X128724352Y-138685302D01*
X128413283Y-139150849D01*
X128304050Y-139700000D01*
X128413283Y-140249151D01*
X128724352Y-140714698D01*
X129189899Y-141025767D01*
X129739050Y-141135000D01*
X130610950Y-141135000D01*
X131160101Y-141025767D01*
X131625648Y-140714698D01*
X131936717Y-140249151D01*
X131976521Y-140049039D01*
X132828096Y-140049039D01*
X132845633Y-140131819D01*
X133115500Y-140624896D01*
X133553517Y-140977166D01*
X134093000Y-141135000D01*
X134493000Y-141135000D01*
X134493000Y-139827000D01*
X134747000Y-139827000D01*
X134747000Y-141135000D01*
X135147000Y-141135000D01*
X135686483Y-140977166D01*
X136124500Y-140624896D01*
X136394367Y-140131819D01*
X136411904Y-140049039D01*
X136289915Y-139827000D01*
X134747000Y-139827000D01*
X134493000Y-139827000D01*
X132950085Y-139827000D01*
X132828096Y-140049039D01*
X131976521Y-140049039D01*
X132045950Y-139700000D01*
X131936717Y-139150849D01*
X131625648Y-138685302D01*
X131243562Y-138430000D01*
X131625648Y-138174698D01*
X131936717Y-137709151D01*
X132045950Y-137160000D01*
X131936717Y-136610849D01*
X131625648Y-136145302D01*
X131243562Y-135890000D01*
X131625648Y-135634698D01*
X131936717Y-135169151D01*
X132045950Y-134620000D01*
X131936717Y-134070849D01*
X131625648Y-133605302D01*
X131243562Y-133350000D01*
X131625648Y-133094698D01*
X131936717Y-132629151D01*
X132045950Y-132080000D01*
X131936717Y-131530849D01*
X131625648Y-131065302D01*
X131243562Y-130810000D01*
X131625648Y-130554698D01*
X131936717Y-130089151D01*
X132045950Y-129540000D01*
X131936717Y-128990849D01*
X131625648Y-128525302D01*
X131243562Y-128270000D01*
X131625648Y-128014698D01*
X131936717Y-127549151D01*
X132045950Y-127000000D01*
X131936717Y-126450849D01*
X131625648Y-125985302D01*
X131243562Y-125730000D01*
X131625648Y-125474698D01*
X131936717Y-125009151D01*
X132045950Y-124460000D01*
X131936717Y-123910849D01*
X131625648Y-123445302D01*
X131243562Y-123190000D01*
X131625648Y-122934698D01*
X131936717Y-122469151D01*
X132045950Y-121920000D01*
X131936717Y-121370849D01*
X131625648Y-120905302D01*
X131243562Y-120650000D01*
X131625648Y-120394698D01*
X131936717Y-119929151D01*
X132045950Y-119380000D01*
X131936717Y-118830849D01*
X131625648Y-118365302D01*
X131243562Y-118110000D01*
X131625648Y-117854698D01*
X131936717Y-117389151D01*
X132045950Y-116840000D01*
X131936717Y-116290849D01*
X131625648Y-115825302D01*
X131243562Y-115570000D01*
X131625648Y-115314698D01*
X131936717Y-114849151D01*
X132045950Y-114300000D01*
X131937907Y-113756831D01*
X132857093Y-113756831D01*
X132749050Y-114300000D01*
X132858283Y-114849151D01*
X133169352Y-115314698D01*
X133551438Y-115570000D01*
X133169352Y-115825302D01*
X132858283Y-116290849D01*
X132749050Y-116840000D01*
X132858283Y-117389151D01*
X133169352Y-117854698D01*
X133551438Y-118110000D01*
X133169352Y-118365302D01*
X132858283Y-118830849D01*
X132749050Y-119380000D01*
X132858283Y-119929151D01*
X133169352Y-120394698D01*
X133551438Y-120650000D01*
X133169352Y-120905302D01*
X132858283Y-121370849D01*
X132749050Y-121920000D01*
X132858283Y-122469151D01*
X133169352Y-122934698D01*
X133551438Y-123190000D01*
X133169352Y-123445302D01*
X132858283Y-123910849D01*
X132749050Y-124460000D01*
X132858283Y-125009151D01*
X133169352Y-125474698D01*
X133551438Y-125730000D01*
X133169352Y-125985302D01*
X132858283Y-126450849D01*
X132749050Y-127000000D01*
X132858283Y-127549151D01*
X133169352Y-128014698D01*
X133551438Y-128270000D01*
X133169352Y-128525302D01*
X132858283Y-128990849D01*
X132749050Y-129540000D01*
X132858283Y-130089151D01*
X133169352Y-130554698D01*
X133551438Y-130810000D01*
X133169352Y-131065302D01*
X132858283Y-131530849D01*
X132749050Y-132080000D01*
X132858283Y-132629151D01*
X133169352Y-133094698D01*
X133551438Y-133350000D01*
X133169352Y-133605302D01*
X132858283Y-134070849D01*
X132749050Y-134620000D01*
X132858283Y-135169151D01*
X133169352Y-135634698D01*
X133551438Y-135890000D01*
X133169352Y-136145302D01*
X132858283Y-136610849D01*
X132749050Y-137160000D01*
X132858283Y-137709151D01*
X133169352Y-138174698D01*
X133547707Y-138427507D01*
X133115500Y-138775104D01*
X132845633Y-139268181D01*
X132828096Y-139350961D01*
X132950085Y-139573000D01*
X134493000Y-139573000D01*
X134493000Y-139553000D01*
X134747000Y-139553000D01*
X134747000Y-139573000D01*
X136289915Y-139573000D01*
X136411904Y-139350961D01*
X136394367Y-139268181D01*
X136124500Y-138775104D01*
X135692293Y-138427507D01*
X136070648Y-138174698D01*
X136381717Y-137709151D01*
X136490950Y-137160000D01*
X136381717Y-136610849D01*
X136070648Y-136145302D01*
X135688562Y-135890000D01*
X136070648Y-135634698D01*
X136381717Y-135169151D01*
X136490950Y-134620000D01*
X136381717Y-134070849D01*
X136070648Y-133605302D01*
X135688562Y-133350000D01*
X136070648Y-133094698D01*
X136381717Y-132629151D01*
X136490950Y-132080000D01*
X136381717Y-131530849D01*
X136070648Y-131065302D01*
X135688562Y-130810000D01*
X136070648Y-130554698D01*
X136381717Y-130089151D01*
X136490950Y-129540000D01*
X136381717Y-128990849D01*
X136070648Y-128525302D01*
X135688562Y-128270000D01*
X136070648Y-128014698D01*
X136381717Y-127549151D01*
X136490950Y-127000000D01*
X136381717Y-126450849D01*
X136070648Y-125985302D01*
X135688562Y-125730000D01*
X136070648Y-125474698D01*
X136381717Y-125009151D01*
X136490950Y-124460000D01*
X136381717Y-123910849D01*
X136070648Y-123445302D01*
X135688562Y-123190000D01*
X136070648Y-122934698D01*
X136381717Y-122469151D01*
X136404497Y-122354628D01*
X136541728Y-122411612D01*
X136913694Y-122411936D01*
X137257470Y-122269891D01*
X137520719Y-122007101D01*
X137663365Y-121663573D01*
X137663689Y-121291607D01*
X137521644Y-120947831D01*
X137465127Y-120891215D01*
X137465127Y-113868527D01*
X137409057Y-113586642D01*
X137249382Y-113347672D01*
X137156595Y-113254885D01*
X137224276Y-113254944D01*
X137568052Y-113112899D01*
X137831301Y-112850109D01*
X137973947Y-112506581D01*
X137974271Y-112134615D01*
X137832226Y-111790839D01*
X137775709Y-111734223D01*
X137775709Y-110662001D01*
X137934855Y-110502855D01*
X138094530Y-110263885D01*
X138150600Y-109982000D01*
X138150600Y-108214008D01*
X138882779Y-108214008D01*
X138845105Y-108251616D01*
X138702459Y-108595144D01*
X138702135Y-108967110D01*
X138844180Y-109310886D01*
X139106970Y-109574135D01*
X139450498Y-109716781D01*
X139822464Y-109717105D01*
X140166240Y-109575060D01*
X140429489Y-109312270D01*
X140572135Y-108968742D01*
X140572205Y-108888745D01*
X141215288Y-108245662D01*
X141374963Y-108006692D01*
X141431033Y-107724807D01*
X141431033Y-105431167D01*
X141486625Y-105375672D01*
X141629271Y-105032144D01*
X141629595Y-104660178D01*
X141487550Y-104316402D01*
X141224760Y-104053153D01*
X140881232Y-103910507D01*
X140823100Y-103910456D01*
X140823100Y-102934699D01*
X140767030Y-102652814D01*
X140607355Y-102413844D01*
X140079261Y-101885750D01*
X143415000Y-101885750D01*
X143415000Y-102351310D01*
X143511673Y-102584699D01*
X143690302Y-102763327D01*
X143923691Y-102860000D01*
X144514250Y-102860000D01*
X144673000Y-102701250D01*
X144673000Y-101727000D01*
X143573750Y-101727000D01*
X143415000Y-101885750D01*
X140079261Y-101885750D01*
X139900011Y-101706500D01*
X139661041Y-101546825D01*
X139379156Y-101490755D01*
X136467440Y-101490755D01*
X136467440Y-100848690D01*
X143415000Y-100848690D01*
X143415000Y-101314250D01*
X143573750Y-101473000D01*
X144673000Y-101473000D01*
X144673000Y-100498750D01*
X144927000Y-100498750D01*
X144927000Y-101473000D01*
X144947000Y-101473000D01*
X144947000Y-101727000D01*
X144927000Y-101727000D01*
X144927000Y-102701250D01*
X145085750Y-102860000D01*
X145676309Y-102860000D01*
X145909698Y-102763327D01*
X146050936Y-102622090D01*
X146085910Y-102676441D01*
X146298110Y-102821431D01*
X146411000Y-102844292D01*
X146411000Y-104151651D01*
X146408927Y-104162073D01*
X146408927Y-110463722D01*
X146476598Y-110803928D01*
X146638114Y-111045654D01*
X146669309Y-111092340D01*
X146991119Y-111414150D01*
X146991119Y-122885399D01*
X147058790Y-123225605D01*
X147178658Y-123405000D01*
X147251501Y-123514017D01*
X147556501Y-123819017D01*
X147844913Y-124011728D01*
X148069337Y-124056369D01*
X147989050Y-124460000D01*
X148098283Y-125009151D01*
X148409352Y-125474698D01*
X148791438Y-125730000D01*
X148409352Y-125985302D01*
X148098283Y-126450849D01*
X147989050Y-127000000D01*
X148060266Y-127358024D01*
X147569864Y-127848426D01*
X147410189Y-128087396D01*
X147354119Y-128369281D01*
X147354119Y-137801651D01*
X147410189Y-138083536D01*
X147569864Y-138322506D01*
X148177049Y-138929691D01*
X148224757Y-138961568D01*
X148098283Y-139150849D01*
X147989050Y-139700000D01*
X148098283Y-140249151D01*
X148409352Y-140714698D01*
X148874899Y-141025767D01*
X149424050Y-141135000D01*
X150295950Y-141135000D01*
X150845101Y-141025767D01*
X151310648Y-140714698D01*
X151621717Y-140249151D01*
X151661521Y-140049039D01*
X163708096Y-140049039D01*
X163868959Y-140437423D01*
X164244866Y-140852389D01*
X164750959Y-141091914D01*
X164973000Y-140970629D01*
X164973000Y-139827000D01*
X165227000Y-139827000D01*
X165227000Y-140970629D01*
X165449041Y-141091914D01*
X165955134Y-140852389D01*
X166331041Y-140437423D01*
X166491904Y-140049039D01*
X166369915Y-139827000D01*
X165227000Y-139827000D01*
X164973000Y-139827000D01*
X163830085Y-139827000D01*
X163708096Y-140049039D01*
X151661521Y-140049039D01*
X151730950Y-139700000D01*
X151713327Y-139611403D01*
X152193715Y-139611403D01*
X152475600Y-139555333D01*
X152714570Y-139395658D01*
X153523868Y-138586360D01*
X153683543Y-138347390D01*
X153699515Y-138267091D01*
X153795205Y-138171568D01*
X153937851Y-137828040D01*
X153938122Y-137516890D01*
X160102524Y-137516890D01*
X160272355Y-137926924D01*
X160662642Y-138355183D01*
X161187108Y-138601486D01*
X161417000Y-138480819D01*
X161417000Y-137287000D01*
X161671000Y-137287000D01*
X161671000Y-138480819D01*
X161900892Y-138601486D01*
X162425358Y-138355183D01*
X162815645Y-137926924D01*
X162985476Y-137516890D01*
X162981333Y-137509039D01*
X163708096Y-137509039D01*
X163868959Y-137897423D01*
X164244866Y-138312389D01*
X164493367Y-138430000D01*
X164244866Y-138547611D01*
X163868959Y-138962577D01*
X163708096Y-139350961D01*
X163830085Y-139573000D01*
X164973000Y-139573000D01*
X164973000Y-137287000D01*
X165227000Y-137287000D01*
X165227000Y-139573000D01*
X166369915Y-139573000D01*
X166491904Y-139350961D01*
X166331041Y-138962577D01*
X165955134Y-138547611D01*
X165706633Y-138430000D01*
X165955134Y-138312389D01*
X166331041Y-137897423D01*
X166491904Y-137509039D01*
X166369915Y-137287000D01*
X165227000Y-137287000D01*
X164973000Y-137287000D01*
X163830085Y-137287000D01*
X163708096Y-137509039D01*
X162981333Y-137509039D01*
X162864155Y-137287000D01*
X161671000Y-137287000D01*
X161417000Y-137287000D01*
X160223845Y-137287000D01*
X160102524Y-137516890D01*
X153938122Y-137516890D01*
X153938175Y-137456074D01*
X153796130Y-137112298D01*
X153533340Y-136849049D01*
X153204216Y-136712384D01*
X155063211Y-134853389D01*
X155134298Y-134747000D01*
X155222886Y-134614419D01*
X155278956Y-134332534D01*
X155278956Y-133770000D01*
X160046560Y-133770000D01*
X160046560Y-135470000D01*
X160090838Y-135705317D01*
X160229910Y-135921441D01*
X160442110Y-136066431D01*
X160550107Y-136088301D01*
X160272355Y-136393076D01*
X160102524Y-136803110D01*
X160223845Y-137033000D01*
X161417000Y-137033000D01*
X161417000Y-137013000D01*
X161671000Y-137013000D01*
X161671000Y-137033000D01*
X162864155Y-137033000D01*
X162985476Y-136803110D01*
X162815645Y-136393076D01*
X162539499Y-136090063D01*
X162629317Y-136073162D01*
X162845441Y-135934090D01*
X162990431Y-135721890D01*
X163041440Y-135470000D01*
X163041440Y-134620000D01*
X163636887Y-134620000D01*
X163746120Y-135169151D01*
X164057189Y-135634698D01*
X164461703Y-135904986D01*
X164244866Y-136007611D01*
X163868959Y-136422577D01*
X163708096Y-136810961D01*
X163830085Y-137033000D01*
X164973000Y-137033000D01*
X164973000Y-137013000D01*
X165227000Y-137013000D01*
X165227000Y-137033000D01*
X166369915Y-137033000D01*
X166491904Y-136810961D01*
X166331041Y-136422577D01*
X165955134Y-136007611D01*
X165738297Y-135904986D01*
X166142811Y-135634698D01*
X166453880Y-135169151D01*
X166510252Y-134885750D01*
X169174000Y-134885750D01*
X169174000Y-135476309D01*
X169270673Y-135709698D01*
X169449301Y-135888327D01*
X169682690Y-135985000D01*
X170148250Y-135985000D01*
X170307000Y-135826250D01*
X170307000Y-134727000D01*
X169332750Y-134727000D01*
X169174000Y-134885750D01*
X166510252Y-134885750D01*
X166563113Y-134620000D01*
X166453880Y-134070849D01*
X166142811Y-133605302D01*
X165998535Y-133508899D01*
X166135317Y-133483162D01*
X166351441Y-133344090D01*
X166496431Y-133131890D01*
X166547440Y-132880000D01*
X166547440Y-131280000D01*
X166503162Y-131044683D01*
X166364090Y-130828559D01*
X166151890Y-130683569D01*
X165900000Y-130632560D01*
X164300000Y-130632560D01*
X164064683Y-130676838D01*
X163848559Y-130815910D01*
X163703569Y-131028110D01*
X163652560Y-131280000D01*
X163652560Y-132880000D01*
X163696838Y-133115317D01*
X163835910Y-133331441D01*
X164048110Y-133476431D01*
X164203089Y-133507815D01*
X164057189Y-133605302D01*
X163746120Y-134070849D01*
X163636887Y-134620000D01*
X163041440Y-134620000D01*
X163041440Y-133770000D01*
X162997162Y-133534683D01*
X162858090Y-133318559D01*
X162645890Y-133173569D01*
X162394000Y-133122560D01*
X160694000Y-133122560D01*
X160458683Y-133166838D01*
X160242559Y-133305910D01*
X160097569Y-133518110D01*
X160046560Y-133770000D01*
X155278956Y-133770000D01*
X155278956Y-130276169D01*
X156582096Y-128973029D01*
X156607808Y-128934548D01*
X156741771Y-128734059D01*
X156757743Y-128653760D01*
X156853433Y-128558237D01*
X156996079Y-128214709D01*
X156996403Y-127842743D01*
X156854358Y-127498967D01*
X156695165Y-127339496D01*
X156845071Y-127189851D01*
X156987717Y-126846323D01*
X156988041Y-126474357D01*
X156845996Y-126130581D01*
X156583206Y-125867332D01*
X156239678Y-125724686D01*
X156102968Y-125724567D01*
X156034765Y-125678995D01*
X155752880Y-125622925D01*
X155580785Y-125622925D01*
X156007110Y-125196600D01*
X156341507Y-125196600D01*
X156348854Y-125214380D01*
X156723647Y-125589827D01*
X157213587Y-125793268D01*
X157744086Y-125793731D01*
X158234380Y-125591146D01*
X158609827Y-125216353D01*
X158743314Y-124894882D01*
X158850200Y-125152929D01*
X159085812Y-125214583D01*
X159840395Y-124460000D01*
X159826253Y-124445858D01*
X160005858Y-124266253D01*
X160020000Y-124280395D01*
X160774583Y-123525812D01*
X160712929Y-123290200D01*
X160433688Y-123191917D01*
X160774380Y-123051146D01*
X161149827Y-122676353D01*
X161353268Y-122186413D01*
X161353731Y-121655914D01*
X161151146Y-121165620D01*
X160776353Y-120790173D01*
X160438554Y-120649906D01*
X160774380Y-120511146D01*
X161149827Y-120136353D01*
X161353268Y-119646413D01*
X161353731Y-119115914D01*
X161151146Y-118625620D01*
X160776353Y-118250173D01*
X160438554Y-118109906D01*
X160774380Y-117971146D01*
X161149827Y-117596353D01*
X161353268Y-117106413D01*
X161353731Y-116575914D01*
X161151146Y-116085620D01*
X160776353Y-115710173D01*
X160438554Y-115569906D01*
X160774380Y-115431146D01*
X161149827Y-115056353D01*
X161353268Y-114566413D01*
X161353525Y-114272394D01*
X161428893Y-114287386D01*
X163410882Y-114287386D01*
X163692767Y-114231316D01*
X163931737Y-114071641D01*
X164910043Y-113093335D01*
X165364086Y-113093731D01*
X165854380Y-112891146D01*
X166229827Y-112516353D01*
X166370094Y-112178554D01*
X166508854Y-112514380D01*
X166883647Y-112889827D01*
X167373587Y-113093268D01*
X167904086Y-113093731D01*
X168394380Y-112891146D01*
X168769827Y-112516353D01*
X168903314Y-112194882D01*
X169010200Y-112452929D01*
X169245812Y-112514583D01*
X170000395Y-111760000D01*
X169245812Y-111005417D01*
X169010200Y-111067071D01*
X168911917Y-111346312D01*
X168771146Y-111005620D01*
X168396353Y-110630173D01*
X168058554Y-110489906D01*
X168394380Y-110351146D01*
X168769827Y-109976353D01*
X168910094Y-109638554D01*
X169048854Y-109974380D01*
X169423647Y-110349827D01*
X169745118Y-110483314D01*
X169487071Y-110590200D01*
X169425417Y-110825812D01*
X170180000Y-111580395D01*
X170194143Y-111566253D01*
X170373748Y-111745858D01*
X170359605Y-111760000D01*
X170373748Y-111774143D01*
X170194143Y-111953748D01*
X170180000Y-111939605D01*
X169425417Y-112694188D01*
X169487071Y-112929800D01*
X169987480Y-113105927D01*
X170517199Y-113077148D01*
X170714040Y-112995614D01*
X170714040Y-115001294D01*
X170770110Y-115283179D01*
X170929785Y-115522149D01*
X171493104Y-116085468D01*
X171568498Y-116135845D01*
X171386732Y-116573587D01*
X171386269Y-117104086D01*
X171588854Y-117594380D01*
X171963647Y-117969827D01*
X172118337Y-118034060D01*
X172021500Y-118034060D01*
X171786183Y-118078338D01*
X171570059Y-118217410D01*
X171425069Y-118429610D01*
X171374060Y-118681500D01*
X171374060Y-120078500D01*
X171418338Y-120313817D01*
X171557410Y-120529941D01*
X171769610Y-120674931D01*
X172021500Y-120725940D01*
X172117884Y-120725940D01*
X171965620Y-120788854D01*
X171590173Y-121163647D01*
X171386732Y-121653587D01*
X171386269Y-122184086D01*
X171563978Y-122614175D01*
X171481710Y-122669145D01*
X170854620Y-123296235D01*
X170446413Y-123126732D01*
X169915914Y-123126269D01*
X169425620Y-123328854D01*
X169050173Y-123703647D01*
X168909906Y-124041446D01*
X168771146Y-123705620D01*
X168396353Y-123330173D01*
X167906413Y-123126732D01*
X167375914Y-123126269D01*
X167261610Y-123173498D01*
X167261610Y-120101978D01*
X167193939Y-119761772D01*
X167001228Y-119473360D01*
X166897868Y-119370000D01*
X167334250Y-119370000D01*
X167493000Y-119211250D01*
X167493000Y-118237000D01*
X167747000Y-118237000D01*
X167747000Y-119211250D01*
X167905750Y-119370000D01*
X168496309Y-119370000D01*
X168729698Y-119273327D01*
X168908327Y-119094699D01*
X169005000Y-118861310D01*
X169005000Y-118395750D01*
X168846250Y-118237000D01*
X167747000Y-118237000D01*
X167493000Y-118237000D01*
X167473000Y-118237000D01*
X167473000Y-117983000D01*
X167493000Y-117983000D01*
X167493000Y-117008750D01*
X167747000Y-117008750D01*
X167747000Y-117983000D01*
X168846250Y-117983000D01*
X169005000Y-117824250D01*
X169005000Y-117358690D01*
X168908327Y-117125301D01*
X168729698Y-116946673D01*
X168496309Y-116850000D01*
X167905750Y-116850000D01*
X167747000Y-117008750D01*
X167493000Y-117008750D01*
X167334250Y-116850000D01*
X166743691Y-116850000D01*
X166510302Y-116946673D01*
X166369064Y-117087910D01*
X166334090Y-117033559D01*
X166121890Y-116888569D01*
X166018105Y-116867552D01*
X165893117Y-116565057D01*
X165630327Y-116301808D01*
X165286799Y-116159162D01*
X164914833Y-116158838D01*
X164571057Y-116300883D01*
X164307808Y-116563673D01*
X164179170Y-116873467D01*
X164134683Y-116881838D01*
X163918559Y-117020910D01*
X163773569Y-117233110D01*
X163722560Y-117485000D01*
X163722560Y-118735000D01*
X163766838Y-118970317D01*
X163905910Y-119186441D01*
X164118110Y-119331431D01*
X164370000Y-119382440D01*
X164427540Y-119382440D01*
X164491382Y-119477986D01*
X165483610Y-120470214D01*
X165483610Y-123175396D01*
X165366413Y-123126732D01*
X164835914Y-123126269D01*
X164345620Y-123328854D01*
X163970173Y-123703647D01*
X163829906Y-124041446D01*
X163691146Y-123705620D01*
X163316353Y-123330173D01*
X162826413Y-123126732D01*
X162295914Y-123126269D01*
X161805620Y-123328854D01*
X161430173Y-123703647D01*
X161296686Y-124025118D01*
X161189800Y-123767071D01*
X160954188Y-123705417D01*
X160199605Y-124460000D01*
X160954188Y-125214583D01*
X161189800Y-125152929D01*
X161288083Y-124873688D01*
X161428854Y-125214380D01*
X161803647Y-125589827D01*
X162141446Y-125730094D01*
X161805620Y-125868854D01*
X161430173Y-126243647D01*
X161289906Y-126581446D01*
X161151146Y-126245620D01*
X160776353Y-125870173D01*
X160454882Y-125736686D01*
X160712929Y-125629800D01*
X160774583Y-125394188D01*
X160020000Y-124639605D01*
X159265417Y-125394188D01*
X159327071Y-125629800D01*
X159606312Y-125728083D01*
X159265620Y-125868854D01*
X158890173Y-126243647D01*
X158686732Y-126733587D01*
X158686269Y-127264086D01*
X158888854Y-127754380D01*
X159263647Y-128129827D01*
X159753587Y-128333268D01*
X160284086Y-128333731D01*
X160774380Y-128131146D01*
X161149827Y-127756353D01*
X161290094Y-127418554D01*
X161428854Y-127754380D01*
X161803647Y-128129827D01*
X162293587Y-128333268D01*
X162824086Y-128333731D01*
X163314380Y-128131146D01*
X163689827Y-127756353D01*
X163830094Y-127418554D01*
X163968854Y-127754380D01*
X164343647Y-128129827D01*
X164833587Y-128333268D01*
X165364086Y-128333731D01*
X165671156Y-128206852D01*
X165671156Y-129216433D01*
X165727226Y-129498318D01*
X165886901Y-129737288D01*
X168503273Y-132353660D01*
X168503273Y-133350000D01*
X168559343Y-133631885D01*
X168719018Y-133870855D01*
X168957988Y-134030530D01*
X169174000Y-134073497D01*
X169174000Y-134314250D01*
X169332750Y-134473000D01*
X170307000Y-134473000D01*
X170307000Y-134453000D01*
X170561000Y-134453000D01*
X170561000Y-134473000D01*
X171439097Y-134473000D01*
X171450085Y-134493000D01*
X172593000Y-134493000D01*
X172593000Y-134473000D01*
X172847000Y-134473000D01*
X172847000Y-134493000D01*
X172867000Y-134493000D01*
X172867000Y-134747000D01*
X172847000Y-134747000D01*
X172847000Y-134767000D01*
X172593000Y-134767000D01*
X172593000Y-134747000D01*
X171555250Y-134747000D01*
X171535250Y-134727000D01*
X170561000Y-134727000D01*
X170561000Y-135826250D01*
X170719750Y-135985000D01*
X171185310Y-135985000D01*
X171418699Y-135888327D01*
X171597327Y-135709698D01*
X171663455Y-135550050D01*
X171864866Y-135772389D01*
X172081703Y-135875014D01*
X171677189Y-136145302D01*
X171366120Y-136610849D01*
X171256887Y-137160000D01*
X171366120Y-137709151D01*
X171677189Y-138174698D01*
X172059275Y-138430000D01*
X171677189Y-138685302D01*
X171366120Y-139150849D01*
X171256887Y-139700000D01*
X171366120Y-140249151D01*
X171677189Y-140714698D01*
X172142736Y-141025767D01*
X172691887Y-141135000D01*
X172748113Y-141135000D01*
X173297264Y-141025767D01*
X173762811Y-140714698D01*
X174073880Y-140249151D01*
X174183113Y-139700000D01*
X174113198Y-139348512D01*
X174701405Y-138760305D01*
X174713474Y-138742243D01*
X174861080Y-138521335D01*
X174917150Y-138239450D01*
X174917150Y-134019249D01*
X174861080Y-133737364D01*
X174701405Y-133498394D01*
X174032156Y-132829145D01*
X173968616Y-132786689D01*
X174073880Y-132629151D01*
X174183113Y-132080000D01*
X174073880Y-131530849D01*
X173762811Y-131065302D01*
X173297264Y-130754233D01*
X172748113Y-130645000D01*
X172691887Y-130645000D01*
X172142736Y-130754233D01*
X171677189Y-131065302D01*
X171653347Y-131100984D01*
X171523090Y-130898559D01*
X171310890Y-130753569D01*
X171059000Y-130702560D01*
X170293796Y-130702560D01*
X168530428Y-128939192D01*
X168530428Y-128328615D01*
X169549827Y-129348014D01*
X169788797Y-129507689D01*
X170070682Y-129563759D01*
X174855944Y-129563759D01*
X181775113Y-136482928D01*
X181775113Y-138061713D01*
X181831183Y-138343598D01*
X181990858Y-138582568D01*
X182714280Y-139305990D01*
X182635907Y-139700000D01*
X182748946Y-140268285D01*
X183070853Y-140750054D01*
X183552622Y-141071961D01*
X184120907Y-141185000D01*
X184179093Y-141185000D01*
X184747378Y-141071961D01*
X185229147Y-140750054D01*
X185551054Y-140268285D01*
X185664093Y-139700000D01*
X185551054Y-139131715D01*
X185229147Y-138649946D01*
X184899974Y-138430000D01*
X185229147Y-138210054D01*
X185551054Y-137728285D01*
X185664093Y-137160000D01*
X185551054Y-136591715D01*
X185229147Y-136109946D01*
X184899974Y-135890000D01*
X185229147Y-135670054D01*
X185551054Y-135188285D01*
X185664093Y-134620000D01*
X185551054Y-134051715D01*
X185229147Y-133569946D01*
X184899974Y-133350000D01*
X185229147Y-133130054D01*
X185551054Y-132648285D01*
X185664093Y-132080000D01*
X185551054Y-131511715D01*
X185229147Y-131029946D01*
X184899974Y-130810000D01*
X185229147Y-130590054D01*
X185551054Y-130108285D01*
X185664093Y-129540000D01*
X185551054Y-128971715D01*
X185229147Y-128489946D01*
X184899974Y-128270000D01*
X185229147Y-128050054D01*
X185551054Y-127568285D01*
X185664093Y-127000000D01*
X185551054Y-126431715D01*
X185229147Y-125949946D01*
X184899974Y-125730000D01*
X185229147Y-125510054D01*
X185551054Y-125028285D01*
X185664093Y-124460000D01*
X185551054Y-123891715D01*
X185229147Y-123409946D01*
X184899974Y-123190000D01*
X185229147Y-122970054D01*
X185551054Y-122488285D01*
X185664093Y-121920000D01*
X185551054Y-121351715D01*
X185229147Y-120869946D01*
X184899974Y-120650000D01*
X185229147Y-120430054D01*
X185551054Y-119948285D01*
X185664093Y-119380000D01*
X185551054Y-118811715D01*
X185229147Y-118329946D01*
X184899974Y-118110000D01*
X185229147Y-117890054D01*
X185551054Y-117408285D01*
X185664093Y-116840000D01*
X185551054Y-116271715D01*
X185229147Y-115789946D01*
X184899974Y-115570000D01*
X185229147Y-115350054D01*
X185551054Y-114868285D01*
X185664093Y-114300000D01*
X185551054Y-113731715D01*
X185229147Y-113249946D01*
X184899974Y-113030000D01*
X185229147Y-112810054D01*
X185551054Y-112328285D01*
X185664093Y-111760000D01*
X185551054Y-111191715D01*
X185229147Y-110709946D01*
X184899974Y-110490000D01*
X185229147Y-110270054D01*
X185551054Y-109788285D01*
X185664093Y-109220000D01*
X185551054Y-108651715D01*
X185229147Y-108169946D01*
X185187548Y-108142150D01*
X185235317Y-108133162D01*
X185451441Y-107994090D01*
X185596431Y-107781890D01*
X185647440Y-107530000D01*
X185647440Y-105830000D01*
X185603162Y-105594683D01*
X185464090Y-105378559D01*
X185251890Y-105233569D01*
X185000000Y-105182560D01*
X183300000Y-105182560D01*
X183064683Y-105226838D01*
X182848559Y-105365910D01*
X182703569Y-105578110D01*
X182652560Y-105830000D01*
X182652560Y-107530000D01*
X182696838Y-107765317D01*
X182835910Y-107981441D01*
X183048110Y-108126431D01*
X183115541Y-108140086D01*
X183070853Y-108169946D01*
X182748946Y-108651715D01*
X182635907Y-109220000D01*
X182748946Y-109788285D01*
X183070853Y-110270054D01*
X183400026Y-110490000D01*
X183070853Y-110709946D01*
X182748946Y-111191715D01*
X182635907Y-111760000D01*
X182748946Y-112328285D01*
X183070853Y-112810054D01*
X183400026Y-113030000D01*
X183070853Y-113249946D01*
X182748946Y-113731715D01*
X182635907Y-114300000D01*
X182748946Y-114868285D01*
X183070853Y-115350054D01*
X183400026Y-115570000D01*
X183070853Y-115789946D01*
X182748946Y-116271715D01*
X182635907Y-116840000D01*
X182748946Y-117408285D01*
X183070853Y-117890054D01*
X183400026Y-118110000D01*
X183070853Y-118329946D01*
X182748946Y-118811715D01*
X182635907Y-119380000D01*
X182748946Y-119948285D01*
X183070853Y-120430054D01*
X183400026Y-120650000D01*
X183070853Y-120869946D01*
X182748946Y-121351715D01*
X182635907Y-121920000D01*
X182748946Y-122488285D01*
X183070853Y-122970054D01*
X183400026Y-123190000D01*
X183070853Y-123409946D01*
X182748946Y-123891715D01*
X182635907Y-124460000D01*
X182748946Y-125028285D01*
X183070853Y-125510054D01*
X183400026Y-125730000D01*
X183070853Y-125949946D01*
X182748946Y-126431715D01*
X182635907Y-127000000D01*
X182748946Y-127568285D01*
X183070853Y-128050054D01*
X183400026Y-128270000D01*
X183070853Y-128489946D01*
X182748946Y-128971715D01*
X182635907Y-129540000D01*
X182645652Y-129588989D01*
X179470673Y-129588989D01*
X175996600Y-126114916D01*
X175996600Y-125598493D01*
X176014380Y-125591146D01*
X176389827Y-125216353D01*
X176593268Y-124726413D01*
X176593731Y-124195914D01*
X176423734Y-123784489D01*
X176533935Y-123710855D01*
X177010119Y-123234671D01*
X177050194Y-123174694D01*
X177169794Y-122995701D01*
X177225864Y-122713816D01*
X177225864Y-116074674D01*
X177169794Y-115792789D01*
X177010119Y-115553819D01*
X176500058Y-115043758D01*
X176417862Y-114988836D01*
X176593268Y-114566413D01*
X176593731Y-114035914D01*
X176391146Y-113545620D01*
X176016353Y-113170173D01*
X175678554Y-113029906D01*
X176014380Y-112891146D01*
X176389827Y-112516353D01*
X176593268Y-112026413D01*
X176593731Y-111495914D01*
X176391146Y-111005620D01*
X176016353Y-110630173D01*
X175661852Y-110482971D01*
X175686838Y-110422799D01*
X175687162Y-110050833D01*
X175591892Y-109820261D01*
X175682595Y-109729716D01*
X175825241Y-109386188D01*
X175825565Y-109014222D01*
X175683520Y-108670446D01*
X175420730Y-108407197D01*
X175077202Y-108264551D01*
X174705236Y-108264227D01*
X174361460Y-108406272D01*
X174098211Y-108669062D01*
X174016507Y-108865825D01*
X173851146Y-108465620D01*
X173476353Y-108090173D01*
X173190225Y-107971362D01*
X173304452Y-107696274D01*
X173304522Y-107616277D01*
X173449267Y-107471532D01*
X174262331Y-107471532D01*
X174317826Y-107527124D01*
X174661354Y-107669770D01*
X175033320Y-107670094D01*
X175377096Y-107528049D01*
X175640345Y-107265259D01*
X175782991Y-106921731D01*
X175783201Y-106680000D01*
X178825907Y-106680000D01*
X178938946Y-107248285D01*
X179260853Y-107730054D01*
X179590026Y-107950000D01*
X179260853Y-108169946D01*
X178938946Y-108651715D01*
X178825907Y-109220000D01*
X178938946Y-109788285D01*
X179260853Y-110270054D01*
X179590026Y-110490000D01*
X179260853Y-110709946D01*
X178938946Y-111191715D01*
X178825907Y-111760000D01*
X178938946Y-112328285D01*
X179260853Y-112810054D01*
X179590026Y-113030000D01*
X179260853Y-113249946D01*
X178938946Y-113731715D01*
X178825907Y-114300000D01*
X178938946Y-114868285D01*
X179260853Y-115350054D01*
X179590026Y-115570000D01*
X179260853Y-115789946D01*
X178938946Y-116271715D01*
X178825907Y-116840000D01*
X178938946Y-117408285D01*
X179260853Y-117890054D01*
X179590026Y-118110000D01*
X179260853Y-118329946D01*
X178938946Y-118811715D01*
X178825907Y-119380000D01*
X178938946Y-119948285D01*
X179260853Y-120430054D01*
X179590026Y-120650000D01*
X179260853Y-120869946D01*
X178938946Y-121351715D01*
X178825907Y-121920000D01*
X178938946Y-122488285D01*
X179260853Y-122970054D01*
X179302452Y-122997850D01*
X179254683Y-123006838D01*
X179038559Y-123145910D01*
X178893569Y-123358110D01*
X178842560Y-123610000D01*
X178842560Y-125310000D01*
X178886838Y-125545317D01*
X179025910Y-125761441D01*
X179238110Y-125906431D01*
X179490000Y-125957440D01*
X181190000Y-125957440D01*
X181425317Y-125913162D01*
X181641441Y-125774090D01*
X181786431Y-125561890D01*
X181837440Y-125310000D01*
X181837440Y-123610000D01*
X181793162Y-123374683D01*
X181654090Y-123158559D01*
X181441890Y-123013569D01*
X181374459Y-122999914D01*
X181419147Y-122970054D01*
X181741054Y-122488285D01*
X181854093Y-121920000D01*
X181741054Y-121351715D01*
X181419147Y-120869946D01*
X181089974Y-120650000D01*
X181419147Y-120430054D01*
X181741054Y-119948285D01*
X181854093Y-119380000D01*
X181741054Y-118811715D01*
X181419147Y-118329946D01*
X181089974Y-118110000D01*
X181419147Y-117890054D01*
X181741054Y-117408285D01*
X181854093Y-116840000D01*
X181741054Y-116271715D01*
X181419147Y-115789946D01*
X181089974Y-115570000D01*
X181419147Y-115350054D01*
X181741054Y-114868285D01*
X181854093Y-114300000D01*
X181741054Y-113731715D01*
X181419147Y-113249946D01*
X181089974Y-113030000D01*
X181419147Y-112810054D01*
X181741054Y-112328285D01*
X181854093Y-111760000D01*
X181741054Y-111191715D01*
X181419147Y-110709946D01*
X181089974Y-110490000D01*
X181419147Y-110270054D01*
X181741054Y-109788285D01*
X181854093Y-109220000D01*
X181741054Y-108651715D01*
X181419147Y-108169946D01*
X181089974Y-107950000D01*
X181419147Y-107730054D01*
X181741054Y-107248285D01*
X181854093Y-106680000D01*
X181741054Y-106111715D01*
X181419147Y-105629946D01*
X180937378Y-105308039D01*
X180369093Y-105195000D01*
X180310907Y-105195000D01*
X179742622Y-105308039D01*
X179260853Y-105629946D01*
X178938946Y-106111715D01*
X178825907Y-106680000D01*
X175783201Y-106680000D01*
X175783315Y-106549765D01*
X175641270Y-106205989D01*
X175378480Y-105942740D01*
X175034952Y-105800094D01*
X174662986Y-105799770D01*
X174319210Y-105941815D01*
X174262594Y-105998332D01*
X173144162Y-105998332D01*
X173144157Y-105998331D01*
X172909040Y-106045099D01*
X172862272Y-106054402D01*
X172686275Y-106172000D01*
X172623302Y-106214077D01*
X172262998Y-106574381D01*
X172184447Y-106574313D01*
X171840671Y-106716358D01*
X171577422Y-106979148D01*
X171434776Y-107322676D01*
X171434452Y-107694642D01*
X171576497Y-108038418D01*
X171795937Y-108258241D01*
X171590173Y-108463647D01*
X171449906Y-108801446D01*
X171311146Y-108465620D01*
X170936353Y-108090173D01*
X170446413Y-107886732D01*
X169915914Y-107886269D01*
X169425620Y-108088854D01*
X169050173Y-108463647D01*
X168909906Y-108801446D01*
X168771146Y-108465620D01*
X168396353Y-108090173D01*
X167906413Y-107886732D01*
X167375914Y-107886269D01*
X166885620Y-108088854D01*
X166510173Y-108463647D01*
X166369906Y-108801446D01*
X166231146Y-108465620D01*
X165856353Y-108090173D01*
X165366413Y-107886732D01*
X164835914Y-107886269D01*
X164345620Y-108088854D01*
X163970173Y-108463647D01*
X163829906Y-108801446D01*
X163691146Y-108465620D01*
X163316353Y-108090173D01*
X162826413Y-107886732D01*
X162295914Y-107886269D01*
X161805620Y-108088854D01*
X161786929Y-108107513D01*
X161116287Y-107436871D01*
X160877317Y-107277196D01*
X160595432Y-107221126D01*
X159361893Y-107221126D01*
X159080008Y-107277196D01*
X158841038Y-107436871D01*
X158229145Y-108048764D01*
X158069470Y-108287734D01*
X158013400Y-108569619D01*
X158013400Y-108914890D01*
X157816090Y-109112200D01*
X151947833Y-109112200D01*
X151874777Y-109039144D01*
X152158855Y-108755065D01*
X152168135Y-108741177D01*
X152318530Y-108516095D01*
X152374600Y-108234210D01*
X152374600Y-103455822D01*
X152430192Y-103400327D01*
X152476004Y-103290000D01*
X155982560Y-103290000D01*
X155982560Y-104990000D01*
X156026838Y-105225317D01*
X156165910Y-105441441D01*
X156378110Y-105586431D01*
X156630000Y-105637440D01*
X158330000Y-105637440D01*
X158565317Y-105593162D01*
X158781441Y-105454090D01*
X158926431Y-105241890D01*
X158940086Y-105174459D01*
X158969946Y-105219147D01*
X159451715Y-105541054D01*
X160020000Y-105654093D01*
X160588285Y-105541054D01*
X161070054Y-105219147D01*
X161290000Y-104889974D01*
X161509946Y-105219147D01*
X161991715Y-105541054D01*
X162560000Y-105654093D01*
X163128285Y-105541054D01*
X163610054Y-105219147D01*
X163830000Y-104889974D01*
X164049946Y-105219147D01*
X164531715Y-105541054D01*
X165100000Y-105654093D01*
X165668285Y-105541054D01*
X166150054Y-105219147D01*
X166370000Y-104889974D01*
X166589946Y-105219147D01*
X167071715Y-105541054D01*
X167640000Y-105654093D01*
X168208285Y-105541054D01*
X168690054Y-105219147D01*
X169011961Y-104737378D01*
X169125000Y-104169093D01*
X169125000Y-104110907D01*
X169011961Y-103542622D01*
X168690054Y-103060853D01*
X168406899Y-102871655D01*
X168406924Y-102871645D01*
X168835183Y-102481358D01*
X169081486Y-101956892D01*
X168960819Y-101727000D01*
X167767000Y-101727000D01*
X167767000Y-101747000D01*
X167513000Y-101747000D01*
X167513000Y-101727000D01*
X167493000Y-101727000D01*
X167493000Y-101473000D01*
X167513000Y-101473000D01*
X167513000Y-100279845D01*
X167767000Y-100279845D01*
X167767000Y-101473000D01*
X168960819Y-101473000D01*
X169081486Y-101243108D01*
X168835183Y-100718642D01*
X168406924Y-100328355D01*
X167996890Y-100158524D01*
X167767000Y-100279845D01*
X167513000Y-100279845D01*
X167283110Y-100158524D01*
X166873076Y-100328355D01*
X166444817Y-100718642D01*
X166377702Y-100861553D01*
X166150054Y-100520853D01*
X165668285Y-100198946D01*
X165100000Y-100085907D01*
X164531715Y-100198946D01*
X164049946Y-100520853D01*
X163830000Y-100850026D01*
X163610054Y-100520853D01*
X163128285Y-100198946D01*
X162560000Y-100085907D01*
X161991715Y-100198946D01*
X161509946Y-100520853D01*
X161290000Y-100850026D01*
X161070054Y-100520853D01*
X160588285Y-100198946D01*
X160020000Y-100085907D01*
X159451715Y-100198946D01*
X158969946Y-100520853D01*
X158742298Y-100861553D01*
X158675183Y-100718642D01*
X158246924Y-100328355D01*
X157836890Y-100158524D01*
X157607000Y-100279845D01*
X157607000Y-101473000D01*
X157627000Y-101473000D01*
X157627000Y-101727000D01*
X157607000Y-101727000D01*
X157607000Y-101747000D01*
X157353000Y-101747000D01*
X157353000Y-101727000D01*
X156159181Y-101727000D01*
X156038514Y-101956892D01*
X156284817Y-102481358D01*
X156490504Y-102668808D01*
X156394683Y-102686838D01*
X156178559Y-102825910D01*
X156033569Y-103038110D01*
X155982560Y-103290000D01*
X152476004Y-103290000D01*
X152572838Y-103056799D01*
X152573162Y-102684833D01*
X152431117Y-102341057D01*
X152168327Y-102077808D01*
X151824799Y-101935162D01*
X151664310Y-101935022D01*
X151730950Y-101600000D01*
X151659960Y-101243108D01*
X156038514Y-101243108D01*
X156159181Y-101473000D01*
X157353000Y-101473000D01*
X157353000Y-100279845D01*
X157123110Y-100158524D01*
X156713076Y-100328355D01*
X156284817Y-100718642D01*
X156038514Y-101243108D01*
X151659960Y-101243108D01*
X151621717Y-101050849D01*
X151310648Y-100585302D01*
X150845101Y-100274233D01*
X150295950Y-100165000D01*
X149424050Y-100165000D01*
X148874899Y-100274233D01*
X148507992Y-100519393D01*
X148301890Y-100378569D01*
X148050000Y-100327560D01*
X146550000Y-100327560D01*
X146314683Y-100371838D01*
X146098559Y-100510910D01*
X146052031Y-100579006D01*
X145909698Y-100436673D01*
X145676309Y-100340000D01*
X145085750Y-100340000D01*
X144927000Y-100498750D01*
X144673000Y-100498750D01*
X144514250Y-100340000D01*
X143923691Y-100340000D01*
X143690302Y-100436673D01*
X143511673Y-100615301D01*
X143415000Y-100848690D01*
X136467440Y-100848690D01*
X136467440Y-100800000D01*
X136423162Y-100564683D01*
X136284090Y-100348559D01*
X136071890Y-100203569D01*
X135820000Y-100152560D01*
X133420000Y-100152560D01*
X133184683Y-100196838D01*
X132968559Y-100335910D01*
X132823569Y-100548110D01*
X132772560Y-100800000D01*
X132772560Y-102400000D01*
X132816838Y-102635317D01*
X132955910Y-102851441D01*
X133168110Y-102996431D01*
X133317074Y-103026597D01*
X133169352Y-103125302D01*
X132858283Y-103590849D01*
X132749050Y-104140000D01*
X132858283Y-104689151D01*
X133169352Y-105154698D01*
X133551438Y-105410000D01*
X133169352Y-105665302D01*
X132858283Y-106130849D01*
X132749050Y-106680000D01*
X132854948Y-107212385D01*
X131940052Y-107212385D01*
X132045950Y-106680000D01*
X131936717Y-106130849D01*
X131625648Y-105665302D01*
X131243562Y-105410000D01*
X131625648Y-105154698D01*
X131936717Y-104689151D01*
X132045950Y-104140000D01*
X131936717Y-103590849D01*
X131625648Y-103125302D01*
X131243562Y-102870000D01*
X131625648Y-102614698D01*
X131936717Y-102149151D01*
X132045950Y-101600000D01*
X131936717Y-101050849D01*
X131625648Y-100585302D01*
X131160101Y-100274233D01*
X130610950Y-100165000D01*
X129739050Y-100165000D01*
X129189899Y-100274233D01*
X128736568Y-100577139D01*
X128702090Y-100523559D01*
X128489890Y-100378569D01*
X128238000Y-100327560D01*
X126738000Y-100327560D01*
X126502683Y-100371838D01*
X126286559Y-100510910D01*
X126240031Y-100579006D01*
X126097698Y-100436673D01*
X125864309Y-100340000D01*
X125273750Y-100340000D01*
X125115000Y-100498750D01*
X124861000Y-100498750D01*
X124702250Y-100340000D01*
X124111691Y-100340000D01*
X123878302Y-100436673D01*
X123699673Y-100615301D01*
X123603000Y-100848690D01*
X116782440Y-100848690D01*
X116782440Y-100800000D01*
X116738162Y-100564683D01*
X116599090Y-100348559D01*
X116386890Y-100203569D01*
X116135000Y-100152560D01*
X113735000Y-100152560D01*
X113499683Y-100196838D01*
X113283559Y-100335910D01*
X113138569Y-100548110D01*
X113087560Y-100800000D01*
X113087560Y-102400000D01*
X113131838Y-102635317D01*
X113270910Y-102851441D01*
X113483110Y-102996431D01*
X113632074Y-103026597D01*
X113484352Y-103125302D01*
X113173283Y-103590849D01*
X113064050Y-104140000D01*
X113173283Y-104689151D01*
X113484352Y-105154698D01*
X113866438Y-105410000D01*
X113484352Y-105665302D01*
X113257440Y-106004899D01*
X113257440Y-105830000D01*
X113213162Y-105594683D01*
X113074090Y-105378559D01*
X112861890Y-105233569D01*
X112610000Y-105182560D01*
X111252000Y-105182560D01*
X111252000Y-99822000D01*
X172593000Y-99822000D01*
X172593000Y-104775000D01*
G36*
X174128854Y-120134380D02*
X174503647Y-120509827D01*
X174825118Y-120643314D01*
X174567071Y-120750200D01*
X174505417Y-120985812D01*
X175260000Y-121740395D01*
X175274143Y-121726253D01*
X175453748Y-121905858D01*
X175439605Y-121920000D01*
X175453748Y-121934143D01*
X175274143Y-122113748D01*
X175260000Y-122099605D01*
X175245858Y-122113748D01*
X175066253Y-121934143D01*
X175080395Y-121920000D01*
X174325812Y-121165417D01*
X174090200Y-121227071D01*
X173991917Y-121506312D01*
X173851146Y-121165620D01*
X173476353Y-120790173D01*
X173321663Y-120725940D01*
X173418500Y-120725940D01*
X173653817Y-120681662D01*
X173869941Y-120542590D01*
X174014931Y-120330390D01*
X174065940Y-120078500D01*
X174065940Y-119982116D01*
X174128854Y-120134380D01*
X174128854Y-120134380D01*
G37*
X174128854Y-120134380D02*
X174503647Y-120509827D01*
X174825118Y-120643314D01*
X174567071Y-120750200D01*
X174505417Y-120985812D01*
X175260000Y-121740395D01*
X175274143Y-121726253D01*
X175453748Y-121905858D01*
X175439605Y-121920000D01*
X175453748Y-121934143D01*
X175274143Y-122113748D01*
X175260000Y-122099605D01*
X175245858Y-122113748D01*
X175066253Y-121934143D01*
X175080395Y-121920000D01*
X174325812Y-121165417D01*
X174090200Y-121227071D01*
X173991917Y-121506312D01*
X173851146Y-121165620D01*
X173476353Y-120790173D01*
X173321663Y-120725940D01*
X173418500Y-120725940D01*
X173653817Y-120681662D01*
X173869941Y-120542590D01*
X174014931Y-120330390D01*
X174065940Y-120078500D01*
X174065940Y-119982116D01*
X174128854Y-120134380D01*
G36*
X156146732Y-111493587D02*
X156146269Y-112024086D01*
X156261495Y-112302955D01*
X154788785Y-112302955D01*
X154506900Y-112359025D01*
X154438827Y-112404510D01*
X154303619Y-112404392D01*
X153959843Y-112546437D01*
X153696594Y-112809227D01*
X153553948Y-113152755D01*
X153553624Y-113524721D01*
X153695669Y-113868497D01*
X153958459Y-114131746D01*
X154301987Y-114274392D01*
X154673953Y-114274716D01*
X155017729Y-114132671D01*
X155280978Y-113869881D01*
X155319897Y-113776155D01*
X156253627Y-113776155D01*
X156146732Y-114033587D01*
X156146269Y-114564086D01*
X156348854Y-115054380D01*
X156723647Y-115429827D01*
X157045118Y-115563314D01*
X156787071Y-115670200D01*
X156725417Y-115905812D01*
X157480000Y-116660395D01*
X158234583Y-115905812D01*
X158172929Y-115670200D01*
X157893688Y-115571917D01*
X158234380Y-115431146D01*
X158609827Y-115056353D01*
X158750094Y-114718554D01*
X158888854Y-115054380D01*
X159263647Y-115429827D01*
X159601446Y-115570094D01*
X159265620Y-115708854D01*
X158890173Y-116083647D01*
X158756686Y-116405118D01*
X158649800Y-116147071D01*
X158414188Y-116085417D01*
X157659605Y-116840000D01*
X158414188Y-117594583D01*
X158649800Y-117532929D01*
X158748083Y-117253688D01*
X158888854Y-117594380D01*
X159263647Y-117969827D01*
X159601446Y-118110094D01*
X159265620Y-118248854D01*
X158890173Y-118623647D01*
X158749906Y-118961446D01*
X158611146Y-118625620D01*
X158236353Y-118250173D01*
X157914882Y-118116686D01*
X158172929Y-118009800D01*
X158234583Y-117774188D01*
X157480000Y-117019605D01*
X156725417Y-117774188D01*
X156787071Y-118009800D01*
X157066312Y-118108083D01*
X156725620Y-118248854D01*
X156350173Y-118623647D01*
X156146732Y-119113587D01*
X156146510Y-119367464D01*
X154330574Y-121183400D01*
X151496467Y-121183400D01*
X151310648Y-120905302D01*
X150928562Y-120650000D01*
X151310648Y-120394698D01*
X151621717Y-119929151D01*
X151730950Y-119380000D01*
X151621717Y-118830849D01*
X151310648Y-118365302D01*
X150928562Y-118110000D01*
X151310648Y-117854698D01*
X151621717Y-117389151D01*
X151730950Y-116840000D01*
X151692656Y-116647480D01*
X156134073Y-116647480D01*
X156162852Y-117177199D01*
X156310200Y-117532929D01*
X156545812Y-117594583D01*
X157300395Y-116840000D01*
X156545812Y-116085417D01*
X156310200Y-116147071D01*
X156134073Y-116647480D01*
X151692656Y-116647480D01*
X151621717Y-116290849D01*
X151310648Y-115825302D01*
X150928562Y-115570000D01*
X151310648Y-115314698D01*
X151621717Y-114849151D01*
X151730950Y-114300000D01*
X151621717Y-113750849D01*
X151310648Y-113285302D01*
X150928562Y-113030000D01*
X151310648Y-112774698D01*
X151621717Y-112309151D01*
X151730950Y-111760000D01*
X151626603Y-111235414D01*
X156253935Y-111235414D01*
X156146732Y-111493587D01*
X156146732Y-111493587D01*
G37*
X156146732Y-111493587D02*
X156146269Y-112024086D01*
X156261495Y-112302955D01*
X154788785Y-112302955D01*
X154506900Y-112359025D01*
X154438827Y-112404510D01*
X154303619Y-112404392D01*
X153959843Y-112546437D01*
X153696594Y-112809227D01*
X153553948Y-113152755D01*
X153553624Y-113524721D01*
X153695669Y-113868497D01*
X153958459Y-114131746D01*
X154301987Y-114274392D01*
X154673953Y-114274716D01*
X155017729Y-114132671D01*
X155280978Y-113869881D01*
X155319897Y-113776155D01*
X156253627Y-113776155D01*
X156146732Y-114033587D01*
X156146269Y-114564086D01*
X156348854Y-115054380D01*
X156723647Y-115429827D01*
X157045118Y-115563314D01*
X156787071Y-115670200D01*
X156725417Y-115905812D01*
X157480000Y-116660395D01*
X158234583Y-115905812D01*
X158172929Y-115670200D01*
X157893688Y-115571917D01*
X158234380Y-115431146D01*
X158609827Y-115056353D01*
X158750094Y-114718554D01*
X158888854Y-115054380D01*
X159263647Y-115429827D01*
X159601446Y-115570094D01*
X159265620Y-115708854D01*
X158890173Y-116083647D01*
X158756686Y-116405118D01*
X158649800Y-116147071D01*
X158414188Y-116085417D01*
X157659605Y-116840000D01*
X158414188Y-117594583D01*
X158649800Y-117532929D01*
X158748083Y-117253688D01*
X158888854Y-117594380D01*
X159263647Y-117969827D01*
X159601446Y-118110094D01*
X159265620Y-118248854D01*
X158890173Y-118623647D01*
X158749906Y-118961446D01*
X158611146Y-118625620D01*
X158236353Y-118250173D01*
X157914882Y-118116686D01*
X158172929Y-118009800D01*
X158234583Y-117774188D01*
X157480000Y-117019605D01*
X156725417Y-117774188D01*
X156787071Y-118009800D01*
X157066312Y-118108083D01*
X156725620Y-118248854D01*
X156350173Y-118623647D01*
X156146732Y-119113587D01*
X156146510Y-119367464D01*
X154330574Y-121183400D01*
X151496467Y-121183400D01*
X151310648Y-120905302D01*
X150928562Y-120650000D01*
X151310648Y-120394698D01*
X151621717Y-119929151D01*
X151730950Y-119380000D01*
X151621717Y-118830849D01*
X151310648Y-118365302D01*
X150928562Y-118110000D01*
X151310648Y-117854698D01*
X151621717Y-117389151D01*
X151730950Y-116840000D01*
X151692656Y-116647480D01*
X156134073Y-116647480D01*
X156162852Y-117177199D01*
X156310200Y-117532929D01*
X156545812Y-117594583D01*
X157300395Y-116840000D01*
X156545812Y-116085417D01*
X156310200Y-116147071D01*
X156134073Y-116647480D01*
X151692656Y-116647480D01*
X151621717Y-116290849D01*
X151310648Y-115825302D01*
X150928562Y-115570000D01*
X151310648Y-115314698D01*
X151621717Y-114849151D01*
X151730950Y-114300000D01*
X151621717Y-113750849D01*
X151310648Y-113285302D01*
X150928562Y-113030000D01*
X151310648Y-112774698D01*
X151621717Y-112309151D01*
X151730950Y-111760000D01*
X151626603Y-111235414D01*
X156253935Y-111235414D01*
X156146732Y-111493587D01*
G36*
X171535187Y-109844495D02*
X171419808Y-109959673D01*
X171297875Y-110253318D01*
X171265473Y-110253290D01*
X170921697Y-110395335D01*
X170764664Y-110552094D01*
X170593688Y-110491917D01*
X170934380Y-110351146D01*
X171309827Y-109976353D01*
X171450094Y-109638554D01*
X171535187Y-109844495D01*
X171535187Y-109844495D01*
G37*
X171535187Y-109844495D02*
X171419808Y-109959673D01*
X171297875Y-110253318D01*
X171265473Y-110253290D01*
X170921697Y-110395335D01*
X170764664Y-110552094D01*
X170593688Y-110491917D01*
X170934380Y-110351146D01*
X171309827Y-109976353D01*
X171450094Y-109638554D01*
X171535187Y-109844495D01*
M02*
