M48
;DRILL file {KiCad 4.0.5+dfsg1-4} date Sat Apr 29 18:46:45 2017
;FORMAT={-:-/ absolute / inch / decimal}
FMAT,2
INCH,TZ
T1C0.016
T2C0.031
T3C0.032
T4C0.039
%
G90
G05
M72
T1
X5.046Y-4.3986
X5.3591Y-4.25
X5.383Y-4.7826
X5.3896Y-4.0686
X5.3952Y-4.422
X5.49Y-4.2
X5.4975Y-4.2828
X5.5392Y-4.1278
X5.97Y-4.05
X5.9737Y-5.2501
X5.9792Y-5.4437
X5.9816Y-5.3498
X5.9895Y-5.1787
X6.0095Y-4.8817
X6.0095Y-4.9467
X6.0095Y-5.006
X6.021Y-5.1444
X6.0237Y-5.4189
X6.0822Y-4.4622
X6.1198Y-5.0072
X6.13Y-4.69
X6.13Y-4.94
X6.1438Y-4.9866
X6.1441Y-5.0405
X6.5Y-4.61
X6.75Y-4.3775
X6.78Y-4.35
X6.7862Y-4.2327
X6.88Y-4.34
X6.8838Y-4.2022
X6.8854Y-4.2992
T2
X4.525Y-4.
X4.525Y-4.1
X4.525Y-4.2
X4.525Y-4.3
X4.525Y-4.4
X4.525Y-4.5
X4.525Y-4.6
X4.525Y-4.7
X4.525Y-4.8
X4.525Y-4.9
X4.525Y-5.
X4.525Y-5.1
X4.525Y-5.2
X4.525Y-5.3
X4.525Y-5.4
X4.525Y-5.5
X5.125Y-4.
X5.125Y-4.1
X5.125Y-4.2
X5.125Y-4.3
X5.125Y-4.4
X5.125Y-4.5
X5.125Y-4.6
X5.125Y-4.7
X5.125Y-4.8
X5.125Y-4.9
X5.125Y-5.
X5.125Y-5.1
X5.125Y-5.2
X5.125Y-5.3
X5.125Y-5.4
X5.125Y-5.5
X5.3Y-4.
X5.3Y-4.1
X5.3Y-4.2
X5.3Y-4.3
X5.3Y-4.4
X5.3Y-4.5
X5.3Y-4.6
X5.3Y-4.7
X5.3Y-4.8
X5.3Y-4.9
X5.3Y-5.
X5.3Y-5.1
X5.3Y-5.2
X5.3Y-5.3
X5.3Y-5.4
X5.3Y-5.5
X5.9Y-4.
X5.9Y-4.1
X5.9Y-4.2
X5.9Y-4.3
X5.9Y-4.4
X5.9Y-4.5
X5.9Y-4.6
X5.9Y-4.7
X5.9Y-4.8
X5.9Y-4.9
X5.9Y-5.
X5.9Y-5.1
X5.9Y-5.2
X5.9Y-5.3
X5.9Y-5.4
X5.9Y-5.5
X6.5Y-5.2
X6.5Y-5.3
X6.5Y-5.4
X6.5Y-5.5
X6.8Y-5.2
X6.8Y-5.3
X6.8Y-5.4
X6.8Y-5.5
T3
X6.2Y-4.4
X6.2Y-4.5
X6.2Y-4.6
X6.2Y-4.7
X6.2Y-4.8
X6.2Y-4.9
X6.3Y-4.3
X6.3Y-4.4
X6.3Y-4.5
X6.3Y-4.6
X6.3Y-4.7
X6.3Y-4.8
X6.3Y-4.9
X6.3Y-5.
X6.4Y-4.3
X6.4Y-4.4
X6.4Y-4.9
X6.4Y-5.
X6.5Y-4.3
X6.5Y-4.4
X6.5Y-4.9
X6.5Y-5.
X6.6Y-4.3
X6.6Y-4.4
X6.6Y-4.9
X6.6Y-5.
X6.7Y-4.3
X6.7Y-4.4
X6.7Y-4.9
X6.7Y-5.
X6.8Y-4.3
X6.8Y-4.4
X6.8Y-4.5
X6.8Y-4.6
X6.8Y-4.7
X6.8Y-4.8
X6.8Y-4.9
X6.8Y-5.
X6.9Y-4.4
X6.9Y-4.5
X6.9Y-4.6
X6.9Y-4.7
X6.9Y-4.8
X6.9Y-4.9
T4
X4.4Y-4.2
X4.4Y-4.3
X4.4Y-4.4
X4.4Y-4.5
X4.4Y-4.6
X4.4Y-4.7
X4.4Y-4.8
X4.4Y-4.9
X4.4Y-5.
X4.4Y-5.1
X4.4Y-5.2
X4.4Y-5.3
X4.4Y-5.4
X4.4Y-5.5
X6.2Y-4.
X6.2Y-4.1
X6.3Y-4.
X6.3Y-4.1
X6.36Y-5.3
X6.36Y-5.4
X6.4Y-4.
X6.4Y-4.1
X6.5Y-4.
X6.5Y-4.1
X6.6Y-4.
X6.6Y-4.1
X7.1Y-4.2
X7.1Y-4.3
X7.1Y-4.4
X7.1Y-4.5
X7.1Y-4.6
X7.1Y-4.7
X7.1Y-4.8
X7.1Y-4.9
X7.25Y-4.2
X7.25Y-4.3
X7.25Y-4.4
X7.25Y-4.5
X7.25Y-4.6
X7.25Y-4.7
X7.25Y-4.8
X7.25Y-4.9
X7.25Y-5.
X7.25Y-5.1
X7.25Y-5.2
X7.25Y-5.3
X7.25Y-5.4
X7.25Y-5.5
T0
M30
